{"glyphs":{"0":{"ha":735,"x_min":40,"x_max":696,"o":"m 368 -19 q 123 121 206 -19 q 40 481 40 261 q 123 828 40 693 q 368 963 206 963 q 613 828 531 963 q 696 481 696 693 q 613 121 696 261 q 368 -19 531 -19 m 367 64 q 533 182 479 64 q 586 481 586 300 q 533 766 586 653 q 367 879 479 879 q 201 766 254 879 q 147 481 147 653 q 201 182 147 300 q 367 64 254 64 z "},"1":{"ha":735,"x_min":136,"x_max":661,"o":"m 661 83 l 661 0 l 150 0 l 150 83 l 351 83 l 351 822 l 179 696 l 136 765 l 369 943 l 369 944 l 458 944 l 458 83 l 661 83 z "},"2":{"ha":735,"x_min":39,"x_max":674,"o":"m 56 64 l 296 297 q 474 512 422 418 q 525 688 525 606 q 474 826 525 776 q 336 876 424 876 q 208 847 264 876 q 85 743 151 817 l 39 806 q 177 923 103 885 q 343 961 251 961 q 553 889 475 961 q 632 690 632 817 q 572 483 632 589 q 365 238 513 378 l 210 86 l 210 83 l 674 83 l 674 0 l 56 0 l 56 64 z "},"3":{"ha":736,"x_min":32,"x_max":672,"o":"m 447 507 q 608 431 544 494 q 672 269 672 367 q 631 120 672 188 q 514 13 590 53 q 336 -28 438 -28 q 163 -1 236 -28 q 32 92 90 25 l 75 160 q 195 78 136 101 q 336 56 254 56 q 501 114 438 56 q 565 265 565 172 q 509 396 565 346 q 354 446 453 446 q 215 424 288 446 l 200 504 q 376 558 311 532 q 477 627 440 583 q 514 742 514 671 q 473 837 514 800 q 364 874 432 874 q 107 743 232 874 l 61 806 q 202 919 122 881 q 367 957 282 957 q 551 899 482 957 q 621 742 621 840 q 447 507 621 588 z "},"4":{"ha":733,"x_min":26,"x_max":722,"o":"m 722 261 l 565 261 l 565 0 l 458 0 l 458 261 l 26 261 l 26 326 l 469 940 l 471 944 l 565 944 l 565 344 l 722 344 l 722 261 m 458 344 l 458 524 l 460 790 l 279 535 l 143 344 l 458 344 z "},"5":{"ha":736,"x_min":47,"x_max":688,"o":"m 369 564 q 540 528 468 564 q 650 428 613 492 q 688 283 688 365 q 646 125 688 196 q 526 13 604 54 q 343 -28 449 -28 q 176 -1 249 -28 q 47 92 104 25 l 90 160 q 208 78 151 101 q 343 56 265 56 q 516 116 451 56 q 581 281 581 176 q 524 426 581 372 q 365 481 468 481 q 142 432 258 481 l 108 451 l 147 944 l 663 944 l 663 860 l 243 860 l 219 540 q 369 564 294 564 z "},"6":{"ha":735,"x_min":51,"x_max":685,"o":"m 394 564 q 549 524 483 564 q 650 421 615 485 q 685 288 685 357 q 647 135 685 206 q 537 22 608 64 q 368 -21 465 -21 q 138 76 225 -21 q 51 354 51 174 q 197 743 51 585 q 594 963 342 901 l 622 883 q 318 732 432 831 q 172 478 204 633 q 274 541 217 518 q 394 564 332 564 m 368 63 q 523 126 469 63 q 576 285 576 189 q 526 424 576 368 q 389 481 476 481 q 160 351 246 481 l 160 347 q 216 135 160 208 q 368 63 272 63 z "},"7":{"ha":735,"x_min":38,"x_max":699,"o":"m 579 858 l 579 861 l 38 861 l 38 944 l 699 944 l 699 878 l 192 0 l 69 0 l 579 858 z "},"8":{"ha":735,"x_min":54,"x_max":682,"o":"m 474 493 q 630 388 578 450 q 682 235 682 325 q 603 52 682 124 q 368 -19 524 -19 q 193 15 264 -19 q 88 107 122 50 q 54 232 54 164 q 250 488 54 403 q 122 586 161 531 q 82 719 82 642 q 114 842 82 786 q 210 930 146 897 q 368 963 275 963 q 526 931 461 963 q 622 847 590 899 q 654 732 654 794 q 612 592 654 647 q 474 493 569 536 m 190 722 q 238 603 190 649 q 378 526 286 558 q 508 610 469 560 q 546 729 546 660 q 501 835 546 792 q 368 879 456 879 q 235 834 279 879 q 190 722 190 789 m 368 64 q 524 113 474 64 q 574 233 574 161 q 518 363 574 317 q 347 450 463 410 q 211 364 260 419 q 163 235 163 308 q 213 114 163 164 q 368 64 264 64 z "},"9":{"ha":735,"x_min":51,"x_max":685,"o":"m 368 963 q 533 919 461 963 q 644 792 604 876 q 685 589 685 708 q 540 199 685 357 q 142 -21 396 42 l 114 58 q 418 211 304 113 q 564 465 532 310 q 463 401 519 424 q 342 378 406 378 q 187 417 253 378 q 86 521 121 457 q 51 656 51 585 q 90 808 51 738 q 199 921 128 879 q 368 963 271 963 m 347 463 q 576 590 492 463 l 576 594 q 520 806 576 733 q 368 879 464 879 q 213 816 267 879 q 160 657 160 753 q 210 518 160 574 q 347 463 260 463 z "},"\r":{"ha":147,"x_min":0,"x_max":0,"o":""}," ":{"ha":347,"x_min":0,"x_max":0,"o":""},"A":{"ha":893,"x_min":29,"x_max":863,"o":"m 639 306 l 250 306 l 136 0 l 29 0 l 396 957 l 494 957 l 863 0 l 753 0 l 639 306 m 607 389 l 444 825 l 281 389 l 607 389 z "},"Á":{"ha":893,"x_min":29,"x_max":863,"o":"m 29 0 m 639 306 l 250 306 l 136 0 l 29 0 l 396 957 l 494 957 l 863 0 l 753 0 l 639 306 m 607 389 l 444 825 l 281 389 l 607 389 m 568 1232 l 676 1232 l 490 1028 l 400 1028 l 568 1232 z "},"Ă":{"ha":893,"x_min":29,"x_max":863,"o":"m 29 0 m 639 306 l 250 306 l 136 0 l 29 0 l 396 957 l 494 957 l 863 0 l 753 0 l 639 306 m 607 389 l 444 825 l 281 389 l 607 389 m 447 1057 q 305 1112 357 1057 q 250 1261 253 1167 l 324 1264 q 360 1160 328 1194 q 447 1125 392 1125 q 535 1160 503 1125 q 572 1264 568 1194 l 646 1261 q 591 1112 643 1167 q 447 1057 539 1057 z "},"Â":{"ha":893,"x_min":29,"x_max":863,"o":"m 29 0 m 639 306 l 250 306 l 136 0 l 29 0 l 396 957 l 494 957 l 863 0 l 753 0 l 639 306 m 607 389 l 444 825 l 281 389 l 607 389 m 576 1028 l 447 1179 l 318 1028 l 222 1028 l 393 1232 l 501 1232 l 672 1028 l 576 1028 z "},"Ä":{"ha":893,"x_min":29,"x_max":863,"o":"m 29 0 m 639 306 l 250 306 l 136 0 l 29 0 l 396 957 l 494 957 l 863 0 l 753 0 l 639 306 m 607 389 l 444 825 l 281 389 l 607 389 m 313 1074 q 267 1092 286 1074 q 247 1138 247 1111 q 267 1183 247 1164 q 313 1203 286 1203 q 359 1184 340 1203 q 378 1138 378 1165 q 358 1092 378 1111 q 313 1074 339 1074 m 582 1074 q 536 1092 556 1074 q 517 1138 517 1111 q 536 1183 517 1164 q 582 1203 556 1203 q 628 1184 610 1203 q 647 1138 647 1165 q 628 1092 647 1111 q 582 1074 608 1074 z "},"À":{"ha":893,"x_min":29,"x_max":863,"o":"m 29 0 m 639 306 l 250 306 l 136 0 l 29 0 l 396 957 l 494 957 l 863 0 l 753 0 l 639 306 m 607 389 l 444 825 l 281 389 l 607 389 m 219 1232 l 328 1232 l 496 1028 l 407 1028 l 219 1232 z "},"Ā":{"ha":893,"x_min":29,"x_max":863,"o":"m 29 0 m 639 306 l 250 306 l 136 0 l 29 0 l 396 957 l 494 957 l 863 0 l 753 0 l 639 306 m 607 389 l 444 825 l 281 389 l 607 389 m 238 1179 l 656 1179 l 656 1101 l 238 1101 l 238 1179 z "},"Ą":{"ha":893,"x_min":29,"x_max":886,"o":"m 886 -268 q 825 -318 863 -299 q 746 -337 788 -337 q 644 -303 682 -337 q 607 -207 607 -268 q 643 -94 607 -151 q 747 17 679 -37 l 639 306 l 250 306 l 136 0 l 29 0 l 396 957 l 494 957 l 863 0 l 824 0 q 726 -103 757 -57 q 694 -194 694 -150 q 711 -242 694 -226 q 758 -258 728 -258 q 846 -215 803 -258 l 886 -268 m 607 389 l 444 825 l 281 389 l 607 389 z "},"Å":{"ha":893,"x_min":29,"x_max":863,"o":"m 29 0 m 639 306 l 250 306 l 136 0 l 29 0 l 396 957 l 494 957 l 863 0 l 753 0 l 639 306 m 607 389 l 444 825 l 281 389 l 607 389 m 447 1025 q 348 1058 383 1025 q 313 1139 313 1092 q 348 1220 313 1186 q 447 1254 383 1254 q 547 1220 511 1254 q 582 1139 582 1186 q 547 1058 582 1092 q 447 1025 511 1025 m 447 1085 q 493 1100 476 1085 q 510 1139 510 1115 q 493 1179 510 1164 q 447 1194 476 1194 q 403 1179 419 1194 q 386 1139 386 1164 q 403 1100 386 1115 q 447 1085 419 1085 z "},"Ã":{"ha":893,"x_min":29,"x_max":863,"o":"m 29 0 m 639 306 l 250 306 l 136 0 l 29 0 l 396 957 l 494 957 l 863 0 l 753 0 l 639 306 m 607 389 l 444 825 l 281 389 l 607 389 m 221 1044 q 263 1184 228 1135 q 354 1233 297 1233 q 412 1217 389 1233 q 464 1168 435 1201 q 501 1131 485 1143 q 538 1118 517 1118 q 582 1145 567 1118 q 606 1236 597 1172 l 674 1231 q 632 1092 667 1142 q 540 1042 597 1042 q 478 1059 503 1042 q 425 1110 454 1076 q 390 1145 406 1133 q 357 1157 375 1157 q 313 1131 328 1157 q 289 1039 297 1104 l 221 1044 z "},"Æ":{"ha":1368,"x_min":25,"x_max":1288,"o":"m 1288 83 l 1288 0 l 718 0 l 718 404 l 411 404 l 143 0 l 25 0 l 665 944 l 1260 944 l 1260 861 l 826 861 l 826 504 l 1204 504 l 1204 421 l 826 421 l 826 83 l 1288 83 m 718 488 l 718 865 l 467 488 l 718 488 z "},"B":{"ha":865,"x_min":160,"x_max":799,"o":"m 599 497 q 747 414 696 476 q 799 261 799 351 q 713 72 799 143 q 467 0 626 0 l 160 0 l 160 944 l 467 944 q 682 880 607 944 q 757 703 757 815 q 716 574 757 629 q 599 497 675 519 m 268 861 l 268 538 l 467 538 q 601 581 553 538 q 649 699 649 624 q 602 821 649 781 q 467 861 556 861 l 268 861 m 467 83 q 632 133 574 83 q 690 269 690 183 q 633 408 690 363 q 467 454 576 454 l 268 454 l 268 83 l 467 83 z "},"C":{"ha":965,"x_min":79,"x_max":897,"o":"m 547 -21 q 289 47 394 -21 q 131 228 183 115 q 79 474 79 340 q 134 718 79 607 q 298 896 189 829 q 564 963 407 963 q 742 931 658 963 q 881 840 825 899 l 829 771 q 713 849 785 819 q 564 878 640 878 q 360 825 444 878 q 231 680 275 772 q 188 472 188 588 q 229 262 188 354 q 351 116 271 169 q 547 63 432 63 q 850 206 722 63 l 897 138 q 746 24 835 68 q 547 -21 657 -21 z "},"Ć":{"ha":965,"x_min":79,"x_max":897,"o":"m 79 0 m 547 -21 q 289 47 394 -21 q 131 228 183 115 q 79 474 79 340 q 134 718 79 607 q 298 896 189 829 q 564 963 407 963 q 742 931 658 963 q 881 840 825 899 l 829 771 q 713 849 785 819 q 564 878 640 878 q 360 825 444 878 q 231 680 275 772 q 188 472 188 588 q 229 262 188 354 q 351 116 271 169 q 547 63 432 63 q 850 206 722 63 l 897 138 q 746 24 835 68 q 547 -21 657 -21 m 668 1232 l 776 1232 l 590 1028 l 500 1028 l 668 1232 z "},"Č":{"ha":965,"x_min":79,"x_max":897,"o":"m 79 0 m 547 -21 q 289 47 394 -21 q 131 228 183 115 q 79 474 79 340 q 134 718 79 607 q 298 896 189 829 q 564 963 407 963 q 742 931 658 963 q 881 840 825 899 l 829 771 q 713 849 785 819 q 564 878 640 878 q 360 825 444 878 q 231 680 275 772 q 188 472 188 588 q 229 262 188 354 q 351 116 271 169 q 547 63 432 63 q 850 206 722 63 l 897 138 q 746 24 835 68 q 547 -21 657 -21 m 772 1232 l 601 1028 l 493 1028 l 322 1232 l 418 1232 l 547 1081 l 676 1232 l 772 1232 z "},"Ç":{"ha":965,"x_min":79,"x_max":897,"o":"m 897 138 q 760 31 839 74 q 585 -19 682 -11 l 544 -97 q 575 -93 560 -93 q 647 -117 618 -93 q 675 -178 675 -140 q 500 -331 675 -282 l 471 -279 q 565 -233 540 -254 q 590 -186 590 -211 q 549 -151 590 -151 q 496 -165 526 -151 l 453 -124 l 508 -19 q 272 58 368 -11 q 127 237 175 128 q 79 474 79 346 q 134 718 79 607 q 298 896 189 829 q 564 963 407 963 q 742 931 658 963 q 881 840 825 899 l 829 771 q 713 849 785 819 q 564 878 640 878 q 360 825 444 878 q 231 680 275 772 q 188 472 188 588 q 229 262 188 354 q 351 116 271 169 q 547 63 432 63 q 850 206 722 63 l 897 138 z "},"D":{"ha":1011,"x_min":160,"x_max":932,"o":"m 481 944 q 727 883 625 944 q 881 715 829 822 q 932 474 932 608 q 881 228 932 335 q 728 60 829 121 q 481 0 626 0 l 160 0 l 160 944 l 481 944 m 481 83 q 735 188 644 83 q 825 472 825 293 q 735 755 825 649 q 481 861 644 861 l 268 861 l 268 83 l 481 83 z "},"Ð":{"ha":1011,"x_min":4,"x_max":932,"o":"m 481 944 q 727 883 625 944 q 881 715 829 822 q 932 474 932 608 q 881 228 932 335 q 728 60 829 121 q 481 0 626 0 l 160 0 l 160 438 l 4 438 l 4 517 l 160 517 l 160 944 l 481 944 m 481 83 q 735 188 644 83 q 825 472 825 293 q 735 755 825 649 q 481 861 644 861 l 268 861 l 268 517 l 546 517 l 546 438 l 268 438 l 268 83 l 481 83 z "},"Ď":{"ha":1011,"x_min":160,"x_max":932,"o":"m 160 0 m 481 944 q 727 883 625 944 q 881 715 829 822 q 932 474 932 608 q 881 228 932 335 q 728 60 829 121 q 481 0 626 0 l 160 0 l 160 944 l 481 944 m 481 83 q 735 188 644 83 q 825 472 825 293 q 735 755 825 649 q 481 861 644 861 l 268 861 l 268 83 l 481 83 m 718 1232 l 547 1028 l 439 1028 l 268 1232 l 364 1232 l 493 1081 l 622 1232 l 718 1232 z "},"Đ":{"ha":1011,"x_min":4,"x_max":932,"o":"m 481 944 q 727 883 625 944 q 881 715 829 822 q 932 474 932 608 q 881 228 932 335 q 728 60 829 121 q 481 0 626 0 l 160 0 l 160 438 l 4 438 l 4 517 l 160 517 l 160 944 l 481 944 m 481 83 q 735 188 644 83 q 825 472 825 293 q 735 755 825 649 q 481 861 644 861 l 268 861 l 268 517 l 546 517 l 546 438 l 268 438 l 268 83 l 481 83 z "},"E":{"ha":810,"x_min":160,"x_max":729,"o":"m 729 83 l 729 0 l 160 0 l 160 944 l 701 944 l 701 861 l 268 861 l 268 542 l 646 542 l 646 458 l 268 458 l 268 83 l 729 83 z "},"É":{"ha":810,"x_min":160,"x_max":729,"o":"m 160 0 m 729 83 l 729 0 l 160 0 l 160 944 l 701 944 l 701 861 l 268 861 l 268 542 l 646 542 l 646 458 l 268 458 l 268 83 l 729 83 m 557 1232 l 665 1232 l 479 1028 l 389 1028 l 557 1232 z "},"Ě":{"ha":810,"x_min":160,"x_max":729,"o":"m 160 0 m 729 83 l 729 0 l 160 0 l 160 944 l 701 944 l 701 861 l 268 861 l 268 542 l 646 542 l 646 458 l 268 458 l 268 83 l 729 83 m 661 1232 l 490 1028 l 382 1028 l 211 1232 l 307 1232 l 436 1081 l 565 1232 l 661 1232 z "},"Ê":{"ha":810,"x_min":160,"x_max":729,"o":"m 160 0 m 729 83 l 729 0 l 160 0 l 160 944 l 701 944 l 701 861 l 268 861 l 268 542 l 646 542 l 646 458 l 268 458 l 268 83 l 729 83 m 565 1028 l 436 1179 l 307 1028 l 211 1028 l 382 1232 l 490 1232 l 661 1028 l 565 1028 z "},"Ë":{"ha":810,"x_min":160,"x_max":729,"o":"m 160 0 m 729 83 l 729 0 l 160 0 l 160 944 l 701 944 l 701 861 l 268 861 l 268 542 l 646 542 l 646 458 l 268 458 l 268 83 l 729 83 m 301 1074 q 256 1092 275 1074 q 236 1138 236 1111 q 256 1183 236 1164 q 301 1203 275 1203 q 348 1184 329 1203 q 367 1138 367 1165 q 347 1092 367 1111 q 301 1074 328 1074 m 571 1074 q 525 1092 544 1074 q 506 1138 506 1111 q 525 1183 506 1164 q 571 1203 544 1203 q 617 1184 599 1203 q 636 1138 636 1165 q 617 1092 636 1111 q 571 1074 597 1074 z "},"Ė":{"ha":810,"x_min":160,"x_max":729,"o":"m 160 0 m 729 83 l 729 0 l 160 0 l 160 944 l 701 944 l 701 861 l 268 861 l 268 542 l 646 542 l 646 458 l 268 458 l 268 83 l 729 83 m 436 1072 q 390 1092 410 1072 q 371 1136 371 1111 q 390 1183 371 1163 q 436 1203 410 1203 q 482 1183 463 1203 q 501 1136 501 1164 q 482 1092 501 1111 q 436 1072 463 1072 z "},"È":{"ha":810,"x_min":160,"x_max":729,"o":"m 160 0 m 729 83 l 729 0 l 160 0 l 160 944 l 701 944 l 701 861 l 268 861 l 268 542 l 646 542 l 646 458 l 268 458 l 268 83 l 729 83 m 208 1232 l 317 1232 l 485 1028 l 396 1028 l 208 1232 z "},"Ē":{"ha":810,"x_min":160,"x_max":729,"o":"m 160 0 m 729 83 l 729 0 l 160 0 l 160 944 l 701 944 l 701 861 l 268 861 l 268 542 l 646 542 l 646 458 l 268 458 l 268 83 l 729 83 m 226 1179 l 644 1179 l 644 1101 l 226 1101 l 226 1179 z "},"Ę":{"ha":810,"x_min":160,"x_max":744,"o":"m 160 0 m 729 83 l 729 0 l 160 0 l 160 944 l 701 944 l 701 861 l 268 861 l 268 542 l 646 542 l 646 458 l 268 458 l 268 83 l 729 83 m 604 -337 q 503 -303 540 -337 q 465 -207 465 -268 q 503 -92 465 -150 q 611 21 540 -33 l 707 21 q 590 -96 628 -44 q 553 -194 553 -147 q 569 -242 553 -226 q 617 -258 586 -258 q 704 -215 661 -258 l 744 -268 q 683 -318 721 -299 q 604 -337 646 -337 z "},"F":{"ha":740,"x_min":160,"x_max":701,"o":"m 268 861 l 268 521 l 646 521 l 646 436 l 268 436 l 268 0 l 160 0 l 160 944 l 701 944 l 701 861 l 268 861 z "},"G":{"ha":990,"x_min":79,"x_max":882,"o":"m 882 438 l 882 54 q 742 0 829 21 q 547 -21 656 -21 q 289 47 394 -21 q 131 228 183 115 q 79 474 79 340 q 134 718 79 607 q 298 896 189 829 q 564 963 407 963 q 742 931 658 963 q 881 840 825 899 l 829 771 q 713 849 785 819 q 564 878 640 878 q 360 825 444 878 q 231 680 275 772 q 188 472 188 588 q 229 262 188 354 q 351 116 271 169 q 547 63 432 63 q 778 97 681 63 l 778 438 l 882 438 z "},"Ğ":{"ha":990,"x_min":79,"x_max":882,"o":"m 79 0 m 882 438 l 882 54 q 742 0 829 21 q 547 -21 656 -21 q 289 47 394 -21 q 131 228 183 115 q 79 474 79 340 q 134 718 79 607 q 298 896 189 829 q 564 963 407 963 q 742 931 658 963 q 881 840 825 899 l 829 771 q 713 849 785 819 q 564 878 640 878 q 360 825 444 878 q 231 680 275 772 q 188 472 188 588 q 229 262 188 354 q 351 116 271 169 q 547 63 432 63 q 778 97 681 63 l 778 438 l 882 438 m 546 1057 q 403 1112 456 1057 q 349 1261 351 1167 l 422 1264 q 458 1160 426 1194 q 546 1125 490 1125 q 634 1160 601 1125 q 671 1264 667 1194 l 744 1261 q 690 1112 742 1167 q 546 1057 638 1057 z "},"Ģ":{"ha":990,"x_min":79,"x_max":882,"o":"m 79 0 m 882 438 l 882 54 q 742 0 829 21 q 547 -21 656 -21 q 289 47 394 -21 q 131 228 183 115 q 79 474 79 340 q 134 718 79 607 q 298 896 189 829 q 564 963 407 963 q 742 931 658 963 q 881 840 825 899 l 829 771 q 713 849 785 819 q 564 878 640 878 q 360 825 444 878 q 231 680 275 772 q 188 472 188 588 q 229 262 188 354 q 351 116 271 169 q 547 63 432 63 q 778 97 681 63 l 778 438 l 882 438 m 467 -283 q 542 -244 521 -264 q 564 -197 564 -225 q 548 -165 564 -178 q 494 -146 532 -151 l 519 -85 q 618 -122 588 -93 q 649 -193 649 -151 q 612 -277 649 -240 q 496 -335 575 -314 l 467 -283 z "},"H":{"ha":1064,"x_min":160,"x_max":906,"o":"m 906 944 l 906 0 l 797 0 l 797 458 l 268 458 l 268 0 l 160 0 l 160 944 l 268 944 l 268 542 l 797 542 l 797 944 l 906 944 z "},"Ħ":{"ha":1064,"x_min":4,"x_max":1063,"o":"m 1063 706 l 906 706 l 906 0 l 797 0 l 797 458 l 268 458 l 268 0 l 160 0 l 160 706 l 4 706 l 4 783 l 160 783 l 160 944 l 268 944 l 268 783 l 797 783 l 797 944 l 906 944 l 906 783 l 1063 783 l 1063 706 m 797 706 l 268 706 l 268 542 l 797 542 l 797 706 z "},"I":{"ha":426,"x_min":160,"x_max":268,"o":"m 160 944 l 268 944 l 268 0 l 160 0 l 160 944 z "},"Ĳ":{"ha":854,"x_min":160,"x_max":694,"o":"m 160 0 m 160 944 l 268 944 l 268 0 l 160 0 l 160 944 m 443 -339 q 361 -328 406 -339 l 376 -244 q 436 -251 408 -251 q 551 -197 517 -251 q 586 -29 586 -143 l 586 944 l 694 944 l 694 -32 q 633 -260 694 -181 q 443 -339 571 -339 z "},"Í":{"ha":426,"x_min":160,"x_max":443,"o":"m 160 0 m 160 944 l 268 944 l 268 0 l 160 0 l 160 944 m 335 1232 l 443 1232 l 257 1028 l 167 1028 l 335 1232 z "},"Î":{"ha":426,"x_min":-11,"x_max":439,"o":"m 0 0 m 160 944 l 268 944 l 268 0 l 160 0 l 160 944 m 343 1028 l 214 1179 l 85 1028 l -11 1028 l 160 1232 l 268 1232 l 439 1028 l 343 1028 z "},"Ï":{"ha":426,"x_min":14,"x_max":414,"o":"m 14 0 m 160 944 l 268 944 l 268 0 l 160 0 l 160 944 m 79 1074 q 33 1092 53 1074 q 14 1138 14 1111 q 33 1183 14 1164 q 79 1203 53 1203 q 126 1184 107 1203 q 144 1138 144 1165 q 125 1092 144 1111 q 79 1074 106 1074 m 349 1074 q 303 1092 322 1074 q 283 1138 283 1111 q 303 1183 283 1164 q 349 1203 322 1203 q 395 1184 376 1203 q 414 1138 414 1165 q 394 1092 414 1111 q 349 1074 375 1074 z "},"İ":{"ha":426,"x_min":149,"x_max":279,"o":"m 149 0 m 160 944 l 268 944 l 268 0 l 160 0 l 160 944 m 214 1072 q 168 1092 188 1072 q 149 1136 149 1111 q 168 1183 149 1163 q 214 1203 188 1203 q 260 1183 240 1203 q 279 1136 279 1164 q 260 1092 279 1111 q 214 1072 240 1072 z "},"Ì":{"ha":426,"x_min":-14,"x_max":268,"o":"m 0 0 m 160 944 l 268 944 l 268 0 l 160 0 l 160 944 m -14 1232 l 94 1232 l 263 1028 l 174 1028 l -14 1232 z "},"Ī":{"ha":426,"x_min":4,"x_max":422,"o":"m 4 0 m 160 944 l 268 944 l 268 0 l 160 0 l 160 944 m 4 1179 l 422 1179 l 422 1101 l 4 1101 l 4 1179 z "},"Į":{"ha":426,"x_min":19,"x_max":299,"o":"m 299 -268 q 238 -318 275 -299 q 158 -337 200 -337 q 57 -303 94 -337 q 19 -207 19 -268 q 56 -94 19 -151 q 160 17 92 -37 l 160 944 l 268 944 l 268 0 l 236 0 q 138 -103 169 -57 q 107 -194 107 -150 q 124 -242 107 -226 q 171 -258 140 -258 q 258 -215 215 -258 l 299 -268 z "},"Ĩ":{"ha":426,"x_min":-12,"x_max":440,"o":"m 0 0 m 160 944 l 268 944 l 268 0 l 160 0 l 160 944 m -12 1044 q 29 1184 -6 1135 q 121 1233 64 1233 q 178 1217 156 1233 q 231 1168 201 1201 q 267 1131 251 1143 q 304 1118 283 1118 q 349 1145 333 1118 q 372 1236 364 1172 l 440 1231 q 399 1092 433 1142 q 307 1042 364 1042 q 245 1059 269 1042 q 192 1110 221 1076 q 157 1145 172 1133 q 124 1157 142 1157 q 79 1131 94 1157 q 56 1039 64 1104 l -12 1044 z "},"J":{"ha":426,"x_min":-65,"x_max":268,"o":"m 17 -339 q -65 -328 -21 -339 l -50 -244 q 10 -251 -18 -251 q 125 -197 90 -251 q 160 -29 160 -143 l 160 944 l 268 944 l 268 -32 q 206 -260 268 -181 q 17 -339 144 -339 z "},"Ĵ":{"ha":426,"x_min":-65,"x_max":439,"o":"m 0 0 m 17 -339 q -65 -328 -21 -339 l -50 -244 q 10 -251 -18 -251 q 125 -197 90 -251 q 160 -29 160 -143 l 160 944 l 268 944 l 268 -32 q 206 -260 268 -181 q 17 -339 144 -339 m 343 1028 l 214 1179 l 85 1028 l -11 1028 l 160 1232 l 268 1232 l 439 1028 l 343 1028 z "},"K":{"ha":936,"x_min":160,"x_max":896,"o":"m 160 944 l 268 944 l 268 0 l 160 0 l 160 944 m 896 0 l 764 0 l 296 493 l 296 521 l 708 944 l 836 944 l 407 511 l 896 0 z "},"Ķ":{"ha":936,"x_min":160,"x_max":896,"o":"m 160 0 m 160 944 l 268 944 l 268 0 l 160 0 l 160 944 m 896 0 l 764 0 l 296 493 l 296 521 l 708 944 l 836 944 l 407 511 l 896 0 m 389 -283 q 465 -244 443 -264 q 486 -197 486 -225 q 470 -165 486 -178 q 417 -146 454 -151 l 442 -85 q 540 -122 510 -93 q 571 -193 571 -151 q 534 -277 571 -240 q 418 -335 497 -314 l 389 -283 z "},"L":{"ha":776,"x_min":160,"x_max":729,"o":"m 729 83 l 729 0 l 160 0 l 160 944 l 268 944 l 268 83 l 729 83 z "},"Ĺ":{"ha":776,"x_min":160,"x_max":729,"o":"m 160 0 m 729 83 l 729 0 l 160 0 l 160 944 l 268 944 l 268 83 l 729 83 m 343 1232 l 451 1232 l 265 1028 l 175 1028 l 343 1232 z "},"Ľ":{"ha":776,"x_min":160,"x_max":729,"o":"m 160 0 m 729 83 l 729 0 l 160 0 l 160 944 l 268 944 l 268 83 l 729 83 m 347 675 q 432 849 432 735 q 414 944 432 893 l 504 944 q 518 853 518 899 q 481 718 518 779 q 383 626 443 657 l 347 675 z "},"Ļ":{"ha":776,"x_min":160,"x_max":729,"o":"m 160 0 m 729 83 l 729 0 l 160 0 l 160 944 l 268 944 l 268 83 l 729 83 m 376 -283 q 452 -244 431 -264 q 474 -197 474 -225 q 458 -165 474 -178 q 404 -146 442 -151 l 429 -85 q 528 -122 497 -93 q 558 -193 558 -151 q 522 -277 558 -240 q 406 -335 485 -314 l 376 -283 z "},"Ŀ":{"ha":776,"x_min":160,"x_max":729,"o":"m 160 0 m 729 83 l 729 0 l 160 0 l 160 944 l 268 944 l 268 83 l 729 83 m 579 432 q 527 453 549 432 q 506 506 506 475 q 527 558 506 536 q 579 581 549 581 q 632 558 610 581 q 654 506 654 536 q 632 453 654 475 q 579 432 610 432 z "},"Ł":{"ha":776,"x_min":10,"x_max":729,"o":"m 729 83 l 729 0 l 160 0 l 160 315 l 53 247 l 10 314 l 160 410 l 160 944 l 268 944 l 268 479 l 496 624 l 539 557 l 268 385 l 268 83 l 729 83 z "},"M":{"ha":1207,"x_min":160,"x_max":1049,"o":"m 1049 944 l 1049 0 l 942 0 l 942 343 l 946 765 l 639 317 l 569 317 l 263 767 l 267 343 l 267 0 l 160 0 l 160 944 l 254 944 l 604 433 l 954 944 l 1049 944 z "},"N":{"ha":1064,"x_min":160,"x_max":906,"o":"m 906 944 l 906 0 l 813 -1 l 263 765 l 268 432 l 268 0 l 160 0 l 160 944 l 251 944 l 801 176 l 797 554 l 797 944 l 906 944 z "},"Ń":{"ha":1064,"x_min":160,"x_max":906,"o":"m 160 0 m 906 944 l 906 0 l 813 -1 l 263 765 l 268 432 l 268 0 l 160 0 l 160 944 l 251 944 l 801 176 l 797 554 l 797 944 l 906 944 m 653 1232 l 761 1232 l 575 1028 l 485 1028 l 653 1232 z "},"Ň":{"ha":1064,"x_min":160,"x_max":906,"o":"m 160 0 m 906 944 l 906 0 l 813 -1 l 263 765 l 268 432 l 268 0 l 160 0 l 160 944 l 251 944 l 801 176 l 797 554 l 797 944 l 906 944 m 757 1232 l 586 1028 l 478 1028 l 307 1232 l 403 1232 l 532 1081 l 661 1232 l 757 1232 z "},"Ņ":{"ha":1064,"x_min":160,"x_max":906,"o":"m 160 0 m 906 944 l 906 0 l 813 -1 l 263 765 l 268 432 l 268 0 l 160 0 l 160 944 l 251 944 l 801 176 l 797 554 l 797 944 l 906 944 m 447 -283 q 523 -244 501 -264 q 544 -197 544 -225 q 528 -165 544 -178 q 475 -146 513 -151 l 500 -85 q 599 -122 568 -93 q 629 -193 629 -151 q 592 -277 629 -240 q 476 -335 556 -314 l 447 -283 z "},"Ñ":{"ha":1064,"x_min":160,"x_max":906,"o":"m 160 0 m 906 944 l 906 0 l 813 -1 l 263 765 l 268 432 l 268 0 l 160 0 l 160 944 l 251 944 l 801 176 l 797 554 l 797 944 l 906 944 m 306 1044 q 347 1184 313 1135 q 439 1233 382 1233 q 497 1217 474 1233 q 549 1168 519 1201 q 585 1131 569 1143 q 622 1118 601 1118 q 667 1145 651 1118 q 690 1236 682 1172 l 758 1231 q 717 1092 751 1142 q 625 1042 682 1042 q 563 1059 588 1042 q 510 1110 539 1076 q 475 1145 490 1133 q 442 1157 460 1157 q 397 1131 413 1157 q 374 1039 382 1104 l 306 1044 z "},"O":{"ha":1068,"x_min":79,"x_max":988,"o":"m 533 -22 q 285 44 388 -22 q 131 222 183 110 q 79 469 79 333 q 131 718 79 606 q 285 897 183 831 q 533 963 388 963 q 781 897 678 963 q 935 719 883 831 q 988 472 988 607 q 935 222 988 335 q 781 44 883 110 q 533 -22 678 -22 m 533 63 q 720 115 642 63 q 839 261 799 168 q 879 471 879 354 q 839 680 879 588 q 720 825 799 772 q 533 878 642 878 q 347 825 425 878 q 228 680 268 772 q 188 471 188 588 q 228 261 188 354 q 347 115 268 168 q 533 63 425 63 z "},"Ó":{"ha":1068,"x_min":79,"x_max":988,"o":"m 79 0 m 533 -22 q 285 44 388 -22 q 131 222 183 110 q 79 469 79 333 q 131 718 79 606 q 285 897 183 831 q 533 963 388 963 q 781 897 678 963 q 935 719 883 831 q 988 472 988 607 q 935 222 988 335 q 781 44 883 110 q 533 -22 678 -22 m 533 63 q 720 115 642 63 q 839 261 799 168 q 879 471 879 354 q 839 680 879 588 q 720 825 799 772 q 533 878 642 878 q 347 825 425 878 q 228 680 268 772 q 188 471 188 588 q 228 261 188 354 q 347 115 268 168 q 533 63 425 63 m 654 1232 l 763 1232 l 576 1028 l 486 1028 l 654 1232 z "},"Ô":{"ha":1068,"x_min":79,"x_max":988,"o":"m 79 0 m 533 -22 q 285 44 388 -22 q 131 222 183 110 q 79 469 79 333 q 131 718 79 606 q 285 897 183 831 q 533 963 388 963 q 781 897 678 963 q 935 719 883 831 q 988 472 988 607 q 935 222 988 335 q 781 44 883 110 q 533 -22 678 -22 m 533 63 q 720 115 642 63 q 839 261 799 168 q 879 471 879 354 q 839 680 879 588 q 720 825 799 772 q 533 878 642 878 q 347 825 425 878 q 228 680 268 772 q 188 471 188 588 q 228 261 188 354 q 347 115 268 168 q 533 63 425 63 m 663 1028 l 533 1179 l 404 1028 l 308 1028 l 479 1232 l 588 1232 l 758 1028 l 663 1028 z "},"Ö":{"ha":1068,"x_min":79,"x_max":988,"o":"m 79 0 m 533 -22 q 285 44 388 -22 q 131 222 183 110 q 79 469 79 333 q 131 718 79 606 q 285 897 183 831 q 533 963 388 963 q 781 897 678 963 q 935 719 883 831 q 988 472 988 607 q 935 222 988 335 q 781 44 883 110 q 533 -22 678 -22 m 533 63 q 720 115 642 63 q 839 261 799 168 q 879 471 879 354 q 839 680 879 588 q 720 825 799 772 q 533 878 642 878 q 347 825 425 878 q 228 680 268 772 q 188 471 188 588 q 228 261 188 354 q 347 115 268 168 q 533 63 425 63 m 399 1074 q 353 1092 372 1074 q 333 1138 333 1111 q 353 1183 333 1164 q 399 1203 372 1203 q 445 1184 426 1203 q 464 1138 464 1165 q 444 1092 464 1111 q 399 1074 425 1074 m 668 1074 q 622 1092 642 1074 q 603 1138 603 1111 q 622 1183 603 1164 q 668 1203 642 1203 q 715 1184 696 1203 q 733 1138 733 1165 q 714 1092 733 1111 q 668 1074 694 1074 z "},"Ò":{"ha":1068,"x_min":79,"x_max":988,"o":"m 79 0 m 533 -22 q 285 44 388 -22 q 131 222 183 110 q 79 469 79 333 q 131 718 79 606 q 285 897 183 831 q 533 963 388 963 q 781 897 678 963 q 935 719 883 831 q 988 472 988 607 q 935 222 988 335 q 781 44 883 110 q 533 -22 678 -22 m 533 63 q 720 115 642 63 q 839 261 799 168 q 879 471 879 354 q 839 680 879 588 q 720 825 799 772 q 533 878 642 878 q 347 825 425 878 q 228 680 268 772 q 188 471 188 588 q 228 261 188 354 q 347 115 268 168 q 533 63 425 63 m 306 1232 l 414 1232 l 582 1028 l 493 1028 l 306 1232 z "},"Ő":{"ha":1068,"x_min":79,"x_max":988,"o":"m 79 0 m 533 -22 q 285 44 388 -22 q 131 222 183 110 q 79 469 79 333 q 131 718 79 606 q 285 897 183 831 q 533 963 388 963 q 781 897 678 963 q 935 719 883 831 q 988 472 988 607 q 935 222 988 335 q 781 44 883 110 q 533 -22 678 -22 m 533 63 q 720 115 642 63 q 839 261 799 168 q 879 471 879 354 q 839 680 879 588 q 720 825 799 772 q 533 878 642 878 q 347 825 425 878 q 228 680 268 772 q 188 471 188 588 q 228 261 188 354 q 347 115 268 168 q 533 63 425 63 m 529 1232 l 633 1232 l 446 1028 l 361 1028 l 529 1232 m 775 1232 l 879 1232 l 692 1028 l 607 1028 l 775 1232 z "},"Ō":{"ha":1068,"x_min":79,"x_max":988,"o":"m 79 0 m 533 -22 q 285 44 388 -22 q 131 222 183 110 q 79 469 79 333 q 131 718 79 606 q 285 897 183 831 q 533 963 388 963 q 781 897 678 963 q 935 719 883 831 q 988 472 988 607 q 935 222 988 335 q 781 44 883 110 q 533 -22 678 -22 m 533 63 q 720 115 642 63 q 839 261 799 168 q 879 471 879 354 q 839 680 879 588 q 720 825 799 772 q 533 878 642 878 q 347 825 425 878 q 228 680 268 772 q 188 471 188 588 q 228 261 188 354 q 347 115 268 168 q 533 63 425 63 m 324 1179 l 742 1179 l 742 1101 l 324 1101 l 324 1179 z "},"Ø":{"ha":1124,"x_min":79,"x_max":988,"o":"m 881 807 q 960 655 933 742 q 988 472 988 568 q 935 222 988 335 q 781 44 883 110 q 533 -22 678 -22 q 243 75 358 -22 l 142 -42 l 82 10 l 188 131 q 107 283 135 196 q 79 469 79 371 q 131 718 79 606 q 285 897 183 831 q 533 963 388 963 q 826 863 711 963 l 926 976 l 985 925 l 881 807 m 188 471 q 256 208 188 317 l 764 790 q 533 878 672 878 q 347 825 425 878 q 228 680 268 772 q 188 471 188 588 m 533 63 q 720 115 642 63 q 839 261 799 168 q 879 471 879 354 q 813 728 879 624 l 307 147 q 533 63 394 63 z "},"Õ":{"ha":1068,"x_min":79,"x_max":988,"o":"m 79 0 m 533 -22 q 285 44 388 -22 q 131 222 183 110 q 79 469 79 333 q 131 718 79 606 q 285 897 183 831 q 533 963 388 963 q 781 897 678 963 q 935 719 883 831 q 988 472 988 607 q 935 222 988 335 q 781 44 883 110 q 533 -22 678 -22 m 533 63 q 720 115 642 63 q 839 261 799 168 q 879 471 879 354 q 839 680 879 588 q 720 825 799 772 q 533 878 642 878 q 347 825 425 878 q 228 680 268 772 q 188 471 188 588 q 228 261 188 354 q 347 115 268 168 q 533 63 425 63 m 307 1044 q 349 1184 314 1135 q 440 1233 383 1233 q 498 1217 475 1233 q 550 1168 521 1201 q 587 1131 571 1143 q 624 1118 603 1118 q 668 1145 653 1118 q 692 1236 683 1172 l 760 1231 q 718 1092 753 1142 q 626 1042 683 1042 q 565 1059 589 1042 q 511 1110 540 1076 q 476 1145 492 1133 q 443 1157 461 1157 q 399 1131 414 1157 q 375 1039 383 1104 l 307 1044 z "},"Œ":{"ha":1394,"x_min":79,"x_max":1314,"o":"m 1314 83 l 1314 0 l 531 0 q 285 61 386 0 q 131 229 183 122 q 79 471 79 336 q 131 716 79 608 q 284 884 182 824 q 531 944 386 944 l 1286 944 l 1286 861 l 853 861 l 853 542 l 1231 542 l 1231 458 l 853 458 l 853 83 l 1314 83 m 744 83 l 744 861 l 531 861 q 277 756 367 861 q 188 472 188 651 q 277 190 188 296 q 531 83 367 83 l 744 83 z "},"P":{"ha":840,"x_min":160,"x_max":799,"o":"m 469 944 q 715 871 631 944 q 799 674 799 797 q 715 473 799 546 q 469 400 632 400 l 268 400 l 268 0 l 160 0 l 160 944 l 469 944 m 469 483 q 634 531 578 483 q 690 672 690 578 q 633 810 690 760 q 469 861 576 861 l 268 861 l 268 483 l 469 483 z "},"Þ":{"ha":906,"x_min":160,"x_max":799,"o":"m 469 758 q 715 685 631 758 q 799 488 799 611 q 715 287 799 360 q 469 214 632 214 l 268 214 l 268 0 l 160 0 l 160 944 l 268 944 l 268 758 l 469 758 m 469 297 q 634 344 578 297 q 690 486 690 392 q 633 624 690 574 q 469 675 576 675 l 268 675 l 268 297 l 469 297 z "},"Q":{"ha":1068,"x_min":79,"x_max":1179,"o":"m 1179 -272 q 1022 -332 1101 -332 q 771 -192 890 -332 l 622 -15 q 533 -22 576 -22 q 285 44 388 -22 q 131 222 183 110 q 79 469 79 333 q 131 718 79 606 q 285 897 183 831 q 533 963 388 963 q 781 897 678 963 q 935 719 883 831 q 988 472 988 607 q 921 193 988 315 q 728 15 854 71 l 843 -121 q 1029 -240 946 -240 q 1157 -194 1094 -240 l 1179 -272 m 188 471 q 228 261 188 354 q 347 115 268 168 q 533 63 425 63 q 720 115 642 63 q 839 261 799 168 q 879 471 879 354 q 839 680 879 588 q 720 825 799 772 q 533 878 642 878 q 347 825 425 878 q 228 680 268 772 q 188 471 188 588 z "},"R":{"ha":932,"x_min":160,"x_max":874,"o":"m 444 428 l 268 428 l 268 0 l 160 0 l 160 944 l 467 944 q 703 875 621 944 q 785 689 785 806 q 727 523 785 588 q 558 440 669 458 l 874 0 l 749 0 l 444 428 m 268 511 l 467 511 q 676 686 676 511 q 622 815 676 768 q 467 861 568 861 l 268 861 l 268 511 z "},"Ŕ":{"ha":932,"x_min":160,"x_max":874,"o":"m 160 0 m 444 428 l 268 428 l 268 0 l 160 0 l 160 944 l 467 944 q 703 875 621 944 q 785 689 785 806 q 727 523 785 588 q 558 440 669 458 l 874 0 l 749 0 l 444 428 m 268 511 l 467 511 q 676 686 676 511 q 622 815 676 768 q 467 861 568 861 l 268 861 l 268 511 m 547 1232 l 656 1232 l 469 1028 l 379 1028 l 547 1232 z "},"Ř":{"ha":932,"x_min":160,"x_max":874,"o":"m 160 0 m 444 428 l 268 428 l 268 0 l 160 0 l 160 944 l 467 944 q 703 875 621 944 q 785 689 785 806 q 727 523 785 588 q 558 440 669 458 l 874 0 l 749 0 l 444 428 m 268 511 l 467 511 q 676 686 676 511 q 622 815 676 768 q 467 861 568 861 l 268 861 l 268 511 m 651 1232 l 481 1028 l 372 1028 l 201 1232 l 297 1232 l 426 1081 l 556 1232 l 651 1232 z "},"Ŗ":{"ha":932,"x_min":160,"x_max":874,"o":"m 160 0 m 444 428 l 268 428 l 268 0 l 160 0 l 160 944 l 467 944 q 703 875 621 944 q 785 689 785 806 q 727 523 785 588 q 558 440 669 458 l 874 0 l 749 0 l 444 428 m 268 511 l 467 511 q 676 686 676 511 q 622 815 676 768 q 467 861 568 861 l 268 861 l 268 511 m 383 -283 q 459 -244 438 -264 q 481 -197 481 -225 q 465 -165 481 -178 q 411 -146 449 -151 l 436 -85 q 535 -122 504 -93 q 565 -193 565 -151 q 528 -277 565 -240 q 413 -335 492 -314 l 383 -283 z "},"S":{"ha":815,"x_min":78,"x_max":736,"o":"m 403 -22 q 219 1 294 -22 q 78 71 144 24 l 122 151 q 403 63 232 63 q 565 112 501 63 q 629 247 629 161 q 599 333 629 299 q 523 389 568 368 q 400 438 478 410 q 251 498 308 469 q 155 577 194 526 q 115 707 115 628 q 201 897 115 831 q 419 963 286 963 q 578 940 507 963 q 711 871 649 917 l 668 792 q 421 878 558 878 q 278 835 335 878 q 222 711 222 793 q 252 627 222 661 q 326 572 282 593 q 449 524 371 551 q 599 462 542 490 q 696 382 656 433 q 736 250 736 331 q 694 106 736 168 q 576 11 651 44 q 403 -22 500 -22 z "},"Ś":{"ha":815,"x_min":78,"x_max":736,"o":"m 78 0 m 403 -22 q 219 1 294 -22 q 78 71 144 24 l 122 151 q 403 63 232 63 q 565 112 501 63 q 629 247 629 161 q 599 333 629 299 q 523 389 568 368 q 400 438 478 410 q 251 498 308 469 q 155 577 194 526 q 115 707 115 628 q 201 897 115 831 q 419 963 286 963 q 578 940 507 963 q 711 871 649 917 l 668 792 q 421 878 558 878 q 278 835 335 878 q 222 711 222 793 q 252 627 222 661 q 326 572 282 593 q 449 524 371 551 q 599 462 542 490 q 696 382 656 433 q 736 250 736 331 q 694 106 736 168 q 576 11 651 44 q 403 -22 500 -22 m 532 1232 l 640 1232 l 454 1028 l 364 1028 l 532 1232 z "},"Š":{"ha":815,"x_min":78,"x_max":736,"o":"m 78 0 m 403 -22 q 219 1 294 -22 q 78 71 144 24 l 122 151 q 403 63 232 63 q 565 112 501 63 q 629 247 629 161 q 599 333 629 299 q 523 389 568 368 q 400 438 478 410 q 251 498 308 469 q 155 577 194 526 q 115 707 115 628 q 201 897 115 831 q 419 963 286 963 q 578 940 507 963 q 711 871 649 917 l 668 792 q 421 878 558 878 q 278 835 335 878 q 222 711 222 793 q 252 627 222 661 q 326 572 282 593 q 449 524 371 551 q 599 462 542 490 q 696 382 656 433 q 736 250 736 331 q 694 106 736 168 q 576 11 651 44 q 403 -22 500 -22 m 636 1232 l 465 1028 l 357 1028 l 186 1232 l 282 1232 l 411 1081 l 540 1232 l 636 1232 z "},"Ş":{"ha":815,"x_min":78,"x_max":736,"o":"m 736 250 q 658 64 736 136 q 451 -19 579 -8 l 411 -97 q 442 -93 425 -93 q 513 -117 485 -93 q 542 -178 542 -140 q 367 -331 542 -282 l 338 -279 q 432 -233 407 -254 q 457 -186 457 -211 q 415 -151 457 -151 q 363 -165 393 -151 l 319 -124 l 375 -22 q 210 3 279 -19 q 78 71 140 26 l 122 151 q 403 63 232 63 q 565 112 501 63 q 629 247 629 161 q 599 333 629 299 q 523 389 568 368 q 400 438 478 410 q 251 498 308 469 q 155 577 194 526 q 115 707 115 628 q 201 897 115 831 q 419 963 286 963 q 578 940 507 963 q 711 871 649 917 l 668 792 q 421 878 558 878 q 278 835 335 878 q 222 711 222 793 q 252 627 222 661 q 326 572 282 593 q 449 524 371 551 q 599 462 542 490 q 696 382 656 433 q 736 250 736 331 z "},"Ș":{"ha":815,"x_min":78,"x_max":736,"o":"m 78 0 m 403 -22 q 219 1 294 -22 q 78 71 144 24 l 122 151 q 403 63 232 63 q 565 112 501 63 q 629 247 629 161 q 599 333 629 299 q 523 389 568 368 q 400 438 478 410 q 251 498 308 469 q 155 577 194 526 q 115 707 115 628 q 201 897 115 831 q 419 963 286 963 q 578 940 507 963 q 711 871 649 917 l 668 792 q 421 878 558 878 q 278 835 335 878 q 222 711 222 793 q 252 627 222 661 q 326 572 282 593 q 449 524 371 551 q 599 462 542 490 q 696 382 656 433 q 736 250 736 331 q 694 106 736 168 q 576 11 651 44 q 403 -22 500 -22 m 338 -283 q 413 -244 392 -264 q 435 -197 435 -225 q 419 -165 435 -178 q 365 -146 403 -151 l 390 -85 q 489 -122 458 -93 q 519 -193 519 -151 q 483 -277 519 -240 q 367 -335 446 -314 l 338 -283 z "},"T":{"ha":865,"x_min":50,"x_max":814,"o":"m 814 861 l 488 861 l 488 0 l 379 0 l 379 861 l 50 861 l 50 944 l 814 944 l 814 861 z "},"Ť":{"ha":865,"x_min":50,"x_max":814,"o":"m 50 0 m 814 861 l 488 861 l 488 0 l 379 0 l 379 861 l 50 861 l 50 944 l 814 944 l 814 861 m 657 1232 l 486 1028 l 378 1028 l 207 1232 l 303 1232 l 432 1081 l 561 1232 l 657 1232 z "},"Ț":{"ha":865,"x_min":50,"x_max":814,"o":"m 50 0 m 814 861 l 488 861 l 488 0 l 379 0 l 379 861 l 50 861 l 50 944 l 814 944 l 814 861 m 347 -283 q 423 -244 401 -264 q 444 -197 444 -225 q 428 -165 444 -178 q 375 -146 413 -151 l 400 -85 q 499 -122 468 -93 q 529 -193 529 -151 q 492 -277 529 -240 q 376 -335 456 -314 l 347 -283 z "},"U":{"ha":1036,"x_min":146,"x_max":892,"o":"m 519 -22 q 315 25 399 -22 q 188 156 231 72 q 146 349 146 239 l 146 944 l 254 944 l 254 350 q 323 138 254 214 q 519 63 392 63 q 715 138 646 63 q 783 350 783 214 l 783 944 l 892 944 l 892 351 q 849 156 892 240 q 723 25 807 72 q 519 -22 639 -22 z "},"Ú":{"ha":1036,"x_min":146,"x_max":892,"o":"m 146 0 m 519 -22 q 315 25 399 -22 q 188 156 231 72 q 146 349 146 239 l 146 944 l 254 944 l 254 350 q 323 138 254 214 q 519 63 392 63 q 715 138 646 63 q 783 350 783 214 l 783 944 l 892 944 l 892 351 q 849 156 892 240 q 723 25 807 72 q 519 -22 639 -22 m 640 1232 l 749 1232 l 563 1028 l 472 1028 l 640 1232 z "},"Û":{"ha":1036,"x_min":146,"x_max":892,"o":"m 146 0 m 519 -22 q 315 25 399 -22 q 188 156 231 72 q 146 349 146 239 l 146 944 l 254 944 l 254 350 q 323 138 254 214 q 519 63 392 63 q 715 138 646 63 q 783 350 783 214 l 783 944 l 892 944 l 892 351 q 849 156 892 240 q 723 25 807 72 q 519 -22 639 -22 m 649 1028 l 519 1179 l 390 1028 l 294 1028 l 465 1232 l 574 1232 l 744 1028 l 649 1028 z "},"Ü":{"ha":1036,"x_min":146,"x_max":892,"o":"m 146 0 m 519 -22 q 315 25 399 -22 q 188 156 231 72 q 146 349 146 239 l 146 944 l 254 944 l 254 350 q 323 138 254 214 q 519 63 392 63 q 715 138 646 63 q 783 350 783 214 l 783 944 l 892 944 l 892 351 q 849 156 892 240 q 723 25 807 72 q 519 -22 639 -22 m 385 1074 q 339 1092 358 1074 q 319 1138 319 1111 q 339 1183 319 1164 q 385 1203 358 1203 q 431 1184 413 1203 q 450 1138 450 1165 q 431 1092 450 1111 q 385 1074 411 1074 m 654 1074 q 608 1092 628 1074 q 589 1138 589 1111 q 608 1183 589 1164 q 654 1203 628 1203 q 701 1184 682 1203 q 719 1138 719 1165 q 700 1092 719 1111 q 654 1074 681 1074 z "},"Ù":{"ha":1036,"x_min":146,"x_max":892,"o":"m 146 0 m 519 -22 q 315 25 399 -22 q 188 156 231 72 q 146 349 146 239 l 146 944 l 254 944 l 254 350 q 323 138 254 214 q 519 63 392 63 q 715 138 646 63 q 783 350 783 214 l 783 944 l 892 944 l 892 351 q 849 156 892 240 q 723 25 807 72 q 519 -22 639 -22 m 292 1232 l 400 1232 l 568 1028 l 479 1028 l 292 1232 z "},"Ű":{"ha":1036,"x_min":146,"x_max":892,"o":"m 146 0 m 519 -22 q 315 25 399 -22 q 188 156 231 72 q 146 349 146 239 l 146 944 l 254 944 l 254 350 q 323 138 254 214 q 519 63 392 63 q 715 138 646 63 q 783 350 783 214 l 783 944 l 892 944 l 892 351 q 849 156 892 240 q 723 25 807 72 q 519 -22 639 -22 m 514 1232 l 618 1232 l 431 1028 l 346 1028 l 514 1232 m 760 1232 l 864 1232 l 676 1028 l 592 1028 l 760 1232 z "},"Ū":{"ha":1036,"x_min":146,"x_max":892,"o":"m 146 0 m 519 -22 q 315 25 399 -22 q 188 156 231 72 q 146 349 146 239 l 146 944 l 254 944 l 254 350 q 323 138 254 214 q 519 63 392 63 q 715 138 646 63 q 783 350 783 214 l 783 944 l 892 944 l 892 351 q 849 156 892 240 q 723 25 807 72 q 519 -22 639 -22 m 310 1179 l 728 1179 l 728 1101 l 310 1101 l 310 1179 z "},"Ų":{"ha":1036,"x_min":146,"x_max":892,"o":"m 892 944 l 892 351 q 839 138 892 228 q 685 7 786 47 q 581 -101 614 -53 q 547 -194 547 -150 q 564 -242 547 -226 q 611 -258 581 -258 q 699 -215 656 -258 l 739 -268 q 678 -318 715 -299 q 599 -337 640 -337 q 497 -303 535 -337 q 460 -207 460 -268 q 557 -21 460 -115 q 519 -22 544 -22 q 315 25 399 -22 q 188 156 231 72 q 146 349 146 239 l 146 944 l 254 944 l 254 350 q 323 138 254 214 q 519 63 392 63 q 715 138 646 63 q 783 350 783 214 l 783 944 l 892 944 z "},"Ů":{"ha":1036,"x_min":146,"x_max":892,"o":"m 146 0 m 519 -22 q 315 25 399 -22 q 188 156 231 72 q 146 349 146 239 l 146 944 l 254 944 l 254 350 q 323 138 254 214 q 519 63 392 63 q 715 138 646 63 q 783 350 783 214 l 783 944 l 892 944 l 892 351 q 849 156 892 240 q 723 25 807 72 q 519 -22 639 -22 m 519 1025 q 420 1058 456 1025 q 385 1139 385 1092 q 420 1220 385 1186 q 519 1254 456 1254 q 619 1220 583 1254 q 654 1139 654 1186 q 619 1058 654 1092 q 519 1025 583 1025 m 519 1085 q 565 1100 549 1085 q 582 1139 582 1115 q 565 1179 582 1164 q 519 1194 549 1194 q 475 1179 492 1194 q 458 1139 458 1164 q 475 1100 458 1115 q 519 1085 492 1085 z "},"V":{"ha":919,"x_min":43,"x_max":878,"o":"m 878 944 l 511 -11 l 411 -11 l 43 944 l 153 944 l 463 119 l 771 944 l 878 944 z "},"W":{"ha":1403,"x_min":43,"x_max":1361,"o":"m 1361 944 l 1057 -11 l 957 -11 l 694 786 l 432 -11 l 333 -11 l 43 944 l 153 944 l 385 125 l 650 944 l 740 944 l 1008 126 l 1251 944 l 1361 944 z "},"X":{"ha":968,"x_min":56,"x_max":913,"o":"m 782 0 l 485 417 l 186 0 l 56 0 l 414 489 l 81 944 l 210 944 l 485 560 l 758 944 l 888 944 l 554 489 l 913 0 l 782 0 z "},"Y":{"ha":888,"x_min":42,"x_max":847,"o":"m 499 386 l 499 0 l 390 0 l 390 382 l 42 944 l 163 944 l 444 472 l 729 944 l 847 944 l 499 386 z "},"Ý":{"ha":888,"x_min":42,"x_max":847,"o":"m 42 0 m 499 386 l 499 0 l 390 0 l 390 382 l 42 944 l 163 944 l 444 472 l 729 944 l 847 944 l 499 386 m 565 1232 l 674 1232 l 488 1028 l 397 1028 l 565 1232 z "},"Ÿ":{"ha":888,"x_min":42,"x_max":847,"o":"m 42 0 m 499 386 l 499 0 l 390 0 l 390 382 l 42 944 l 163 944 l 444 472 l 729 944 l 847 944 l 499 386 m 310 1074 q 264 1092 283 1074 q 244 1138 244 1111 q 264 1183 244 1164 q 310 1203 283 1203 q 356 1184 338 1203 q 375 1138 375 1165 q 356 1092 375 1111 q 310 1074 336 1074 m 579 1074 q 533 1092 553 1074 q 514 1138 514 1111 q 533 1183 514 1164 q 579 1203 553 1203 q 626 1184 607 1203 q 644 1138 644 1165 q 625 1092 644 1111 q 579 1074 606 1074 z "},"Z":{"ha":917,"x_min":104,"x_max":840,"o":"m 840 83 l 840 0 l 104 0 l 104 60 l 694 861 l 122 861 l 122 944 l 821 944 l 821 874 l 239 83 l 840 83 z "},"Ź":{"ha":917,"x_min":104,"x_max":840,"o":"m 104 0 m 840 83 l 840 0 l 104 0 l 104 60 l 694 861 l 122 861 l 122 944 l 821 944 l 821 874 l 239 83 l 840 83 m 593 1232 l 701 1232 l 515 1028 l 425 1028 l 593 1232 z "},"Ž":{"ha":917,"x_min":104,"x_max":840,"o":"m 104 0 m 840 83 l 840 0 l 104 0 l 104 60 l 694 861 l 122 861 l 122 944 l 821 944 l 821 874 l 239 83 l 840 83 m 697 1232 l 526 1028 l 418 1028 l 247 1232 l 343 1232 l 472 1081 l 601 1232 l 697 1232 z "},"Ż":{"ha":917,"x_min":104,"x_max":840,"o":"m 104 0 m 840 83 l 840 0 l 104 0 l 104 60 l 694 861 l 122 861 l 122 944 l 821 944 l 821 874 l 239 83 l 840 83 m 472 1072 q 426 1092 446 1072 q 407 1136 407 1111 q 426 1183 407 1163 q 472 1203 446 1203 q 518 1183 499 1203 q 538 1136 538 1164 q 518 1092 538 1111 q 472 1072 499 1072 z "},"a":{"ha":757,"x_min":69,"x_max":728,"o":"m 728 0 q 635 -19 679 -18 q 510 85 518 -19 q 265 -21 374 -21 q 124 28 179 -21 q 69 154 69 78 q 108 268 69 222 q 214 344 146 314 q 396 407 282 375 l 508 439 l 508 501 q 381 675 508 675 q 252 646 310 675 q 122 535 194 617 l 71 597 q 394 760 215 760 q 563 699 513 760 q 614 497 614 639 l 614 119 q 624 76 614 89 q 658 63 635 63 q 718 78 683 63 l 728 0 m 174 160 q 203 85 174 108 q 281 63 232 63 q 384 88 332 63 q 508 167 436 114 l 508 365 l 421 339 q 228 260 283 299 q 174 160 174 221 z "},"á":{"ha":757,"x_min":69,"x_max":728,"o":"m 69 0 m 728 0 q 635 -19 679 -18 q 510 85 518 -19 q 265 -21 374 -21 q 124 28 179 -21 q 69 154 69 78 q 108 268 69 222 q 214 344 146 314 q 396 407 282 375 l 508 439 l 508 501 q 381 675 508 675 q 252 646 310 675 q 122 535 194 617 l 71 597 q 394 760 215 760 q 563 699 513 760 q 614 497 614 639 l 614 119 q 624 76 614 89 q 658 63 635 63 q 718 78 683 63 l 728 0 m 174 160 q 203 85 174 108 q 281 63 232 63 q 384 88 332 63 q 508 167 436 114 l 508 365 l 421 339 q 228 260 283 299 q 174 160 174 221 m 457 1124 l 568 1124 l 406 829 l 322 829 l 457 1124 z "},"ă":{"ha":757,"x_min":69,"x_max":728,"o":"m 69 0 m 728 0 q 635 -19 679 -18 q 510 85 518 -19 q 265 -21 374 -21 q 124 28 179 -21 q 69 154 69 78 q 108 268 69 222 q 214 344 146 314 q 396 407 282 375 l 508 439 l 508 501 q 381 675 508 675 q 252 646 310 675 q 122 535 194 617 l 71 597 q 394 760 215 760 q 563 699 513 760 q 614 497 614 639 l 614 119 q 624 76 614 89 q 658 63 635 63 q 718 78 683 63 l 728 0 m 174 160 q 203 85 174 108 q 281 63 232 63 q 384 88 332 63 q 508 167 436 114 l 508 365 l 421 339 q 228 260 283 299 q 174 160 174 221 m 371 861 q 229 922 281 861 q 175 1090 178 982 l 246 1093 q 283 970 250 1011 q 371 929 315 929 q 458 970 425 929 q 494 1093 490 1011 l 565 1090 q 513 922 564 982 q 371 861 461 861 z "},"â":{"ha":757,"x_min":69,"x_max":728,"o":"m 69 0 m 728 0 q 635 -19 679 -18 q 510 85 518 -19 q 265 -21 374 -21 q 124 28 179 -21 q 69 154 69 78 q 108 268 69 222 q 214 344 146 314 q 396 407 282 375 l 508 439 l 508 501 q 381 675 508 675 q 252 646 310 675 q 122 535 194 617 l 71 597 q 394 760 215 760 q 563 699 513 760 q 614 497 614 639 l 614 119 q 624 76 614 89 q 658 63 635 63 q 718 78 683 63 l 728 0 m 174 160 q 203 85 174 108 q 281 63 232 63 q 384 88 332 63 q 508 167 436 114 l 508 365 l 421 339 q 228 260 283 299 q 174 160 174 221 m 488 829 l 371 1043 l 256 829 l 172 829 l 321 1121 l 422 1121 l 569 829 l 488 829 z "},"ä":{"ha":757,"x_min":69,"x_max":728,"o":"m 69 0 m 728 0 q 635 -19 679 -18 q 510 85 518 -19 q 265 -21 374 -21 q 124 28 179 -21 q 69 154 69 78 q 108 268 69 222 q 214 344 146 314 q 396 407 282 375 l 508 439 l 508 501 q 381 675 508 675 q 252 646 310 675 q 122 535 194 617 l 71 597 q 394 760 215 760 q 563 699 513 760 q 614 497 614 639 l 614 119 q 624 76 614 89 q 658 63 635 63 q 718 78 683 63 l 728 0 m 174 160 q 203 85 174 108 q 281 63 232 63 q 384 88 332 63 q 508 167 436 114 l 508 365 l 421 339 q 228 260 283 299 q 174 160 174 221 m 236 983 q 190 1003 210 983 q 169 1049 169 1022 q 189 1097 169 1076 q 236 1117 208 1117 q 284 1097 264 1117 q 304 1049 304 1076 q 284 1003 304 1022 q 236 983 264 983 m 506 983 q 459 1003 479 983 q 439 1049 439 1022 q 458 1097 439 1076 q 506 1117 478 1117 q 553 1097 533 1117 q 574 1049 574 1076 q 553 1003 574 1022 q 506 983 533 983 z "},"à":{"ha":757,"x_min":69,"x_max":728,"o":"m 69 0 m 728 0 q 635 -19 679 -18 q 510 85 518 -19 q 265 -21 374 -21 q 124 28 179 -21 q 69 154 69 78 q 108 268 69 222 q 214 344 146 314 q 396 407 282 375 l 508 439 l 508 501 q 381 675 508 675 q 252 646 310 675 q 122 535 194 617 l 71 597 q 394 760 215 760 q 563 699 513 760 q 614 497 614 639 l 614 119 q 624 76 614 89 q 658 63 635 63 q 718 78 683 63 l 728 0 m 174 160 q 203 85 174 108 q 281 63 232 63 q 384 88 332 63 q 508 167 436 114 l 508 365 l 421 339 q 228 260 283 299 q 174 160 174 221 m 171 1121 l 282 1121 l 417 829 l 333 829 l 171 1121 z "},"ā":{"ha":757,"x_min":69,"x_max":728,"o":"m 69 0 m 728 0 q 635 -19 679 -18 q 510 85 518 -19 q 265 -21 374 -21 q 124 28 179 -21 q 69 154 69 78 q 108 268 69 222 q 214 344 146 314 q 396 407 282 375 l 508 439 l 508 501 q 381 675 508 675 q 252 646 310 675 q 122 535 194 617 l 71 597 q 394 760 215 760 q 563 699 513 760 q 614 497 614 639 l 614 119 q 624 76 614 89 q 658 63 635 63 q 718 78 683 63 l 728 0 m 174 160 q 203 85 174 108 q 281 63 232 63 q 384 88 332 63 q 508 167 436 114 l 508 365 l 421 339 q 228 260 283 299 q 174 160 174 221 m 161 1096 l 579 1096 l 579 1018 l 161 1018 l 161 1096 z "},"ą":{"ha":757,"x_min":69,"x_max":728,"o":"m 575 -258 q 663 -215 619 -258 l 703 -268 q 642 -318 679 -299 q 563 -337 604 -337 q 461 -303 499 -337 q 424 -207 424 -268 q 549 4 424 -101 q 510 85 514 31 q 265 -21 374 -21 q 124 28 179 -21 q 69 154 69 78 q 108 268 69 222 q 214 344 146 314 q 396 407 282 375 l 508 439 l 508 501 q 381 675 508 675 q 252 646 310 675 q 122 535 194 617 l 71 597 q 394 760 215 760 q 563 699 513 760 q 614 497 614 639 l 614 119 q 624 76 614 89 q 658 63 635 63 q 718 78 683 63 l 728 0 q 635 -19 679 -18 l 619 -19 q 538 -112 564 -69 q 511 -194 511 -154 q 528 -242 511 -226 q 575 -258 544 -258 m 174 160 q 203 85 174 108 q 281 63 232 63 q 384 88 332 63 q 508 167 436 114 l 508 365 l 421 339 q 228 260 283 299 q 174 160 174 221 z "},"å":{"ha":757,"x_min":69,"x_max":728,"o":"m 69 0 m 728 0 q 635 -19 679 -18 q 510 85 518 -19 q 265 -21 374 -21 q 124 28 179 -21 q 69 154 69 78 q 108 268 69 222 q 214 344 146 314 q 396 407 282 375 l 508 439 l 508 501 q 381 675 508 675 q 252 646 310 675 q 122 535 194 617 l 71 597 q 394 760 215 760 q 563 699 513 760 q 614 497 614 639 l 614 119 q 624 76 614 89 q 658 63 635 63 q 718 78 683 63 l 728 0 m 174 160 q 203 85 174 108 q 281 63 232 63 q 384 88 332 63 q 508 167 436 114 l 508 365 l 421 339 q 228 260 283 299 q 174 160 174 221 m 371 829 q 256 874 297 829 q 214 979 214 918 q 256 1083 214 1039 q 371 1128 297 1128 q 487 1084 444 1128 q 529 979 529 1040 q 487 874 529 918 q 371 829 444 829 m 371 886 q 433 913 410 886 q 457 979 457 939 q 434 1045 457 1019 q 371 1071 411 1071 q 308 1045 331 1071 q 285 979 285 1019 q 308 913 285 939 q 371 886 332 886 z "},"ã":{"ha":757,"x_min":69,"x_max":728,"o":"m 69 0 m 728 0 q 635 -19 679 -18 q 510 85 518 -19 q 265 -21 374 -21 q 124 28 179 -21 q 69 154 69 78 q 108 268 69 222 q 214 344 146 314 q 396 407 282 375 l 508 439 l 508 501 q 381 675 508 675 q 252 646 310 675 q 122 535 194 617 l 71 597 q 394 760 215 760 q 563 699 513 760 q 614 497 614 639 l 614 119 q 624 76 614 89 q 658 63 635 63 q 718 78 683 63 l 728 0 m 174 160 q 203 85 174 108 q 281 63 232 63 q 384 88 332 63 q 508 167 436 114 l 508 365 l 421 339 q 228 260 283 299 q 174 160 174 221 m 144 889 q 186 1028 151 979 q 278 1078 221 1078 q 335 1062 313 1078 q 388 1013 358 1046 q 424 975 408 988 q 461 963 440 963 q 506 990 490 963 q 529 1081 521 1017 l 597 1075 q 556 936 590 986 q 464 886 521 886 q 402 903 426 886 q 349 954 378 921 q 314 990 329 978 q 281 1001 299 1001 q 236 975 251 1001 q 213 883 221 949 l 144 889 z "},"æ":{"ha":1201,"x_min":69,"x_max":1131,"o":"m 1131 113 q 857 -26 1014 -26 q 684 16 757 -26 q 568 132 611 58 q 265 -21 396 -21 q 124 28 179 -21 q 69 154 69 78 q 108 268 69 222 q 214 344 146 314 q 396 407 282 375 l 508 438 l 508 501 q 381 675 508 675 q 252 646 310 675 q 122 535 194 617 l 71 597 q 394 760 215 760 q 524 731 476 760 q 592 636 571 701 q 703 727 636 694 q 857 760 769 760 q 995 728 933 760 q 1093 637 1057 697 q 1129 494 1129 576 q 1121 418 1129 460 l 618 418 q 615 368 615 385 q 678 142 615 228 q 857 57 740 57 q 983 89 928 57 q 1088 178 1038 121 l 1131 113 m 854 681 q 712 631 768 681 q 632 497 656 582 l 1025 497 l 1025 507 q 974 635 1025 590 q 854 681 924 681 m 281 63 q 397 94 338 63 q 539 193 456 126 q 511 365 511 274 l 421 339 q 228 260 283 299 q 174 160 174 221 q 203 85 174 108 q 281 63 232 63 z "},"b":{"ha":817,"x_min":133,"x_max":750,"o":"m 451 761 q 608 717 540 761 q 713 588 675 672 q 750 386 750 503 q 704 160 750 253 q 578 22 658 68 q 394 -24 497 -24 q 211 29 296 -24 l 193 -1 l 133 -1 l 133 1111 l 238 1111 l 238 682 q 451 761 333 761 m 389 58 q 581 147 518 58 q 643 386 643 236 q 586 607 643 538 q 447 676 529 676 q 340 658 386 676 q 238 597 293 640 l 238 97 q 389 58 303 58 z "},"c":{"ha":718,"x_min":67,"x_max":681,"o":"m 414 -26 q 222 26 300 -26 q 106 168 144 79 q 67 365 67 257 q 106 563 67 474 q 228 706 146 653 q 428 760 310 760 q 560 735 497 760 q 664 667 622 710 l 619 592 q 532 654 583 631 q 428 678 481 678 q 240 592 307 678 q 174 367 174 506 q 237 142 174 228 q 414 57 300 57 q 538 87 483 57 q 638 169 592 117 l 681 104 q 567 10 635 47 q 414 -26 499 -26 z "},"ć":{"ha":718,"x_min":67,"x_max":681,"o":"m 67 0 m 414 -26 q 222 26 300 -26 q 106 168 144 79 q 67 365 67 257 q 106 563 67 474 q 228 706 146 653 q 428 760 310 760 q 560 735 497 760 q 664 667 622 710 l 619 592 q 532 654 583 631 q 428 678 481 678 q 240 592 307 678 q 174 367 174 506 q 237 142 174 228 q 414 57 300 57 q 538 87 483 57 q 638 169 592 117 l 681 104 q 567 10 635 47 q 414 -26 499 -26 m 511 1124 l 622 1124 l 460 829 l 376 829 l 511 1124 z "},"č":{"ha":718,"x_min":67,"x_max":681,"o":"m 67 0 m 414 -26 q 222 26 300 -26 q 106 168 144 79 q 67 365 67 257 q 106 563 67 474 q 228 706 146 653 q 428 760 310 760 q 560 735 497 760 q 664 667 622 710 l 619 592 q 532 654 583 631 q 428 678 481 678 q 240 592 307 678 q 174 367 174 506 q 237 142 174 228 q 414 57 300 57 q 538 87 483 57 q 638 169 592 117 l 681 104 q 567 10 635 47 q 414 -26 499 -26 m 624 1121 l 476 829 l 375 829 l 226 1121 l 310 1121 l 425 907 l 542 1121 l 624 1121 z "},"ç":{"ha":718,"x_min":67,"x_max":681,"o":"m 681 104 q 578 16 639 51 q 443 -25 518 -19 l 406 -97 q 436 -93 421 -93 q 508 -117 479 -93 q 536 -178 536 -140 q 361 -331 536 -282 l 332 -279 q 426 -233 401 -254 q 451 -186 451 -211 q 410 -151 451 -151 q 357 -165 388 -151 l 314 -124 l 368 -24 q 201 42 269 -12 q 100 181 133 97 q 67 365 67 265 q 106 563 67 474 q 228 706 146 653 q 428 760 310 760 q 560 735 497 760 q 664 667 622 710 l 619 592 q 532 654 583 631 q 428 678 481 678 q 240 592 307 678 q 174 367 174 506 q 237 142 174 228 q 414 57 300 57 q 538 87 483 57 q 638 169 592 117 l 681 104 z "},"d":{"ha":817,"x_min":67,"x_max":682,"o":"m 682 1111 l 682 0 l 600 0 l 588 63 q 364 -26 489 -26 q 209 18 276 -26 q 104 148 142 63 q 67 351 67 233 q 167 656 67 553 q 433 760 267 760 q 578 733 513 760 l 578 1111 l 682 1111 m 174 351 q 231 128 174 199 q 369 58 288 58 q 476 77 429 58 q 578 140 522 96 l 578 651 q 438 678 521 678 q 239 590 304 678 q 174 351 174 501 z "},"ð":{"ha":864,"x_min":67,"x_max":758,"o":"m 503 965 q 693 714 628 861 q 758 406 758 567 q 715 178 758 276 q 596 27 672 81 q 421 -26 519 -26 q 226 26 306 -26 q 106 167 146 79 q 67 363 67 256 q 107 556 67 468 q 225 697 147 644 q 411 750 303 750 q 590 693 511 750 q 417 918 532 825 l 217 808 l 183 874 l 350 965 q 160 1047 267 1017 l 207 1117 q 439 1013 335 1082 l 622 1113 l 654 1047 l 503 965 m 421 57 q 589 148 526 57 q 651 401 651 239 q 640 533 651 464 q 411 667 551 667 q 236 583 299 667 q 174 363 174 500 q 238 144 174 231 q 421 57 301 57 z "},"ď":{"ha":817,"x_min":67,"x_max":903,"o":"m 67 0 m 682 1111 l 682 0 l 600 0 l 588 63 q 364 -26 489 -26 q 209 18 276 -26 q 104 148 142 63 q 67 351 67 233 q 167 656 67 553 q 433 760 267 760 q 578 733 513 760 l 578 1111 l 682 1111 m 174 351 q 231 128 174 199 q 369 58 288 58 q 476 77 429 58 q 578 140 522 96 l 578 651 q 438 678 521 678 q 239 590 304 678 q 174 351 174 501 m 732 842 q 817 1015 817 901 q 799 1111 817 1060 l 889 1111 q 903 1019 903 1065 q 865 885 903 946 q 768 793 828 824 l 732 842 z "},"đ":{"ha":817,"x_min":67,"x_max":815,"o":"m 815 872 l 682 872 l 682 0 l 600 0 l 588 63 q 364 -26 489 -26 q 209 18 276 -26 q 104 148 142 63 q 67 351 67 233 q 167 656 67 553 q 433 760 267 760 q 578 733 513 760 l 578 872 l 358 872 l 358 950 l 578 950 l 578 1111 l 682 1111 l 682 950 l 815 950 l 815 872 m 174 351 q 231 128 174 199 q 369 58 288 58 q 476 77 429 58 q 578 140 522 96 l 578 651 q 438 678 521 678 q 239 590 304 678 q 174 351 174 501 z "},"e":{"ha":758,"x_min":67,"x_max":688,"o":"m 688 108 q 413 -26 574 -26 q 222 26 300 -26 q 106 169 144 79 q 67 365 67 258 q 106 565 67 475 q 222 707 144 654 q 413 760 300 760 q 551 728 489 760 q 650 637 614 697 q 686 494 686 576 q 678 418 686 460 l 175 418 q 172 368 172 385 q 235 142 172 228 q 414 57 297 57 q 540 88 485 57 q 644 174 596 119 l 688 108 m 411 681 q 269 631 325 681 q 189 497 213 582 l 582 497 l 582 507 q 531 635 582 590 q 411 681 481 681 z "},"é":{"ha":758,"x_min":67,"x_max":688,"o":"m 67 0 m 688 108 q 413 -26 574 -26 q 222 26 300 -26 q 106 169 144 79 q 67 365 67 258 q 106 565 67 475 q 222 707 144 654 q 413 760 300 760 q 551 728 489 760 q 650 637 614 697 q 686 494 686 576 q 678 418 686 460 l 175 418 q 172 368 172 385 q 235 142 172 228 q 414 57 297 57 q 540 88 485 57 q 644 174 596 119 l 688 108 m 411 681 q 269 631 325 681 q 189 497 213 582 l 582 497 l 582 507 q 531 635 582 590 q 411 681 481 681 m 483 1124 l 594 1124 l 432 829 l 349 829 l 483 1124 z "},"ě":{"ha":758,"x_min":67,"x_max":688,"o":"m 67 0 m 688 108 q 413 -26 574 -26 q 222 26 300 -26 q 106 169 144 79 q 67 365 67 258 q 106 565 67 475 q 222 707 144 654 q 413 760 300 760 q 551 728 489 760 q 650 637 614 697 q 686 494 686 576 q 678 418 686 460 l 175 418 q 172 368 172 385 q 235 142 172 228 q 414 57 297 57 q 540 88 485 57 q 644 174 596 119 l 688 108 m 411 681 q 269 631 325 681 q 189 497 213 582 l 582 497 l 582 507 q 531 635 582 590 q 411 681 481 681 m 596 1121 l 449 829 l 347 829 l 199 1121 l 282 1121 l 397 907 l 514 1121 l 596 1121 z "},"ê":{"ha":758,"x_min":67,"x_max":688,"o":"m 67 0 m 688 108 q 413 -26 574 -26 q 222 26 300 -26 q 106 169 144 79 q 67 365 67 258 q 106 565 67 475 q 222 707 144 654 q 413 760 300 760 q 551 728 489 760 q 650 637 614 697 q 686 494 686 576 q 678 418 686 460 l 175 418 q 172 368 172 385 q 235 142 172 228 q 414 57 297 57 q 540 88 485 57 q 644 174 596 119 l 688 108 m 411 681 q 269 631 325 681 q 189 497 213 582 l 582 497 l 582 507 q 531 635 582 590 q 411 681 481 681 m 514 829 l 397 1043 l 282 829 l 199 829 l 347 1121 l 449 1121 l 596 829 l 514 829 z "},"ë":{"ha":758,"x_min":67,"x_max":688,"o":"m 67 0 m 688 108 q 413 -26 574 -26 q 222 26 300 -26 q 106 169 144 79 q 67 365 67 258 q 106 565 67 475 q 222 707 144 654 q 413 760 300 760 q 551 728 489 760 q 650 637 614 697 q 686 494 686 576 q 678 418 686 460 l 175 418 q 172 368 172 385 q 235 142 172 228 q 414 57 297 57 q 540 88 485 57 q 644 174 596 119 l 688 108 m 411 681 q 269 631 325 681 q 189 497 213 582 l 582 497 l 582 507 q 531 635 582 590 q 411 681 481 681 m 263 983 q 216 1003 236 983 q 196 1049 196 1022 q 215 1097 196 1076 q 263 1117 235 1117 q 310 1097 290 1117 q 331 1049 331 1076 q 310 1003 331 1022 q 263 983 290 983 m 532 983 q 485 1003 506 983 q 465 1049 465 1022 q 485 1097 465 1076 q 532 1117 504 1117 q 580 1097 560 1117 q 600 1049 600 1076 q 580 1003 600 1022 q 532 983 560 983 z "},"ė":{"ha":758,"x_min":67,"x_max":688,"o":"m 67 0 m 688 108 q 413 -26 574 -26 q 222 26 300 -26 q 106 169 144 79 q 67 365 67 258 q 106 565 67 475 q 222 707 144 654 q 413 760 300 760 q 551 728 489 760 q 650 637 614 697 q 686 494 686 576 q 678 418 686 460 l 175 418 q 172 368 172 385 q 235 142 172 228 q 414 57 297 57 q 540 88 485 57 q 644 174 596 119 l 688 108 m 411 681 q 269 631 325 681 q 189 497 213 582 l 582 497 l 582 507 q 531 635 582 590 q 411 681 481 681 m 397 983 q 351 1003 371 983 q 331 1049 331 1022 q 350 1097 331 1076 q 397 1117 369 1117 q 445 1097 425 1117 q 465 1049 465 1076 q 445 1003 465 1022 q 397 983 425 983 z "},"è":{"ha":758,"x_min":67,"x_max":688,"o":"m 67 0 m 688 108 q 413 -26 574 -26 q 222 26 300 -26 q 106 169 144 79 q 67 365 67 258 q 106 565 67 475 q 222 707 144 654 q 413 760 300 760 q 551 728 489 760 q 650 637 614 697 q 686 494 686 576 q 678 418 686 460 l 175 418 q 172 368 172 385 q 235 142 172 228 q 414 57 297 57 q 540 88 485 57 q 644 174 596 119 l 688 108 m 411 681 q 269 631 325 681 q 189 497 213 582 l 582 497 l 582 507 q 531 635 582 590 q 411 681 481 681 m 197 1121 l 308 1121 l 443 829 l 360 829 l 197 1121 z "},"ē":{"ha":758,"x_min":67,"x_max":688,"o":"m 67 0 m 688 108 q 413 -26 574 -26 q 222 26 300 -26 q 106 169 144 79 q 67 365 67 258 q 106 565 67 475 q 222 707 144 654 q 413 760 300 760 q 551 728 489 760 q 650 637 614 697 q 686 494 686 576 q 678 418 686 460 l 175 418 q 172 368 172 385 q 235 142 172 228 q 414 57 297 57 q 540 88 485 57 q 644 174 596 119 l 688 108 m 411 681 q 269 631 325 681 q 189 497 213 582 l 582 497 l 582 507 q 531 635 582 590 q 411 681 481 681 m 188 1096 l 606 1096 l 606 1018 l 188 1018 l 188 1096 z "},"ę":{"ha":758,"x_min":67,"x_max":688,"o":"m 568 11 q 461 -100 496 -51 q 426 -194 426 -149 q 443 -242 426 -226 q 490 -258 460 -258 q 578 -215 535 -258 l 618 -268 q 557 -318 594 -299 q 478 -337 519 -337 q 376 -303 414 -337 q 339 -207 339 -268 q 431 -26 339 -118 l 413 -26 q 222 26 300 -26 q 106 169 144 79 q 67 365 67 258 q 106 565 67 475 q 222 707 144 654 q 413 760 300 760 q 551 728 489 760 q 650 637 614 697 q 686 494 686 576 q 678 418 686 460 l 175 418 q 172 368 172 385 q 235 142 172 228 q 414 57 297 57 q 540 88 485 57 q 644 174 596 119 l 688 108 q 568 11 631 42 m 411 681 q 269 631 325 681 q 189 497 213 582 l 582 497 l 582 507 q 531 635 582 590 q 411 681 481 681 z "},"f":{"ha":549,"x_min":89,"x_max":536,"o":"m 311 733 l 533 733 l 533 654 l 311 654 l 311 0 l 207 0 l 207 654 l 89 654 l 89 699 l 207 728 l 207 808 q 268 1034 207 956 q 456 1113 329 1113 q 536 1101 494 1113 l 521 1021 q 463 1028 490 1028 q 347 974 382 1028 q 311 806 311 919 l 311 733 z "},"g":{"ha":761,"x_min":51,"x_max":746,"o":"m 746 653 l 576 668 q 625 521 625 607 q 596 399 625 454 q 507 310 567 343 q 363 276 447 276 q 271 289 310 276 q 206 225 225 249 q 188 174 188 201 q 211 128 188 142 q 288 114 235 114 l 528 114 q 678 66 625 114 q 732 -62 732 18 q 679 -204 732 -140 q 534 -305 626 -268 q 328 -342 442 -342 q 116 -287 181 -342 q 51 -151 51 -233 q 80 -51 51 -93 q 171 42 108 -8 q 88 154 88 71 q 113 233 88 196 q 199 321 138 269 q 124 405 150 353 q 99 518 99 457 q 128 638 99 583 q 217 726 157 693 q 363 760 276 760 q 493 733 436 760 l 746 733 l 746 653 m 363 356 q 478 401 436 356 q 521 519 521 447 q 479 635 521 590 q 363 681 438 681 q 247 635 289 681 q 204 519 204 590 q 247 401 204 447 q 363 356 289 356 m 635 -75 q 515 26 635 26 l 279 26 l 263 26 q 178 -57 207 -17 q 150 -146 150 -97 q 197 -233 150 -207 q 328 -260 243 -260 q 484 -233 414 -260 q 594 -162 554 -206 q 635 -75 635 -119 z "},"ğ":{"ha":761,"x_min":51,"x_max":746,"o":"m 51 0 m 746 653 l 576 668 q 625 521 625 607 q 596 399 625 454 q 507 310 567 343 q 363 276 447 276 q 271 289 310 276 q 206 225 225 249 q 188 174 188 201 q 211 128 188 142 q 288 114 235 114 l 528 114 q 678 66 625 114 q 732 -62 732 18 q 679 -204 732 -140 q 534 -305 626 -268 q 328 -342 442 -342 q 116 -287 181 -342 q 51 -151 51 -233 q 80 -51 51 -93 q 171 42 108 -8 q 88 154 88 71 q 113 233 88 196 q 199 321 138 269 q 124 405 150 353 q 99 518 99 457 q 128 638 99 583 q 217 726 157 693 q 363 760 276 760 q 493 733 436 760 l 746 733 l 746 653 m 363 356 q 478 401 436 356 q 521 519 521 447 q 479 635 521 590 q 363 681 438 681 q 247 635 289 681 q 204 519 204 590 q 247 401 204 447 q 363 356 289 356 m 635 -75 q 515 26 635 26 l 279 26 l 263 26 q 178 -57 207 -17 q 150 -146 150 -97 q 197 -233 150 -207 q 328 -260 243 -260 q 484 -233 414 -260 q 594 -162 554 -206 q 635 -75 635 -119 m 381 861 q 239 922 290 861 q 185 1090 188 982 l 256 1093 q 292 970 260 1011 q 381 929 325 929 q 467 970 435 929 q 504 1093 500 1011 l 575 1090 q 522 922 574 982 q 381 861 471 861 z "},"ģ":{"ha":761,"x_min":51,"x_max":746,"o":"m 51 0 m 746 653 l 576 668 q 625 521 625 607 q 596 399 625 454 q 507 310 567 343 q 363 276 447 276 q 271 289 310 276 q 206 225 225 249 q 188 174 188 201 q 211 128 188 142 q 288 114 235 114 l 528 114 q 678 66 625 114 q 732 -62 732 18 q 679 -204 732 -140 q 534 -305 626 -268 q 328 -342 442 -342 q 116 -287 181 -342 q 51 -151 51 -233 q 80 -51 51 -93 q 171 42 108 -8 q 88 154 88 71 q 113 233 88 196 q 199 321 138 269 q 124 405 150 353 q 99 518 99 457 q 128 638 99 583 q 217 726 157 693 q 363 760 276 760 q 493 733 436 760 l 746 733 l 746 653 m 363 356 q 478 401 436 356 q 521 519 521 447 q 479 635 521 590 q 363 681 438 681 q 247 635 289 681 q 204 519 204 590 q 247 401 204 447 q 363 356 289 356 m 635 -75 q 515 26 635 26 l 279 26 l 263 26 q 178 -57 207 -17 q 150 -146 150 -97 q 197 -233 150 -207 q 328 -260 243 -260 q 484 -233 414 -260 q 594 -162 554 -206 q 635 -75 635 -119 m 419 858 q 321 896 351 867 q 290 967 290 925 q 443 1108 290 1068 l 472 1057 q 396 1019 417 1039 q 375 971 375 999 q 391 938 375 951 q 444 919 407 925 l 419 858 z "},"h":{"ha":826,"x_min":133,"x_max":699,"o":"m 493 760 q 655 699 611 760 q 699 522 699 638 l 699 0 l 594 0 l 594 514 q 566 637 594 599 q 469 675 538 675 q 361 649 417 675 q 238 571 306 624 l 238 0 l 133 0 l 133 1111 l 238 1111 l 238 658 q 493 760 369 760 z "},"ħ":{"ha":826,"x_min":1,"x_max":699,"o":"m 493 760 q 655 699 611 760 q 699 522 699 638 l 699 0 l 594 0 l 594 514 q 566 637 594 599 q 469 675 538 675 q 361 649 417 675 q 238 571 306 624 l 238 0 l 133 0 l 133 872 l 1 872 l 1 950 l 133 950 l 133 1111 l 238 1111 l 238 950 l 458 950 l 458 872 l 238 872 l 238 658 q 493 760 369 760 z "},"i":{"ha":392,"x_min":126,"x_max":265,"o":"m 196 983 q 147 1003 168 983 q 126 1051 126 1024 q 147 1101 126 1081 q 196 1122 168 1122 q 245 1101 225 1122 q 265 1051 265 1081 q 245 1003 265 1024 q 196 983 225 983 m 143 733 l 247 733 l 247 0 l 143 0 l 143 733 z "},"ı":{"ha":392,"x_min":143,"x_max":247,"o":"m 143 733 l 247 733 l 247 0 l 143 0 l 143 733 z "},"í":{"ha":392,"x_min":143,"x_max":393,"o":"m 143 0 m 143 733 l 247 733 l 247 0 l 143 0 l 143 733 m 282 1124 l 393 1124 l 231 829 l 147 829 l 282 1124 z "},"î":{"ha":392,"x_min":-3,"x_max":394,"o":"m 0 0 m 143 733 l 247 733 l 247 0 l 143 0 l 143 733 m 313 829 l 196 1043 l 81 829 l -3 829 l 146 1121 l 247 1121 l 394 829 l 313 829 z "},"ï":{"ha":392,"x_min":-6,"x_max":399,"o":"m 0 0 m 143 733 l 247 733 l 247 0 l 143 0 l 143 733 m 61 983 q 15 1003 35 983 q -6 1049 -6 1022 q 14 1097 -6 1076 q 61 1117 33 1117 q 109 1097 89 1117 q 129 1049 129 1076 q 109 1003 129 1022 q 61 983 89 983 m 331 983 q 284 1003 304 983 q 264 1049 264 1022 q 283 1097 264 1076 q 331 1117 303 1117 q 378 1097 358 1117 q 399 1049 399 1076 q 378 1003 399 1022 q 331 983 358 983 z "},"ì":{"ha":392,"x_min":-4,"x_max":247,"o":"m 0 0 m 143 733 l 247 733 l 247 0 l 143 0 l 143 733 m -4 1121 l 107 1121 l 242 829 l 158 829 l -4 1121 z "},"ĳ":{"ha":764,"x_min":126,"x_max":651,"o":"m 126 0 m 196 983 q 147 1003 168 983 q 126 1051 126 1024 q 147 1101 126 1081 q 196 1122 168 1122 q 245 1101 225 1122 q 265 1051 265 1081 q 245 1003 265 1024 q 196 983 225 983 m 143 733 l 247 733 l 247 0 l 143 0 l 143 733 m 582 983 q 533 1003 554 983 q 513 1051 513 1024 q 533 1101 513 1081 q 582 1122 554 1122 q 631 1101 611 1122 q 651 1051 651 1081 q 631 1003 651 1024 q 582 983 611 983 m 383 -339 q 301 -328 346 -339 l 317 -247 q 375 -254 347 -254 q 491 -200 456 -254 q 526 -32 526 -146 l 526 733 l 631 733 l 631 -35 q 569 -260 631 -182 q 383 -339 508 -339 z "},"ī":{"ha":392,"x_min":-14,"x_max":404,"o":"m 0 0 m 143 733 l 247 733 l 247 0 l 143 0 l 143 733 m -14 1096 l 404 1096 l 404 1018 l -14 1018 l -14 1096 z "},"į":{"ha":392,"x_min":-4,"x_max":275,"o":"m 196 983 q 147 1003 168 983 q 126 1051 126 1024 q 147 1101 126 1081 q 196 1122 168 1122 q 245 1101 225 1122 q 265 1051 265 1081 q 245 1003 265 1024 q 196 983 225 983 m 275 -268 q 214 -318 251 -299 q 135 -337 176 -337 q 33 -303 71 -337 q -4 -207 -4 -268 q 33 -92 -4 -150 q 142 21 71 -33 l 143 21 l 143 733 l 247 733 l 247 0 l 213 0 q 115 -103 146 -57 q 83 -194 83 -150 q 100 -242 83 -226 q 147 -258 117 -258 q 235 -215 192 -258 l 275 -268 z "},"ĩ":{"ha":392,"x_min":-31,"x_max":422,"o":"m 0 0 m 143 733 l 247 733 l 247 0 l 143 0 l 143 733 m -31 889 q 11 1028 -24 979 q 103 1078 46 1078 q 160 1062 138 1078 q 213 1013 183 1046 q 249 975 233 988 q 286 963 265 963 q 331 990 315 963 q 354 1081 346 1017 l 422 1075 q 381 936 415 986 q 289 886 346 886 q 227 903 251 886 q 174 954 203 921 q 139 990 154 978 q 106 1001 124 1001 q 61 975 76 1001 q 38 883 46 949 l -31 889 z "},"j":{"ha":372,"x_min":-90,"x_max":260,"o":"m 190 983 q 142 1003 163 983 q 121 1051 121 1024 q 142 1101 121 1081 q 190 1122 163 1122 q 240 1101 219 1122 q 260 1051 260 1081 q 240 1003 260 1024 q 190 983 219 983 m -8 -339 q -90 -328 -46 -339 l -75 -247 q -17 -254 -44 -254 q 99 -200 64 -254 q 135 -32 135 -146 l 135 733 l 239 733 l 239 -35 q 178 -260 239 -182 q -8 -339 117 -339 z "},"ȷ":{"ha":372,"x_min":-90,"x_max":239,"o":"m -8 -339 q -90 -328 -46 -339 l -75 -247 q -17 -254 -44 -254 q 99 -200 64 -254 q 135 -32 135 -146 l 135 733 l 239 733 l 239 -35 q 178 -260 239 -182 q -8 -339 117 -339 z "},"ĵ":{"ha":372,"x_min":-90,"x_max":385,"o":"m 0 0 m -8 -339 q -90 -328 -46 -339 l -75 -247 q -17 -254 -44 -254 q 99 -200 64 -254 q 135 -32 135 -146 l 135 733 l 239 733 l 239 -35 q 178 -260 239 -182 q -8 -339 117 -339 m 303 829 l 186 1043 l 71 829 l -12 829 l 136 1121 l 238 1121 l 385 829 l 303 829 z "},"k":{"ha":763,"x_min":133,"x_max":728,"o":"m 133 1111 l 238 1111 l 238 0 l 133 0 l 133 1111 m 728 0 l 606 0 l 272 388 l 272 415 l 558 733 l 675 733 l 375 406 l 728 0 z "},"ķ":{"ha":763,"x_min":133,"x_max":728,"o":"m 133 0 m 133 1111 l 238 1111 l 238 0 l 133 0 l 133 1111 m 728 0 l 606 0 l 272 388 l 272 415 l 558 733 l 675 733 l 375 406 l 728 0 m 306 -283 q 381 -244 360 -264 q 403 -197 403 -225 q 387 -165 403 -178 q 333 -146 371 -151 l 358 -85 q 457 -122 426 -93 q 488 -193 488 -151 q 451 -277 488 -240 q 335 -335 414 -314 l 306 -283 z "},"ĸ":{"ha":871,"x_min":133,"x_max":728,"o":"m 133 733 l 238 733 l 238 0 l 133 0 l 133 733 m 728 0 l 606 0 l 272 388 l 272 415 l 558 733 l 675 733 l 375 406 l 728 0 z "},"l":{"ha":372,"x_min":133,"x_max":238,"o":"m 133 1111 l 238 1111 l 238 0 l 133 0 l 133 1111 z "},"ĺ":{"ha":372,"x_min":133,"x_max":385,"o":"m 133 0 m 133 1111 l 238 1111 l 238 0 l 133 0 l 133 1111 m 274 1433 l 385 1433 l 222 1139 l 139 1139 l 274 1433 z "},"ľ":{"ha":372,"x_min":133,"x_max":458,"o":"m 133 0 m 133 1111 l 238 1111 l 238 0 l 133 0 l 133 1111 m 288 842 q 372 1015 372 901 q 354 1111 372 1060 l 444 1111 q 458 1019 458 1065 q 421 885 458 946 q 324 793 383 824 l 288 842 z "},"ļ":{"ha":372,"x_min":101,"x_max":283,"o":"m 101 0 m 133 1111 l 238 1111 l 238 0 l 133 0 l 133 1111 m 101 -283 q 177 -244 156 -264 q 199 -197 199 -225 q 183 -165 199 -178 q 129 -146 167 -151 l 154 -85 q 253 -122 222 -93 q 283 -193 283 -151 q 247 -277 283 -240 q 131 -335 210 -314 l 101 -283 z "},"ŀ":{"ha":372,"x_min":133,"x_max":446,"o":"m 133 0 m 133 1111 l 238 1111 l 238 0 l 133 0 l 133 1111 m 371 293 q 319 315 340 293 q 297 367 297 336 q 319 419 297 397 q 371 442 340 442 q 424 419 401 442 q 446 367 446 397 q 424 315 446 336 q 371 293 401 293 z "},"ł":{"ha":372,"x_min":-22,"x_max":394,"o":"m 238 550 l 238 0 l 133 0 l 133 476 l 22 397 l -22 460 l 133 571 l 133 1111 l 238 1111 l 238 646 l 350 726 l 394 663 l 238 550 z "},"m":{"ha":1240,"x_min":133,"x_max":1114,"o":"m 919 760 q 1072 699 1031 760 q 1114 522 1114 639 l 1114 0 l 1010 0 l 1010 514 q 984 637 1010 599 q 896 675 958 675 q 794 649 846 675 q 675 571 743 624 q 676 522 676 556 l 676 0 l 572 0 l 572 514 q 547 637 572 599 q 458 675 521 675 q 358 650 408 675 q 238 571 307 625 l 238 0 l 133 0 l 133 733 l 215 733 l 231 654 q 482 760 367 760 q 601 731 558 760 q 661 647 643 701 q 919 760 800 760 z "},"n":{"ha":826,"x_min":133,"x_max":700,"o":"m 494 760 q 656 699 613 760 q 700 522 700 638 l 700 0 l 596 0 l 596 514 q 567 637 596 599 q 471 675 539 675 q 361 649 417 675 q 238 571 306 624 l 238 0 l 133 0 l 133 733 l 215 733 l 231 654 q 494 760 365 760 z "},"ń":{"ha":826,"x_min":133,"x_max":700,"o":"m 133 0 m 494 760 q 656 699 613 760 q 700 522 700 638 l 700 0 l 596 0 l 596 514 q 567 637 596 599 q 471 675 539 675 q 361 649 417 675 q 238 571 306 624 l 238 0 l 133 0 l 133 733 l 215 733 l 231 654 q 494 760 365 760 m 500 1124 l 611 1124 l 449 829 l 365 829 l 500 1124 z "},"ň":{"ha":826,"x_min":133,"x_max":700,"o":"m 133 0 m 494 760 q 656 699 613 760 q 700 522 700 638 l 700 0 l 596 0 l 596 514 q 567 637 596 599 q 471 675 539 675 q 361 649 417 675 q 238 571 306 624 l 238 0 l 133 0 l 133 733 l 215 733 l 231 654 q 494 760 365 760 m 613 1121 l 465 829 l 364 829 l 215 1121 l 299 1121 l 414 907 l 531 1121 l 613 1121 z "},"ņ":{"ha":826,"x_min":133,"x_max":700,"o":"m 133 0 m 494 760 q 656 699 613 760 q 700 522 700 638 l 700 0 l 596 0 l 596 514 q 567 637 596 599 q 471 675 539 675 q 361 649 417 675 q 238 571 306 624 l 238 0 l 133 0 l 133 733 l 215 733 l 231 654 q 494 760 365 760 m 329 -283 q 405 -244 383 -264 q 426 -197 426 -225 q 410 -165 426 -178 q 357 -146 394 -151 l 382 -85 q 481 -122 450 -93 q 511 -193 511 -151 q 474 -277 511 -240 q 358 -335 438 -314 l 329 -283 z "},"ñ":{"ha":826,"x_min":133,"x_max":700,"o":"m 133 0 m 494 760 q 656 699 613 760 q 700 522 700 638 l 700 0 l 596 0 l 596 514 q 567 637 596 599 q 471 675 539 675 q 361 649 417 675 q 238 571 306 624 l 238 0 l 133 0 l 133 733 l 215 733 l 231 654 q 494 760 365 760 m 188 889 q 229 1028 194 979 q 321 1078 264 1078 q 378 1062 356 1078 q 431 1013 401 1046 q 467 975 451 988 q 504 963 483 963 q 549 990 533 963 q 572 1081 564 1017 l 640 1075 q 599 936 633 986 q 507 886 564 886 q 445 903 469 886 q 392 954 421 921 q 357 990 372 978 q 324 1001 342 1001 q 279 975 294 1001 q 256 883 264 949 l 188 889 z "},"o":{"ha":828,"x_min":67,"x_max":760,"o":"m 414 -26 q 223 26 301 -26 q 106 169 144 79 q 67 365 67 258 q 106 565 67 475 q 223 707 144 654 q 414 760 301 760 q 604 706 526 760 q 721 563 682 653 q 760 368 760 474 q 721 171 760 261 q 604 27 682 81 q 414 -26 526 -26 m 413 57 q 590 142 528 57 q 653 367 653 226 q 590 592 653 506 q 413 678 528 678 q 236 592 299 678 q 174 367 174 506 q 235 142 174 226 q 413 57 297 57 z "},"ó":{"ha":828,"x_min":67,"x_max":760,"o":"m 67 0 m 414 -26 q 223 26 301 -26 q 106 169 144 79 q 67 365 67 258 q 106 565 67 475 q 223 707 144 654 q 414 760 301 760 q 604 706 526 760 q 721 563 682 653 q 760 368 760 474 q 721 171 760 261 q 604 27 682 81 q 414 -26 526 -26 m 413 57 q 590 142 528 57 q 653 367 653 226 q 590 592 653 506 q 413 678 528 678 q 236 592 299 678 q 174 367 174 506 q 235 142 174 226 q 413 57 297 57 m 500 1124 l 611 1124 l 449 829 l 365 829 l 500 1124 z "},"ô":{"ha":828,"x_min":67,"x_max":760,"o":"m 67 0 m 414 -26 q 223 26 301 -26 q 106 169 144 79 q 67 365 67 258 q 106 565 67 475 q 223 707 144 654 q 414 760 301 760 q 604 706 526 760 q 721 563 682 653 q 760 368 760 474 q 721 171 760 261 q 604 27 682 81 q 414 -26 526 -26 m 413 57 q 590 142 528 57 q 653 367 653 226 q 590 592 653 506 q 413 678 528 678 q 236 592 299 678 q 174 367 174 506 q 235 142 174 226 q 413 57 297 57 m 531 829 l 414 1043 l 299 829 l 215 829 l 364 1121 l 465 1121 l 613 829 l 531 829 z "},"ö":{"ha":828,"x_min":67,"x_max":760,"o":"m 67 0 m 414 -26 q 223 26 301 -26 q 106 169 144 79 q 67 365 67 258 q 106 565 67 475 q 223 707 144 654 q 414 760 301 760 q 604 706 526 760 q 721 563 682 653 q 760 368 760 474 q 721 171 760 261 q 604 27 682 81 q 414 -26 526 -26 m 413 57 q 590 142 528 57 q 653 367 653 226 q 590 592 653 506 q 413 678 528 678 q 236 592 299 678 q 174 367 174 506 q 235 142 174 226 q 413 57 297 57 m 279 983 q 233 1003 253 983 q 213 1049 213 1022 q 232 1097 213 1076 q 279 1117 251 1117 q 327 1097 307 1117 q 347 1049 347 1076 q 327 1003 347 1022 q 279 983 307 983 m 549 983 q 502 1003 522 983 q 482 1049 482 1022 q 501 1097 482 1076 q 549 1117 521 1117 q 597 1097 576 1117 q 617 1049 617 1076 q 597 1003 617 1022 q 549 983 576 983 z "},"ò":{"ha":828,"x_min":67,"x_max":760,"o":"m 67 0 m 414 -26 q 223 26 301 -26 q 106 169 144 79 q 67 365 67 258 q 106 565 67 475 q 223 707 144 654 q 414 760 301 760 q 604 706 526 760 q 721 563 682 653 q 760 368 760 474 q 721 171 760 261 q 604 27 682 81 q 414 -26 526 -26 m 413 57 q 590 142 528 57 q 653 367 653 226 q 590 592 653 506 q 413 678 528 678 q 236 592 299 678 q 174 367 174 506 q 235 142 174 226 q 413 57 297 57 m 214 1121 l 325 1121 l 460 829 l 376 829 l 214 1121 z "},"ő":{"ha":828,"x_min":67,"x_max":760,"o":"m 67 0 m 414 -26 q 223 26 301 -26 q 106 169 144 79 q 67 365 67 258 q 106 565 67 475 q 223 707 144 654 q 414 760 301 760 q 604 706 526 760 q 721 563 682 653 q 760 368 760 474 q 721 171 760 261 q 604 27 682 81 q 414 -26 526 -26 m 413 57 q 590 142 528 57 q 653 367 653 226 q 590 592 653 506 q 413 678 528 678 q 236 592 299 678 q 174 367 174 506 q 235 142 174 226 q 413 57 297 57 m 397 1121 l 501 1121 l 339 829 l 263 829 l 397 1121 m 619 1121 l 724 1121 l 561 829 l 485 829 l 619 1121 z "},"ō":{"ha":828,"x_min":67,"x_max":760,"o":"m 67 0 m 414 -26 q 223 26 301 -26 q 106 169 144 79 q 67 365 67 258 q 106 565 67 475 q 223 707 144 654 q 414 760 301 760 q 604 706 526 760 q 721 563 682 653 q 760 368 760 474 q 721 171 760 261 q 604 27 682 81 q 414 -26 526 -26 m 413 57 q 590 142 528 57 q 653 367 653 226 q 590 592 653 506 q 413 678 528 678 q 236 592 299 678 q 174 367 174 506 q 235 142 174 226 q 413 57 297 57 m 204 1096 l 622 1096 l 622 1018 l 204 1018 l 204 1096 z "},"ø":{"ha":828,"x_min":67,"x_max":760,"o":"m 676 639 q 739 516 718 586 q 760 368 760 446 q 721 171 760 261 q 604 27 682 81 q 414 -26 526 -26 q 199 44 285 -26 l 131 -39 l 76 1 l 150 93 q 88 217 108 146 q 67 365 67 288 q 106 565 67 475 q 223 707 144 654 q 414 760 301 760 q 629 688 542 760 l 696 771 l 750 731 l 676 639 m 174 367 q 215 174 174 253 l 571 615 q 413 678 508 678 q 236 592 299 678 q 174 367 174 506 m 413 57 q 590 142 528 57 q 653 367 653 226 q 611 558 653 482 l 257 118 q 413 57 318 57 z "},"õ":{"ha":828,"x_min":67,"x_max":760,"o":"m 67 0 m 414 -26 q 223 26 301 -26 q 106 169 144 79 q 67 365 67 258 q 106 565 67 475 q 223 707 144 654 q 414 760 301 760 q 604 706 526 760 q 721 563 682 653 q 760 368 760 474 q 721 171 760 261 q 604 27 682 81 q 414 -26 526 -26 m 413 57 q 590 142 528 57 q 653 367 653 226 q 590 592 653 506 q 413 678 528 678 q 236 592 299 678 q 174 367 174 506 q 235 142 174 226 q 413 57 297 57 m 188 889 q 229 1028 194 979 q 321 1078 264 1078 q 378 1062 356 1078 q 431 1013 401 1046 q 467 975 451 988 q 504 963 483 963 q 549 990 533 963 q 572 1081 564 1017 l 640 1075 q 599 936 633 986 q 507 886 564 886 q 445 903 469 886 q 392 954 421 921 q 357 990 372 978 q 324 1001 342 1001 q 279 975 294 1001 q 256 883 264 949 l 188 889 z "},"œ":{"ha":1344,"x_min":67,"x_max":1274,"o":"m 1274 113 q 999 -26 1157 -26 q 822 18 896 -26 q 706 140 749 63 q 589 18 663 63 q 414 -26 515 -26 q 223 26 301 -26 q 106 169 144 79 q 67 365 67 258 q 106 565 67 475 q 223 707 144 654 q 414 760 301 760 q 590 715 517 760 q 706 593 663 671 q 822 715 747 671 q 999 760 896 760 q 1138 728 1075 760 q 1236 637 1200 697 q 1272 494 1272 576 q 1264 418 1272 460 l 761 418 q 758 368 758 385 q 821 142 758 228 q 1000 57 883 57 q 1126 89 1071 57 q 1231 178 1181 121 l 1274 113 m 997 681 q 855 631 911 681 q 775 497 799 582 l 1168 497 l 1168 507 q 1117 635 1168 590 q 997 681 1067 681 m 413 57 q 590 142 528 57 q 653 367 653 226 q 590 592 653 506 q 413 678 528 678 q 236 592 299 678 q 174 367 174 506 q 235 142 174 226 q 413 57 297 57 z "},"p":{"ha":817,"x_min":133,"x_max":750,"o":"m 451 760 q 608 715 540 760 q 713 586 675 671 q 750 385 750 501 q 703 158 750 250 q 574 19 657 65 q 382 -26 490 -26 q 238 3 303 -26 l 238 -328 l 133 -328 l 133 738 l 215 738 l 228 674 q 451 760 324 760 m 379 57 q 577 145 513 57 q 642 386 642 233 q 585 606 642 538 q 447 675 529 675 q 340 657 386 675 q 238 597 293 639 l 238 88 q 379 57 299 57 z "},"þ":{"ha":817,"x_min":133,"x_max":750,"o":"m 451 760 q 608 715 540 760 q 713 587 675 671 q 750 386 750 503 q 704 158 750 251 q 578 19 658 65 q 394 -26 499 -26 q 238 13 308 -26 l 238 -328 l 133 -328 l 133 1111 l 238 1111 l 238 682 q 451 760 332 760 m 389 57 q 581 145 518 57 q 643 386 643 233 q 586 606 643 536 q 447 675 529 675 q 340 657 386 675 q 238 597 293 639 l 238 97 q 389 57 301 57 z "},"q":{"ha":817,"x_min":67,"x_max":682,"o":"m 682 738 l 682 -329 l 578 -329 l 578 53 q 364 -26 482 -26 q 209 18 276 -26 q 104 148 142 63 q 67 350 67 233 q 112 576 67 483 q 238 714 157 668 q 421 760 318 760 q 604 707 519 760 l 624 738 l 682 738 m 369 58 q 476 77 431 58 q 578 139 522 96 l 578 640 q 428 678 514 678 q 236 589 299 678 q 174 350 174 500 q 231 128 174 199 q 369 58 288 58 z "},"r":{"ha":542,"x_min":133,"x_max":499,"o":"m 499 663 q 372 638 433 663 q 238 544 311 613 l 238 0 l 133 0 l 133 733 l 215 733 l 235 633 q 366 731 303 703 q 499 760 429 760 l 499 663 z "},"ŕ":{"ha":542,"x_min":133,"x_max":503,"o":"m 133 0 m 499 663 q 372 638 433 663 q 238 544 311 613 l 238 0 l 133 0 l 133 733 l 215 733 l 235 633 q 366 731 303 703 q 499 760 429 760 l 499 663 m 392 1124 l 503 1124 l 340 829 l 257 829 l 392 1124 z "},"ř":{"ha":542,"x_min":107,"x_max":504,"o":"m 107 0 m 499 663 q 372 638 433 663 q 238 544 311 613 l 238 0 l 133 0 l 133 733 l 215 733 l 235 633 q 366 731 303 703 q 499 760 429 760 l 499 663 m 504 1121 l 357 829 l 256 829 l 107 1121 l 190 1121 l 306 907 l 422 1121 l 504 1121 z "},"ŗ":{"ha":542,"x_min":97,"x_max":499,"o":"m 97 0 m 499 663 q 372 638 433 663 q 238 544 311 613 l 238 0 l 133 0 l 133 733 l 215 733 l 235 633 q 366 731 303 703 q 499 760 429 760 l 499 663 m 97 -283 q 173 -244 151 -264 q 194 -197 194 -225 q 178 -165 194 -178 q 125 -146 163 -151 l 150 -85 q 249 -122 218 -93 q 279 -193 279 -151 q 242 -277 279 -240 q 126 -335 206 -314 l 97 -283 z "},"s":{"ha":664,"x_min":67,"x_max":596,"o":"m 326 -26 q 181 -8 242 -26 q 67 47 119 10 l 103 125 q 326 57 189 57 q 448 93 401 57 q 494 194 494 129 q 472 257 494 232 q 415 299 449 282 q 322 338 382 315 q 205 387 250 364 q 128 451 160 410 q 96 556 96 492 q 165 707 96 654 q 342 760 233 760 q 575 688 475 760 l 540 611 q 343 678 451 678 q 238 649 278 678 q 197 561 197 619 q 220 498 197 524 q 276 456 243 472 q 369 419 310 440 q 488 369 444 392 q 564 304 532 346 q 596 197 596 263 q 522 34 596 94 q 326 -26 447 -26 z "},"ś":{"ha":664,"x_min":67,"x_max":596,"o":"m 67 0 m 326 -26 q 181 -8 242 -26 q 67 47 119 10 l 103 125 q 326 57 189 57 q 448 93 401 57 q 494 194 494 129 q 472 257 494 232 q 415 299 449 282 q 322 338 382 315 q 205 387 250 364 q 128 451 160 410 q 96 556 96 492 q 165 707 96 654 q 342 760 233 760 q 575 688 475 760 l 540 611 q 343 678 451 678 q 238 649 278 678 q 197 561 197 619 q 220 498 197 524 q 276 456 243 472 q 369 419 310 440 q 488 369 444 392 q 564 304 532 346 q 596 197 596 263 q 522 34 596 94 q 326 -26 447 -26 m 421 1124 l 532 1124 l 369 829 l 286 829 l 421 1124 z "},"š":{"ha":664,"x_min":67,"x_max":596,"o":"m 67 0 m 326 -26 q 181 -8 242 -26 q 67 47 119 10 l 103 125 q 326 57 189 57 q 448 93 401 57 q 494 194 494 129 q 472 257 494 232 q 415 299 449 282 q 322 338 382 315 q 205 387 250 364 q 128 451 160 410 q 96 556 96 492 q 165 707 96 654 q 342 760 233 760 q 575 688 475 760 l 540 611 q 343 678 451 678 q 238 649 278 678 q 197 561 197 619 q 220 498 197 524 q 276 456 243 472 q 369 419 310 440 q 488 369 444 392 q 564 304 532 346 q 596 197 596 263 q 522 34 596 94 q 326 -26 447 -26 m 533 1121 l 386 829 l 285 829 l 136 1121 l 219 1121 l 335 907 l 451 1121 l 533 1121 z "},"ş":{"ha":664,"x_min":67,"x_max":596,"o":"m 596 197 q 530 42 596 101 q 356 -25 464 -18 l 318 -97 q 349 -93 333 -93 q 420 -117 392 -93 q 449 -178 449 -140 q 274 -331 449 -282 l 244 -279 q 339 -233 314 -254 q 364 -186 364 -211 q 322 -151 364 -151 q 269 -165 300 -151 l 226 -124 l 279 -25 q 162 -2 213 -19 q 67 47 111 15 l 103 125 q 326 57 189 57 q 448 93 401 57 q 494 194 494 129 q 472 257 494 232 q 415 299 449 282 q 322 338 382 315 q 205 387 250 364 q 128 451 160 410 q 96 556 96 492 q 165 707 96 654 q 342 760 233 760 q 575 688 475 760 l 540 611 q 343 678 451 678 q 238 649 278 678 q 197 561 197 619 q 220 498 197 524 q 276 456 243 472 q 369 419 310 440 q 488 369 444 392 q 564 304 532 346 q 596 197 596 263 z "},"ș":{"ha":664,"x_min":67,"x_max":596,"o":"m 67 0 m 326 -26 q 181 -8 242 -26 q 67 47 119 10 l 103 125 q 326 57 189 57 q 448 93 401 57 q 494 194 494 129 q 472 257 494 232 q 415 299 449 282 q 322 338 382 315 q 205 387 250 364 q 128 451 160 410 q 96 556 96 492 q 165 707 96 654 q 342 760 233 760 q 575 688 475 760 l 540 611 q 343 678 451 678 q 238 649 278 678 q 197 561 197 619 q 220 498 197 524 q 276 456 243 472 q 369 419 310 440 q 488 369 444 392 q 564 304 532 346 q 596 197 596 263 q 522 34 596 94 q 326 -26 447 -26 m 244 -283 q 320 -244 299 -264 q 342 -197 342 -225 q 326 -165 342 -178 q 272 -146 310 -151 l 297 -85 q 396 -122 365 -93 q 426 -193 426 -151 q 390 -277 426 -240 q 274 -335 353 -314 l 244 -283 z "},"ß":{"ha":822,"x_min":133,"x_max":754,"o":"m 511 -26 q 319 26 400 -26 l 356 104 q 508 57 422 57 q 612 93 571 57 q 653 193 653 129 q 619 283 653 250 q 519 357 586 317 q 438 410 468 388 q 387 471 408 433 q 365 561 365 508 q 397 668 365 626 q 488 757 428 710 q 565 830 539 797 q 590 908 590 863 q 550 997 590 967 q 436 1028 510 1028 q 287 973 336 1028 q 238 804 238 918 l 238 0 l 133 0 l 133 807 q 212 1033 133 953 q 439 1113 290 1113 q 627 1058 560 1113 q 694 907 694 1003 q 677 825 694 860 q 635 766 660 790 q 568 710 610 742 q 491 639 515 668 q 467 568 467 610 q 495 494 467 522 q 585 432 524 467 q 672 374 639 401 q 730 304 706 347 q 754 197 754 261 q 721 79 754 131 q 632 1 688 28 q 511 -26 576 -26 z "},"t":{"ha":581,"x_min":43,"x_max":531,"o":"m 531 24 q 385 -19 458 -19 q 216 45 271 -19 q 161 231 161 110 l 161 654 l 43 654 l 43 699 l 169 731 l 201 904 l 265 904 l 265 733 l 488 733 l 488 654 l 265 654 l 265 243 q 295 108 265 150 q 393 65 325 65 q 449 74 425 65 q 513 100 474 82 l 531 24 z "},"ť":{"ha":581,"x_min":43,"x_max":531,"o":"m 43 0 m 531 24 q 385 -19 458 -19 q 216 45 271 -19 q 161 231 161 110 l 161 654 l 43 654 l 43 699 l 169 731 l 201 904 l 265 904 l 265 733 l 488 733 l 488 654 l 265 654 l 265 243 q 295 108 265 150 q 393 65 325 65 q 449 74 425 65 q 513 100 474 82 l 531 24 m 313 865 q 397 1039 397 925 q 379 1135 397 1083 l 469 1135 q 483 1043 483 1089 q 446 908 483 969 q 349 817 408 847 l 313 865 z "},"ț":{"ha":581,"x_min":43,"x_max":531,"o":"m 43 0 m 531 24 q 385 -19 458 -19 q 216 45 271 -19 q 161 231 161 110 l 161 654 l 43 654 l 43 699 l 169 731 l 201 904 l 265 904 l 265 733 l 488 733 l 488 654 l 265 654 l 265 243 q 295 108 265 150 q 393 65 325 65 q 449 74 425 65 q 513 100 474 82 l 531 24 m 272 -283 q 348 -244 326 -264 q 369 -197 369 -225 q 353 -165 369 -178 q 300 -146 338 -151 l 325 -85 q 424 -122 393 -93 q 454 -193 454 -151 q 417 -277 454 -240 q 301 -335 381 -314 l 272 -283 z "},"u":{"ha":826,"x_min":126,"x_max":692,"o":"m 692 733 l 692 0 l 610 0 l 594 81 q 332 -26 460 -26 q 170 35 214 -26 q 126 213 126 96 l 126 733 l 231 733 l 231 219 q 259 97 231 135 q 356 60 288 60 q 466 85 410 60 q 588 163 522 110 l 588 733 l 692 733 z "},"ú":{"ha":826,"x_min":126,"x_max":692,"o":"m 126 0 m 692 733 l 692 0 l 610 0 l 594 81 q 332 -26 460 -26 q 170 35 214 -26 q 126 213 126 96 l 126 733 l 231 733 l 231 219 q 259 97 231 135 q 356 60 288 60 q 466 85 410 60 q 588 163 522 110 l 588 733 l 692 733 m 499 1124 l 610 1124 l 447 829 l 364 829 l 499 1124 z "},"û":{"ha":826,"x_min":126,"x_max":692,"o":"m 126 0 m 692 733 l 692 0 l 610 0 l 594 81 q 332 -26 460 -26 q 170 35 214 -26 q 126 213 126 96 l 126 733 l 231 733 l 231 219 q 259 97 231 135 q 356 60 288 60 q 466 85 410 60 q 588 163 522 110 l 588 733 l 692 733 m 529 829 l 413 1043 l 297 829 l 214 829 l 363 1121 l 464 1121 l 611 829 l 529 829 z "},"ü":{"ha":826,"x_min":126,"x_max":692,"o":"m 126 0 m 692 733 l 692 0 l 610 0 l 594 81 q 332 -26 460 -26 q 170 35 214 -26 q 126 213 126 96 l 126 733 l 231 733 l 231 219 q 259 97 231 135 q 356 60 288 60 q 466 85 410 60 q 588 163 522 110 l 588 733 l 692 733 m 278 983 q 231 1003 251 983 q 211 1049 211 1022 q 231 1097 211 1076 q 278 1117 250 1117 q 326 1097 306 1117 q 346 1049 346 1076 q 326 1003 346 1022 q 278 983 306 983 m 547 983 q 501 1003 521 983 q 481 1049 481 1022 q 500 1097 481 1076 q 547 1117 519 1117 q 595 1097 575 1117 q 615 1049 615 1076 q 595 1003 615 1022 q 547 983 575 983 z "},"ù":{"ha":826,"x_min":126,"x_max":692,"o":"m 126 0 m 692 733 l 692 0 l 610 0 l 594 81 q 332 -26 460 -26 q 170 35 214 -26 q 126 213 126 96 l 126 733 l 231 733 l 231 219 q 259 97 231 135 q 356 60 288 60 q 466 85 410 60 q 588 163 522 110 l 588 733 l 692 733 m 213 1121 l 324 1121 l 458 829 l 375 829 l 213 1121 z "},"ű":{"ha":826,"x_min":126,"x_max":722,"o":"m 126 0 m 692 733 l 692 0 l 610 0 l 594 81 q 332 -26 460 -26 q 170 35 214 -26 q 126 213 126 96 l 126 733 l 231 733 l 231 219 q 259 97 231 135 q 356 60 288 60 q 466 85 410 60 q 588 163 522 110 l 588 733 l 692 733 m 396 1121 l 500 1121 l 338 829 l 261 829 l 396 1121 m 618 1121 l 722 1121 l 560 829 l 483 829 l 618 1121 z "},"ū":{"ha":826,"x_min":126,"x_max":692,"o":"m 126 0 m 692 733 l 692 0 l 610 0 l 594 81 q 332 -26 460 -26 q 170 35 214 -26 q 126 213 126 96 l 126 733 l 231 733 l 231 219 q 259 97 231 135 q 356 60 288 60 q 466 85 410 60 q 588 163 522 110 l 588 733 l 692 733 m 203 1096 l 621 1096 l 621 1018 l 203 1018 l 203 1096 z "},"ų":{"ha":826,"x_min":126,"x_max":742,"o":"m 742 -268 q 681 -318 718 -299 q 601 -337 643 -337 q 500 -303 538 -337 q 463 -207 463 -268 q 606 19 463 -93 l 594 81 q 332 -26 460 -26 q 170 35 214 -26 q 126 213 126 96 l 126 733 l 231 733 l 231 219 q 259 97 231 135 q 356 60 288 60 q 466 85 410 60 q 588 163 522 110 l 588 733 l 692 733 l 692 21 l 704 21 l 692 10 l 692 0 l 679 0 q 581 -103 613 -57 q 550 -194 550 -150 q 567 -242 550 -226 q 614 -258 583 -258 q 701 -215 658 -258 l 742 -268 z "},"ů":{"ha":826,"x_min":126,"x_max":692,"o":"m 126 0 m 692 733 l 692 0 l 610 0 l 594 81 q 332 -26 460 -26 q 170 35 214 -26 q 126 213 126 96 l 126 733 l 231 733 l 231 219 q 259 97 231 135 q 356 60 288 60 q 466 85 410 60 q 588 163 522 110 l 588 733 l 692 733 m 413 829 q 297 874 339 829 q 256 979 256 918 q 297 1083 256 1039 q 413 1128 339 1128 q 528 1084 486 1128 q 571 979 571 1040 q 528 874 571 918 q 413 829 486 829 m 413 886 q 475 913 451 886 q 499 979 499 939 q 476 1045 499 1019 q 413 1071 453 1071 q 349 1045 372 1071 q 326 979 326 1019 q 350 913 326 939 q 413 886 374 886 z "},"v":{"ha":717,"x_min":25,"x_max":692,"o":"m 692 733 l 406 -11 l 313 -11 l 25 733 l 133 733 l 360 126 l 586 733 l 692 733 z "},"w":{"ha":1107,"x_min":25,"x_max":1081,"o":"m 1081 733 l 850 -11 l 757 -11 l 554 593 l 350 -11 l 257 -11 l 25 733 l 133 733 l 306 129 l 510 733 l 599 733 l 806 129 l 975 733 l 1081 733 z "},"x":{"ha":772,"x_min":36,"x_max":738,"o":"m 611 0 l 385 315 l 158 0 l 36 0 l 318 383 l 63 733 l 186 733 l 388 451 l 589 733 l 710 733 l 454 383 l 738 0 l 611 0 z "},"y":{"ha":733,"x_min":25,"x_max":708,"o":"m 708 733 l 389 -103 q 275 -286 342 -229 q 111 -343 208 -343 q 25 -328 67 -343 l 40 -243 q 107 -254 76 -254 q 221 -212 175 -254 q 310 -57 267 -171 l 329 -6 l 42 733 l 150 733 l 379 129 l 603 733 l 708 733 z "},"ý":{"ha":733,"x_min":25,"x_max":708,"o":"m 25 0 m 708 733 l 389 -103 q 275 -286 342 -229 q 111 -343 208 -343 q 25 -328 67 -343 l 40 -243 q 107 -254 76 -254 q 221 -212 175 -254 q 310 -57 267 -171 l 329 -6 l 42 733 l 150 733 l 379 129 l 603 733 l 708 733 m 460 1124 l 571 1124 l 408 829 l 325 829 l 460 1124 z "},"ÿ":{"ha":733,"x_min":25,"x_max":708,"o":"m 25 0 m 708 733 l 389 -103 q 275 -286 342 -229 q 111 -343 208 -343 q 25 -328 67 -343 l 40 -243 q 107 -254 76 -254 q 221 -212 175 -254 q 310 -57 267 -171 l 329 -6 l 42 733 l 150 733 l 379 129 l 603 733 l 708 733 m 239 983 q 192 1003 213 983 q 172 1049 172 1022 q 192 1097 172 1076 q 239 1117 211 1117 q 287 1097 267 1117 q 307 1049 307 1076 q 287 1003 307 1022 q 239 983 267 983 m 508 983 q 462 1003 482 983 q 442 1049 442 1022 q 461 1097 442 1076 q 508 1117 481 1117 q 556 1097 536 1117 q 576 1049 576 1076 q 556 1003 576 1022 q 508 983 536 983 z "},"z":{"ha":696,"x_min":64,"x_max":632,"o":"m 632 81 l 632 0 l 64 0 l 64 54 l 496 654 l 79 654 l 79 733 l 618 733 l 618 674 l 192 81 l 632 81 z "},"ź":{"ha":696,"x_min":64,"x_max":632,"o":"m 64 0 m 632 81 l 632 0 l 64 0 l 64 54 l 496 654 l 79 654 l 79 733 l 618 733 l 618 674 l 192 81 l 632 81 m 435 1124 l 546 1124 l 383 829 l 300 829 l 435 1124 z "},"ž":{"ha":696,"x_min":64,"x_max":632,"o":"m 64 0 m 632 81 l 632 0 l 64 0 l 64 54 l 496 654 l 79 654 l 79 733 l 618 733 l 618 674 l 192 81 l 632 81 m 547 1121 l 400 829 l 299 829 l 150 1121 l 233 1121 l 349 907 l 465 1121 l 547 1121 z "},"ż":{"ha":696,"x_min":64,"x_max":632,"o":"m 64 0 m 632 81 l 632 0 l 64 0 l 64 54 l 496 654 l 79 654 l 79 733 l 618 733 l 618 674 l 192 81 l 632 81 m 349 983 q 302 1003 322 983 q 282 1049 282 1022 q 301 1097 282 1076 q 349 1117 321 1117 q 397 1097 376 1117 q 417 1049 417 1076 q 397 1003 417 1022 q 349 983 376 983 z "},"ﬁ":{"ha":940,"x_min":89,"x_max":814,"o":"m 89 0 m 311 733 l 533 733 l 533 654 l 311 654 l 311 0 l 207 0 l 207 654 l 89 654 l 89 699 l 207 728 l 207 808 q 268 1034 207 956 q 456 1113 329 1113 q 536 1101 494 1113 l 521 1021 q 463 1028 490 1028 q 347 974 382 1028 q 311 806 311 919 l 311 733 m 744 983 q 696 1003 717 983 q 675 1051 675 1024 q 696 1101 675 1081 q 744 1122 717 1122 q 794 1101 774 1122 q 814 1051 814 1081 q 794 1003 814 1024 q 744 983 774 983 m 692 733 l 796 733 l 796 0 l 692 0 l 692 733 z "},"ﬂ":{"ha":921,"x_min":89,"x_max":786,"o":"m 89 0 m 311 733 l 533 733 l 533 654 l 311 654 l 311 0 l 207 0 l 207 654 l 89 654 l 89 699 l 207 728 l 207 808 q 268 1034 207 956 q 456 1113 329 1113 q 536 1101 494 1113 l 521 1021 q 463 1028 490 1028 q 347 974 382 1028 q 311 806 311 919 l 311 733 m 682 1111 l 786 1111 l 786 0 l 682 0 l 682 1111 z "},"ª":{"ha":475,"x_min":42,"x_max":456,"o":"m 42 590 q 72 674 42 642 q 160 729 103 707 q 313 776 217 751 l 313 810 q 297 875 313 850 q 238 900 282 900 q 161 883 196 900 q 83 819 126 865 l 42 871 q 247 969 138 969 q 365 930 329 969 q 400 803 400 890 l 400 588 q 421 558 400 558 q 447 567 433 558 l 456 500 q 394 488 424 488 q 314 550 325 488 q 163 486 233 486 q 76 516 110 486 q 42 590 42 546 m 129 597 q 144 565 129 576 q 182 553 160 553 q 240 568 210 553 q 313 615 271 583 l 313 717 q 170 665 211 690 q 129 597 129 639 m 43 360 l 440 360 l 440 286 l 43 286 l 43 360 z "},"º":{"ha":514,"x_min":39,"x_max":474,"o":"m 39 729 q 95 903 39 832 q 256 974 151 974 q 417 903 361 974 q 474 732 474 833 q 417 558 474 628 q 256 488 361 488 q 95 558 151 488 q 39 729 39 628 m 386 731 q 353 856 386 808 q 257 904 319 904 q 163 856 196 904 q 129 731 129 808 q 163 603 129 651 q 257 556 196 556 q 353 603 319 556 q 386 731 386 651 m 454 360 l 454 286 l 58 286 l 58 360 l 454 360 z "},"Ω":{"ha":1092,"x_min":79,"x_max":1013,"o":"m 1008 519 q 944 288 1008 394 q 764 86 881 182 l 764 83 l 1013 83 l 1013 0 l 618 0 l 618 68 q 832 293 764 186 q 900 521 900 400 q 856 704 900 622 q 731 833 811 786 q 546 881 650 881 q 361 833 442 881 q 236 704 281 786 q 192 521 192 622 q 260 293 192 400 q 474 68 328 186 l 474 0 l 79 0 l 79 83 l 329 83 l 329 86 q 147 289 211 183 q 83 519 83 394 q 140 747 83 646 q 302 907 197 849 q 546 965 407 965 q 791 907 686 965 q 952 747 896 849 q 1008 519 1008 646 z "},"μ":{"ha":832,"x_min":133,"x_max":697,"o":"m 697 733 l 697 0 l 615 0 l 600 79 q 339 -26 464 -26 q 215 10 258 -26 l 238 -329 l 133 -329 l 133 733 l 238 733 l 238 219 q 266 97 238 135 q 363 60 294 60 q 472 85 417 60 q 593 163 528 110 l 593 733 l 697 733 z "},"π":{"ha":908,"x_min":46,"x_max":849,"o":"m 849 17 q 719 -19 783 -19 q 574 142 574 -19 l 574 654 l 328 654 l 265 0 l 161 0 l 224 654 l 46 654 l 46 733 l 829 733 l 829 654 l 678 654 l 678 150 q 692 86 678 107 q 740 65 707 65 q 781 72 764 65 q 828 93 799 78 l 849 17 z "},"ॲ":{"ha":1063,"x_min":0,"x_max":1151,"o":"m 0 0 m 1063 810 l 906 810 l 906 0 l 808 0 l 808 407 q 743 380 785 392 q 658 368 701 368 q 585 376 621 368 q 610 272 610 326 q 578 158 610 208 q 488 78 546 107 q 354 49 429 49 q 0 343 121 49 l 67 392 q 190 199 118 267 q 353 131 261 132 q 469 174 425 132 q 513 279 513 215 q 485 374 513 332 q 406 454 458 417 q 275 432 343 436 l 254 515 q 489 682 489 522 q 449 788 489 744 q 343 831 408 831 q 158 757 253 831 l 114 832 q 219 890 160 868 q 343 913 278 913 q 463 885 408 913 q 552 804 518 858 q 586 672 586 750 q 488 492 586 557 q 488 492 488 492 q 489 490 489 492 q 569 463 522 475 q 658 451 617 451 q 808 499 747 451 l 808 810 l 621 810 l 621 892 l 1063 892 l 1063 810 m 857 1019 q 683 1069 760 1019 q 561 1194 606 1118 l 625 1242 q 857 1100 715 1100 q 1089 1242 999 1100 l 1151 1194 q 1030 1069 1107 1118 q 857 1019 953 1019 z "},"ऄ":{"ha":1063,"x_min":0,"x_max":1063,"o":"m 1063 810 l 906 810 l 906 0 l 808 0 l 808 407 q 743 380 785 392 q 658 368 701 368 q 585 376 621 368 q 610 272 610 326 q 578 158 610 208 q 488 78 546 107 q 354 49 429 49 q 0 343 121 49 l 67 392 q 190 199 118 267 q 353 131 261 132 q 469 174 425 132 q 513 279 513 215 q 485 374 513 332 q 406 454 458 417 q 275 432 343 436 l 254 515 q 489 682 489 522 q 449 788 489 744 q 343 831 408 831 q 158 757 253 831 l 114 832 q 219 890 160 868 q 343 913 278 913 q 463 885 408 913 q 552 804 518 858 q 586 672 586 750 q 488 492 586 557 q 488 492 488 492 q 489 490 489 492 q 569 463 522 475 q 658 451 617 451 q 808 499 747 451 l 808 810 l 621 810 l 621 892 l 819 892 q 826 944 826 917 q 790 1047 826 1006 q 669 1089 754 1089 q 519 1081 619 1089 q 379 1072 422 1072 q 242 1110 290 1072 q 193 1218 193 1147 q 203 1281 193 1249 q 231 1338 214 1313 l 317 1314 q 289 1229 289 1271 q 311 1174 289 1192 q 385 1156 333 1156 q 528 1164 431 1156 q 669 1172 625 1172 q 857 1109 792 1172 q 922 943 922 1046 q 917 892 922 925 l 1063 892 l 1063 810 z "},"अ":{"ha":1063,"x_min":0,"x_max":1063,"o":"m 1063 810 l 906 810 l 906 0 l 808 0 l 808 407 q 743 380 785 392 q 658 368 701 368 q 585 376 621 368 q 610 272 610 326 q 578 158 610 208 q 488 78 546 107 q 354 49 429 49 q 0 343 121 49 l 67 392 q 190 199 118 267 q 353 131 261 132 q 469 174 425 132 q 513 279 513 215 q 485 374 513 332 q 406 454 458 417 q 275 432 343 436 l 254 515 q 489 682 489 522 q 449 788 489 744 q 343 831 408 831 q 158 757 253 831 l 114 832 q 219 890 160 868 q 343 913 278 913 q 463 885 408 913 q 552 804 518 858 q 586 672 586 750 q 488 492 586 557 q 488 492 488 492 q 489 490 489 492 q 569 463 522 475 q 658 451 617 451 q 808 499 747 451 l 808 810 l 621 810 l 621 892 l 1063 892 l 1063 810 z "},"आ":{"ha":1474,"x_min":0,"x_max":1474,"o":"m 1474 810 l 1317 810 l 1317 0 l 1219 0 l 1219 810 l 906 810 l 906 0 l 808 0 l 808 407 q 743 380 785 392 q 658 368 701 368 q 585 376 621 368 q 610 272 610 326 q 578 158 610 208 q 488 78 546 107 q 354 49 429 49 q 0 343 121 49 l 67 392 q 190 199 118 267 q 353 131 261 132 q 469 174 425 132 q 513 279 513 215 q 485 374 513 332 q 406 454 458 417 q 275 432 343 436 l 254 515 q 489 682 489 522 q 449 788 489 744 q 343 831 408 831 q 158 757 253 831 l 114 832 q 219 890 160 868 q 343 913 278 913 q 463 885 408 913 q 552 804 518 858 q 586 672 586 750 q 488 492 586 557 q 488 492 488 492 q 489 490 489 492 q 569 463 522 475 q 658 451 617 451 q 808 499 747 451 l 808 810 l 621 810 l 621 892 l 1474 892 l 1474 810 z "},"इ":{"ha":679,"x_min":-28,"x_max":679,"o":"m 271 593 q 208 570 231 593 q 186 507 186 547 q 218 436 186 463 q 304 410 250 410 q 409 424 353 410 q 510 464 465 439 q 582 376 553 428 q 611 267 611 324 q 574 156 611 206 q 476 76 538 106 q 339 40 414 46 l 468 -153 l 386 -201 l 242 44 q 136 85 176 56 q 96 153 96 114 q 125 214 96 190 q 207 239 154 238 l 283 125 q 304 124 290 124 q 413 143 365 124 q 488 196 461 163 q 514 268 514 229 q 475 360 514 317 q 307 326 389 326 q 144 378 199 326 q 89 513 89 431 q 135 628 89 582 q 264 675 181 675 l 436 675 l 436 810 l -28 810 l -28 892 l 679 892 l 679 810 l 532 810 l 532 593 l 271 593 z "},"ई":{"ha":679,"x_min":-28,"x_max":690,"o":"m 381 1118 q 521 892 381 1003 l 679 892 l 679 810 l 532 810 l 532 593 l 271 593 q 208 570 231 593 q 186 507 186 547 q 218 436 186 463 q 304 410 250 410 q 409 424 353 410 q 510 464 465 439 q 582 376 553 428 q 611 267 611 324 q 574 156 611 206 q 476 76 538 106 q 339 40 414 46 l 468 -153 l 386 -201 l 242 44 q 136 85 176 56 q 96 153 96 114 q 125 214 96 190 q 207 239 154 238 l 283 125 q 304 124 290 124 q 413 143 365 124 q 488 196 461 163 q 514 268 514 229 q 475 360 514 317 q 307 326 389 326 q 144 378 199 326 q 89 513 89 431 q 135 628 89 582 q 264 675 181 675 l 436 675 l 436 810 l -28 810 l -28 892 l 403 892 q 314 1002 344 946 q 283 1126 283 1058 q 343 1277 283 1218 q 504 1336 403 1336 q 603 1317 558 1336 q 690 1263 649 1297 l 653 1193 q 585 1238 618 1222 q 510 1254 551 1254 q 418 1217 456 1254 q 381 1118 381 1181 z "},"उ":{"ha":782,"x_min":-28,"x_max":782,"o":"m 782 810 l 603 810 q 665 649 665 736 q 637 558 665 599 q 553 488 608 517 q 645 383 610 439 q 681 258 681 328 q 649 136 681 190 q 558 51 617 82 q 422 21 499 21 q 210 103 299 21 q 57 344 121 186 l 124 393 q 421 103 239 104 q 539 149 494 104 q 583 265 583 194 q 553 367 583 321 q 464 454 522 413 q 299 432 396 436 l 279 515 q 568 658 568 524 q 475 810 568 749 l -28 810 l -28 892 l 782 892 l 782 810 z "},"ऊ":{"ha":1125,"x_min":-28,"x_max":1125,"o":"m 603 810 q 665 649 665 736 q 637 558 665 599 q 553 488 608 517 q 628 410 601 446 q 751 508 699 474 q 871 542 804 542 q 1011 483 960 542 q 1063 335 1063 424 q 1024 190 1063 258 q 921 71 986 122 l 844 135 q 933 229 900 176 q 965 332 965 282 q 939 425 965 392 q 869 458 913 458 q 774 425 822 458 q 668 332 726 392 q 681 258 681 299 q 649 136 681 190 q 558 51 617 82 q 422 21 499 21 q 210 103 299 21 q 57 344 121 186 l 124 393 q 421 103 239 104 q 539 149 494 104 q 583 265 583 194 q 553 367 583 321 q 464 454 522 413 q 299 432 396 436 l 279 515 q 568 658 568 524 q 475 810 568 749 l -28 810 l -28 892 l 1125 892 l 1125 810 l 603 810 z "},"ऋ":{"ha":1165,"x_min":-28,"x_max":1165,"o":"m 633 810 l 633 461 q 682 456 656 456 q 824 490 750 456 l 769 603 q 817 649 789 632 q 875 667 846 667 q 944 638 919 667 q 969 569 969 608 q 922 465 969 513 l 1038 233 q 896 92 896 168 q 922 27 896 53 q 994 1 947 1 q 1056 11 1026 1 q 1107 38 1086 21 l 1149 -35 q 992 -81 1082 -81 q 856 -33 908 -81 q 804 88 804 15 q 835 181 804 139 q 931 265 865 224 l 857 418 q 768 384 815 396 q 679 372 721 372 q 633 378 651 372 l 633 0 l 538 0 l 538 331 l 169 32 l 104 110 l 532 433 q 397 524 454 499 q 285 550 340 550 q 86 497 199 550 l 49 581 q 285 633 165 633 q 404 611 346 633 q 538 532 463 589 l 538 810 l -28 810 l -28 892 l 1165 892 l 1165 810 l 633 810 z "},"ॠ":{"ha":1165,"x_min":-28,"x_max":1275,"o":"m 1275 -258 q 1184 -327 1233 -303 q 1068 -351 1135 -351 q 939 -308 990 -351 q 888 -190 888 -264 q 928 -72 888 -131 q 838 -12 871 -56 q 804 88 804 31 q 835 181 804 139 q 931 265 865 224 l 857 418 q 768 384 815 396 q 679 372 721 372 q 633 378 651 372 l 633 0 l 538 0 l 538 331 l 169 32 l 104 110 l 532 433 q 397 524 454 499 q 285 550 340 550 q 86 497 199 550 l 49 581 q 285 633 165 633 q 404 611 346 633 q 538 532 463 589 l 538 810 l -28 810 l -28 892 l 1165 892 l 1165 810 l 633 810 l 633 461 q 682 456 656 456 q 824 490 750 456 l 769 603 q 817 649 789 632 q 875 667 846 667 q 944 638 919 667 q 969 569 969 608 q 922 465 969 513 l 1038 233 q 896 92 896 168 q 922 27 896 53 q 994 1 947 1 q 1056 11 1026 1 q 1107 38 1086 21 l 1149 -35 q 1024 -79 1094 -71 q 979 -190 979 -128 q 1003 -248 979 -226 q 1072 -269 1028 -269 q 1229 -190 1160 -269 l 1275 -258 z "},"ऌ":{"ha":1000,"x_min":-28,"x_max":1000,"o":"m 731 810 l 731 589 q 857 519 811 576 q 903 385 903 463 q 871 272 903 322 q 781 160 839 221 q 712 77 733 108 q 690 11 690 46 q 713 -47 690 -25 q 775 -68 736 -68 q 943 15 869 -68 l 989 -53 q 895 -126 946 -100 q 775 -151 844 -151 q 647 -108 699 -151 q 594 10 594 -65 q 620 101 594 61 q 700 197 646 140 q 779 291 753 251 q 806 382 806 331 q 774 477 806 444 q 686 510 742 510 q 567 445 610 510 q 518 269 524 381 l 421 286 q 450 422 426 364 q 371 505 411 476 q 283 533 331 533 q 203 496 235 533 q 171 386 171 458 q 228 197 171 285 q 389 21 285 108 l 329 -40 q 140 170 207 64 q 72 397 72 276 q 130 560 72 503 q 279 618 188 618 q 398 583 344 618 q 490 497 451 549 q 633 589 546 571 l 633 810 l -28 810 l -28 892 l 1000 892 l 1000 810 l 731 810 z "},"ॡ":{"ha":1000,"x_min":-28,"x_max":1147,"o":"m 1147 -274 q 1056 -343 1106 -318 q 940 -368 1007 -368 q 811 -324 863 -368 q 760 -207 760 -281 q 768 -151 760 -179 q 644 -106 694 -149 q 594 10 594 -62 q 620 101 594 61 q 700 197 646 140 q 779 291 753 251 q 806 382 806 331 q 774 477 806 444 q 686 510 742 510 q 567 445 610 510 q 518 269 524 381 l 421 286 q 450 422 426 364 q 371 505 411 476 q 283 533 331 533 q 203 496 235 533 q 171 386 171 458 q 228 197 171 285 q 389 21 285 108 l 329 -40 q 140 170 207 64 q 72 397 72 276 q 130 560 72 503 q 279 618 188 618 q 398 583 344 618 q 490 497 451 549 q 633 589 546 571 l 633 810 l -28 810 l -28 892 l 1000 892 l 1000 810 l 731 810 l 731 589 q 857 519 811 576 q 903 385 903 463 q 871 272 903 322 q 781 160 839 221 q 712 77 733 108 q 690 11 690 46 q 713 -47 690 -25 q 775 -68 736 -68 q 943 15 869 -68 l 989 -53 q 868 -136 932 -115 q 851 -206 851 -165 q 876 -264 851 -243 q 944 -285 900 -285 q 1101 -206 1035 -285 l 1147 -274 z "},"ऍ":{"ha":826,"x_min":-29,"x_max":875,"o":"m 0 0 m 774 -24 q 853 -97 831 -62 q 875 -167 875 -132 q 863 -226 875 -199 q 824 -285 851 -254 l 735 -237 q 768 -171 768 -204 q 755 -128 768 -149 q 700 -78 742 -107 l 286 201 q 181 302 210 254 q 151 426 151 350 l 151 810 l -29 810 l -29 892 l 826 892 l 826 810 l 688 810 l 688 471 q 637 342 688 392 q 529 271 586 292 l 467 343 q 556 398 526 368 q 586 483 586 428 l 586 810 l 253 810 l 253 431 q 274 335 253 368 q 343 268 294 301 l 774 -24 m 415 1019 q 241 1069 318 1019 q 119 1194 164 1118 l 183 1242 q 415 1100 274 1100 q 647 1242 557 1100 l 710 1194 q 588 1069 665 1118 q 415 1019 511 1019 z "},"ऎ":{"ha":826,"x_min":-33,"x_max":875,"o":"m 774 -24 q 853 -97 831 -62 q 875 -167 875 -132 q 863 -226 875 -199 q 824 -285 851 -254 l 735 -237 q 768 -171 768 -204 q 755 -128 768 -149 q 700 -78 742 -107 l 286 201 q 181 302 210 254 q 151 426 151 350 l 151 810 l -29 810 l -29 892 l 593 892 q 600 944 600 917 q 564 1047 600 1006 q 443 1089 528 1089 q 293 1081 393 1089 q 153 1072 196 1072 q 15 1110 64 1072 q -33 1218 -33 1147 q -23 1281 -33 1249 q 4 1338 -12 1313 l 90 1314 q 63 1229 63 1271 q 85 1174 63 1192 q 158 1156 107 1156 q 301 1164 204 1156 q 443 1172 399 1172 q 631 1109 565 1172 q 696 943 696 1046 q 689 892 696 919 l 826 892 l 826 810 l 688 810 l 688 471 q 637 342 688 392 q 529 271 586 292 l 467 343 q 556 398 526 368 q 586 483 586 428 l 586 810 l 253 810 l 253 431 q 274 335 253 368 q 343 268 294 301 l 774 -24 z "},"ए":{"ha":826,"x_min":-29,"x_max":875,"o":"m 774 -24 q 853 -97 831 -62 q 875 -167 875 -132 q 863 -226 875 -199 q 824 -285 851 -254 l 735 -237 q 768 -171 768 -204 q 755 -128 768 -149 q 700 -78 742 -107 l 286 201 q 181 302 210 254 q 151 426 151 350 l 151 810 l -29 810 l -29 892 l 826 892 l 826 810 l 688 810 l 688 471 q 637 342 688 392 q 529 271 586 292 l 467 343 q 556 398 526 368 q 586 483 586 428 l 586 810 l 253 810 l 253 431 q 274 335 253 368 q 343 268 294 301 l 774 -24 z "},"ऐ":{"ha":826,"x_min":-29,"x_max":875,"o":"m 774 -24 q 853 -97 831 -62 q 875 -167 875 -132 q 863 -226 875 -199 q 824 -285 851 -254 l 735 -237 q 768 -171 768 -204 q 755 -128 768 -149 q 700 -78 742 -107 l 286 201 q 181 302 210 254 q 151 426 151 350 l 151 810 l -29 810 l -29 892 l 579 892 l 526 1007 q 453 1153 483 1101 q 388 1233 424 1204 q 306 1263 353 1263 q 210 1243 254 1263 l 192 1322 q 304 1350 240 1350 q 422 1316 372 1350 q 513 1216 471 1282 q 611 1029 554 1150 l 676 892 l 826 892 l 826 810 l 688 810 l 688 471 q 637 342 688 392 q 529 271 586 292 l 467 343 q 556 398 526 368 q 586 483 586 428 l 586 810 l 253 810 l 253 431 q 274 335 253 368 q 343 268 294 301 l 774 -24 z "},"ऑ":{"ha":1474,"x_min":0,"x_max":1474,"o":"m 0 0 m 1474 810 l 1317 810 l 1317 0 l 1219 0 l 1219 810 l 906 810 l 906 0 l 808 0 l 808 407 q 743 380 785 392 q 658 368 701 368 q 585 376 621 368 q 610 272 610 326 q 578 158 610 208 q 488 78 546 107 q 354 49 429 49 q 0 343 121 49 l 67 392 q 190 199 118 267 q 353 131 261 132 q 469 174 425 132 q 513 279 513 215 q 485 374 513 332 q 406 454 458 417 q 275 432 343 436 l 254 515 q 489 682 489 522 q 449 788 489 744 q 343 831 408 831 q 158 757 253 831 l 114 832 q 219 890 160 868 q 343 913 278 913 q 463 885 408 913 q 552 804 518 858 q 586 672 586 750 q 488 492 586 557 q 488 492 488 492 q 489 490 489 492 q 569 463 522 475 q 658 451 617 451 q 808 499 747 451 l 808 810 l 621 810 l 621 892 l 1474 892 l 1474 810 m 940 1019 q 766 1069 843 1019 q 644 1194 689 1118 l 708 1242 q 940 1100 799 1100 q 1172 1242 1082 1100 l 1235 1194 q 1113 1069 1190 1118 q 940 1019 1036 1019 z "},"ऒ":{"ha":1474,"x_min":0,"x_max":1474,"o":"m 1474 810 l 1317 810 l 1317 0 l 1219 0 l 1219 810 l 906 810 l 906 0 l 808 0 l 808 407 q 743 380 785 392 q 658 368 701 368 q 585 376 621 368 q 610 272 610 326 q 578 158 610 208 q 488 78 546 107 q 354 49 429 49 q 0 343 121 49 l 67 392 q 190 199 118 267 q 353 131 261 132 q 469 174 425 132 q 513 279 513 215 q 485 374 513 332 q 406 454 458 417 q 275 432 343 436 l 254 515 q 489 682 489 522 q 449 788 489 744 q 343 831 408 831 q 158 757 253 831 l 114 832 q 219 890 160 868 q 343 913 278 913 q 463 885 408 913 q 552 804 518 858 q 586 672 586 750 q 488 492 586 557 q 488 492 488 492 q 489 490 489 492 q 569 463 522 475 q 658 451 617 451 q 808 499 747 451 l 808 810 l 621 810 l 621 892 l 1225 892 q 1232 944 1232 917 q 1196 1047 1232 1006 q 1075 1089 1160 1089 q 925 1081 1025 1089 q 785 1072 828 1072 q 647 1110 696 1072 q 599 1218 599 1147 q 609 1281 599 1249 q 636 1338 619 1313 l 722 1314 q 694 1229 694 1271 q 717 1174 694 1192 q 790 1156 739 1156 q 933 1164 836 1156 q 1075 1172 1031 1172 q 1263 1109 1197 1172 q 1328 943 1328 1046 q 1321 892 1328 919 l 1474 892 l 1474 810 z "},"ओ":{"ha":1474,"x_min":0,"x_max":1474,"o":"m 1474 810 l 1317 810 l 1317 0 l 1219 0 l 1219 810 l 906 810 l 906 0 l 808 0 l 808 407 q 743 380 785 392 q 658 368 701 368 q 585 376 621 368 q 610 272 610 326 q 578 158 610 208 q 488 78 546 107 q 354 49 429 49 q 0 343 121 49 l 67 392 q 190 199 118 267 q 353 131 261 132 q 469 174 425 132 q 513 279 513 215 q 485 374 513 332 q 406 454 458 417 q 275 432 343 436 l 254 515 q 489 682 489 522 q 449 788 489 744 q 343 831 408 831 q 158 757 253 831 l 114 832 q 219 890 160 868 q 343 913 278 913 q 463 885 408 913 q 552 804 518 858 q 586 672 586 750 q 488 492 586 557 q 488 492 488 492 q 489 490 489 492 q 569 463 522 475 q 658 451 617 451 q 808 499 747 451 l 808 810 l 621 810 l 621 892 l 1210 892 l 1157 1007 q 1083 1154 1113 1104 q 1019 1233 1054 1204 q 936 1263 983 1263 q 840 1243 885 1263 l 822 1322 q 935 1350 871 1350 q 1051 1317 1003 1350 q 1142 1217 1100 1283 q 1242 1029 1183 1151 l 1307 892 l 1474 892 l 1474 810 z "},"औ":{"ha":1474,"x_min":0,"x_max":1474,"o":"m 1474 810 l 1317 810 l 1317 0 l 1219 0 l 1219 810 l 906 810 l 906 0 l 808 0 l 808 407 q 743 380 785 392 q 658 368 701 368 q 585 376 621 368 q 610 272 610 326 q 578 158 610 208 q 488 78 546 107 q 354 49 429 49 q 0 343 121 49 l 67 392 q 190 199 118 267 q 353 131 261 132 q 469 174 425 132 q 513 279 513 215 q 485 374 513 332 q 406 454 458 417 q 275 432 343 436 l 254 515 q 489 682 489 522 q 449 788 489 744 q 343 831 408 831 q 158 757 253 831 l 114 832 q 219 890 160 868 q 343 913 278 913 q 463 885 408 913 q 552 804 518 858 q 586 672 586 750 q 488 492 586 557 q 488 492 488 492 q 489 490 489 492 q 569 463 522 475 q 658 451 617 451 q 808 499 747 451 l 808 810 l 621 810 l 621 892 l 1165 892 l 1115 976 q 1035 1077 1075 1046 q 944 1108 996 1108 q 895 1104 917 1108 q 849 1089 874 1100 l 831 1168 q 943 1194 882 1194 q 1078 1142 1017 1194 q 1189 1001 1140 1090 l 1250 892 l 1254 892 l 1206 1015 q 1118 1219 1153 1149 q 1042 1328 1083 1289 q 944 1367 1000 1367 q 853 1347 897 1367 l 835 1426 q 949 1454 883 1454 q 1076 1411 1022 1454 q 1178 1279 1131 1368 q 1285 1029 1225 1190 l 1338 892 l 1474 892 l 1474 810 z "},"ॳ":{"ha":1063,"x_min":0,"x_max":1063,"o":"m 1063 810 l 906 810 l 906 0 l 808 0 l 808 407 q 743 380 785 392 q 658 368 701 368 q 585 376 621 368 q 610 272 610 326 q 578 158 610 208 q 488 78 546 107 q 354 49 429 49 q 0 343 121 49 l 67 392 q 190 199 118 267 q 353 131 261 132 q 469 174 425 132 q 513 279 513 215 q 485 374 513 332 q 406 454 458 417 q 275 432 343 436 l 254 515 q 489 682 489 522 q 449 788 489 744 q 343 831 408 831 q 158 757 253 831 l 114 832 q 219 890 160 868 q 343 913 278 913 q 463 885 408 913 q 552 804 518 858 q 586 672 586 750 q 488 492 586 557 q 488 492 488 492 q 489 490 489 492 q 569 463 522 475 q 658 451 617 451 q 808 499 747 451 l 808 810 l 621 810 l 621 892 l 808 892 l 808 1258 l 910 1258 l 910 892 l 1063 892 l 1063 810 z "},"ॴ":{"ha":1474,"x_min":0,"x_max":1474,"o":"m 1474 810 l 1317 810 l 1317 0 l 1219 0 l 1219 810 l 906 810 l 906 0 l 808 0 l 808 407 q 743 380 785 392 q 658 368 701 368 q 585 376 621 368 q 610 272 610 326 q 578 158 610 208 q 488 78 546 107 q 354 49 429 49 q 0 343 121 49 l 67 392 q 190 199 118 267 q 353 131 261 132 q 469 174 425 132 q 513 279 513 215 q 485 374 513 332 q 406 454 458 417 q 275 432 343 436 l 254 515 q 489 682 489 522 q 449 788 489 744 q 343 831 408 831 q 158 757 253 831 l 114 832 q 219 890 160 868 q 343 913 278 913 q 463 885 408 913 q 552 804 518 858 q 586 672 586 750 q 488 492 586 557 q 488 492 488 492 q 489 490 489 492 q 569 463 522 475 q 658 451 617 451 q 808 499 747 451 l 808 810 l 621 810 l 621 892 l 1215 892 l 1215 1258 l 1317 1258 l 1317 892 l 1474 892 l 1474 810 z "},"ॶ":{"ha":1063,"x_min":0,"x_max":1167,"o":"m 0 0 m 1063 810 l 906 810 l 906 0 l 808 0 l 808 407 q 743 380 785 392 q 658 368 701 368 q 585 376 621 368 q 610 272 610 326 q 578 158 610 208 q 488 78 546 107 q 354 49 429 49 q 0 343 121 49 l 67 392 q 190 199 118 267 q 353 131 261 132 q 469 174 425 132 q 513 279 513 215 q 485 374 513 332 q 406 454 458 417 q 275 432 343 436 l 254 515 q 489 682 489 522 q 449 788 489 744 q 343 831 408 831 q 158 757 253 831 l 114 832 q 219 890 160 868 q 343 913 278 913 q 463 885 408 913 q 552 804 518 858 q 586 672 586 750 q 488 492 586 557 q 488 492 488 492 q 489 490 489 492 q 569 463 522 475 q 658 451 617 451 q 808 499 747 451 l 808 810 l 621 810 l 621 892 l 1063 892 l 1063 810 m 857 -299 q 673 -248 757 -299 q 546 -119 589 -197 l 611 -72 q 713 -176 651 -136 q 857 -217 774 -217 q 1001 -176 940 -217 q 1101 -72 1063 -136 l 1167 -119 q 1039 -248 1122 -197 q 857 -299 956 -299 z "},"ॷ":{"ha":1063,"x_min":0,"x_max":1167,"o":"m 0 0 m 1063 810 l 906 810 l 906 0 l 808 0 l 808 407 q 743 380 785 392 q 658 368 701 368 q 585 376 621 368 q 610 272 610 326 q 578 158 610 208 q 488 78 546 107 q 354 49 429 49 q 0 343 121 49 l 67 392 q 190 199 118 267 q 353 131 261 132 q 469 174 425 132 q 513 279 513 215 q 485 374 513 332 q 406 454 458 417 q 275 432 343 436 l 254 515 q 489 682 489 522 q 449 788 489 744 q 343 831 408 831 q 158 757 253 831 l 114 832 q 219 890 160 868 q 343 913 278 913 q 463 885 408 913 q 552 804 518 858 q 586 672 586 750 q 488 492 586 557 q 488 492 488 492 q 489 490 489 492 q 569 463 522 475 q 658 451 617 451 q 808 499 747 451 l 808 810 l 621 810 l 621 892 l 1063 892 l 1063 810 m 857 -299 q 673 -248 757 -299 q 546 -119 589 -197 l 611 -72 q 713 -176 651 -136 q 857 -217 774 -217 q 1001 -176 940 -217 q 1101 -72 1063 -136 l 1167 -119 q 1039 -248 1122 -197 q 857 -299 956 -299 m 857 -547 q 673 -497 757 -547 q 546 -368 589 -446 l 611 -321 q 713 -425 651 -385 q 857 -465 774 -465 q 1001 -425 940 -465 q 1101 -321 1063 -385 l 1167 -368 q 1039 -497 1122 -446 q 857 -547 956 -547 z "},"ा":{"ha":411,"x_min":-28,"x_max":411,"o":"m 411 810 l 254 810 l 254 0 l 157 0 l 157 810 l -28 810 l -28 892 l 411 892 l 411 810 z "},"ि":{"ha":411,"x_min":-28,"x_max":1008,"o":"m 346 1275 q 210 1231 263 1275 q 158 1111 158 1188 q 181 999 158 1056 q 242 892 203 942 l 411 892 l 411 810 l 254 810 l 254 0 l 157 0 l 157 810 l -28 810 l -28 892 l 144 892 q 61 1118 61 1015 q 94 1242 61 1188 q 191 1326 128 1296 q 339 1357 254 1357 q 579 1304 461 1357 q 792 1180 697 1251 q 1008 1001 888 1108 l 961 944 q 744 1115 840 1046 q 546 1230 649 1185 q 346 1275 443 1275 z "},"ी":{"ha":411,"x_min":-369,"x_max":411,"o":"m 411 810 l 254 810 l 254 0 l 157 0 l 157 810 l -28 810 l -28 892 l 147 892 q 6 1168 82 1064 q -156 1272 -71 1272 q -243 1241 -212 1272 q -274 1160 -274 1210 q -249 1064 -274 1110 q -192 986 -224 1018 l -253 943 q -335 1044 -300 986 q -369 1171 -369 1103 q -344 1263 -369 1221 q -274 1329 -319 1304 q -167 1354 -228 1354 q 62 1231 -32 1354 q 239 892 156 1107 l 411 892 l 411 810 z "},"ॉ":{"ha":411,"x_min":-90,"x_max":500,"o":"m 0 0 m 411 810 l 254 810 l 254 0 l 157 0 l 157 810 l -28 810 l -28 892 l 411 892 l 411 810 m 206 1019 q 31 1069 108 1019 q -90 1194 -46 1118 l -26 1242 q 206 1100 64 1100 q 438 1242 347 1100 l 500 1194 q 378 1069 456 1118 q 206 1019 301 1019 z "},"ॊ":{"ha":411,"x_min":-464,"x_max":411,"o":"m 411 810 l 254 810 l 254 0 l 157 0 l 157 810 l -28 810 l -28 892 l 163 892 q 169 944 169 917 q 133 1047 169 1006 q 13 1089 97 1089 q -137 1081 -37 1089 q -278 1072 -235 1072 q -415 1110 -367 1072 q -464 1218 -464 1147 q -453 1281 -464 1249 q -426 1338 -443 1313 l -340 1314 q -368 1229 -368 1271 q -346 1174 -368 1192 q -272 1156 -324 1156 q -129 1164 -226 1156 q 13 1172 -32 1172 q 200 1109 135 1172 q 265 943 265 1046 q 258 892 265 919 l 411 892 l 411 810 z "},"ो":{"ha":411,"x_min":-240,"x_max":411,"o":"m 411 810 l 254 810 l 254 0 l 157 0 l 157 810 l -28 810 l -28 892 l 147 892 l 94 1007 q 21 1154 50 1104 q -44 1233 -8 1204 q -126 1263 -79 1263 q -222 1243 -178 1263 l -240 1322 q -128 1350 -192 1350 q -11 1317 -60 1350 q 79 1217 38 1283 q 179 1029 121 1151 l 244 892 l 411 892 l 411 810 z "},"ौ":{"ha":411,"x_min":-232,"x_max":411,"o":"m 411 810 l 254 810 l 254 0 l 157 0 l 157 810 l -28 810 l -28 892 l 103 892 l 53 976 q -27 1077 13 1046 q -118 1108 -67 1108 q -167 1104 -146 1108 q -214 1089 -189 1100 l -232 1168 q -119 1194 -181 1194 q 16 1142 -46 1194 q 126 1001 78 1090 l 188 892 l 192 892 l 143 1015 q 56 1219 90 1149 q -21 1328 21 1289 q -118 1367 -62 1367 q -210 1347 -165 1367 l -228 1426 q -114 1454 -179 1454 q 14 1411 -40 1454 q 115 1279 68 1368 q 222 1029 163 1190 l 275 892 l 411 892 l 411 810 z "},"ऻ":{"ha":411,"x_min":-28,"x_max":411,"o":"m 411 810 l 254 810 l 254 0 l 157 0 l 157 810 l -28 810 l -28 892 l 157 892 l 157 1258 l 258 1258 l 258 892 l 411 892 l 411 810 z "},"क":{"ha":1164,"x_min":-28,"x_max":1164,"o":"m 649 810 l 649 488 q 767 581 713 547 q 886 614 822 614 q 1043 551 986 614 q 1100 393 1100 489 q 1060 238 1100 306 q 947 113 1021 171 l 871 176 q 969 278 936 226 q 1003 390 1003 329 q 970 494 1003 457 q 885 532 938 532 q 773 492 828 532 q 649 375 718 451 l 649 0 l 551 0 l 551 294 q 429 208 489 240 q 301 175 369 175 q 176 205 229 175 q 97 283 124 235 q 69 389 69 332 q 101 510 69 456 q 188 594 133 564 q 306 624 242 624 q 551 511 436 624 l 551 810 l -28 810 l -28 892 l 1164 892 l 1164 810 l 649 810 m 306 258 q 427 297 364 258 q 551 400 490 336 l 551 404 q 319 539 436 539 q 210 497 254 539 q 167 393 167 456 q 206 297 167 335 q 306 258 244 258 z "},"ख":{"ha":1131,"x_min":-28,"x_max":1131,"o":"m 1131 810 l 978 810 l 978 -15 l 881 -15 l 881 151 q 721 59 813 93 q 535 25 629 25 q 291 88 393 25 q 136 267 189 151 q 85 539 83 383 l 176 549 q 178 483 176 504 q 214 472 193 472 q 266 498 246 472 q 286 582 286 524 q 274 693 286 628 q 244 810 263 758 l -28 810 l -28 892 l 1131 892 l 1131 810 m 881 810 l 343 810 q 383 576 383 675 q 339 435 383 483 q 233 388 294 388 q 190 396 210 388 q 310 182 221 256 q 535 108 400 108 q 719 146 626 108 q 881 253 811 183 l 881 357 q 770 281 824 310 q 653 253 717 253 q 542 281 589 253 q 472 353 496 308 q 447 450 447 399 q 476 564 447 514 q 554 641 506 614 q 658 668 603 668 q 782 638 722 668 q 881 567 842 607 l 881 810 m 878 460 q 781 554 835 519 q 664 589 728 589 q 576 551 611 589 q 540 456 540 513 q 574 367 540 403 q 658 332 607 332 q 769 368 711 332 q 878 460 828 404 z "},"ग":{"ha":851,"x_min":-28,"x_max":851,"o":"m 851 810 l 694 810 l 694 0 l 597 0 l 597 810 l 314 810 l 314 406 q 289 312 314 344 q 221 279 264 279 q 135 313 169 279 q 101 400 101 347 q 111 456 101 428 l 217 456 l 217 810 l -28 810 l -28 892 l 851 892 l 851 810 z "},"घ":{"ha":938,"x_min":-28,"x_max":938,"o":"m 938 810 l 781 810 l 781 0 l 685 0 l 685 290 q 426 185 558 185 q 260 244 325 185 q 196 400 196 303 q 258 538 196 482 q 135 631 172 583 q 99 738 99 679 q 113 810 99 772 l -28 810 l -28 892 l 938 892 l 938 810 m 685 810 l 222 810 q 197 733 197 779 q 227 657 197 692 q 338 585 257 622 q 414 597 375 597 q 500 582 467 597 l 488 506 q 425 514 464 514 q 328 482 364 514 q 293 399 293 450 q 331 300 293 332 q 425 268 369 268 q 557 301 494 268 q 685 393 619 333 l 685 810 z "},"ङ":{"ha":971,"x_min":-29,"x_max":971,"o":"m 971 810 l 638 810 l 638 567 l 325 567 q 259 544 282 567 q 236 483 236 522 q 272 410 236 436 q 379 383 307 383 q 513 397 446 383 q 635 439 579 410 q 713 349 681 404 q 744 235 744 294 q 664 74 744 135 q 439 13 583 13 q 227 68 325 13 q 50 226 129 124 l 108 286 q 258 144 175 194 q 432 94 342 94 q 592 133 536 94 q 647 233 647 172 q 634 288 647 260 q 600 338 621 315 q 382 300 499 300 q 197 353 256 300 q 139 488 139 406 q 186 602 139 557 q 319 647 233 647 l 542 647 l 542 810 l -29 810 l -29 892 l 971 892 l 971 810 m 861 565 q 919 541 894 565 q 943 483 943 517 q 919 426 943 450 q 861 401 894 401 q 803 426 828 401 q 779 483 779 450 q 803 541 779 517 q 861 565 828 565 z "},"च":{"ha":907,"x_min":-28,"x_max":907,"o":"m 907 810 l 750 810 l 750 0 l 653 0 l 653 294 q 520 199 590 235 q 381 163 450 163 q 220 218 281 163 q 160 358 160 274 q 260 528 160 461 l 60 528 l 60 610 l 476 610 l 476 536 l 478 535 q 321 476 385 524 q 257 358 257 428 q 288 276 257 307 q 379 244 319 244 q 653 397 506 244 l 653 810 l -28 810 l -28 892 l 907 892 l 907 810 z "},"छ":{"ha":1040,"x_min":-28,"x_max":1040,"o":"m 751 810 l 751 660 q 873 581 826 642 q 919 424 919 521 q 872 260 919 339 q 970 174 935 221 q 1006 61 1006 126 q 894 -201 1006 -65 l 810 -149 q 884 -47 854 -103 q 914 64 914 10 q 825 192 914 133 q 635 48 750 103 q 404 -7 521 -7 q 223 51 290 -7 q 156 207 156 108 q 196 321 156 272 q 99 396 132 356 q 65 490 65 436 q 122 613 65 565 q 269 661 178 661 q 375 640 329 661 l 361 561 q 274 578 325 578 q 192 553 222 578 q 163 486 163 528 q 184 424 163 451 q 257 372 206 397 q 372 403 311 403 q 458 388 425 403 l 446 311 q 379 319 421 319 q 287 288 321 319 q 253 204 253 256 q 294 106 253 138 q 400 75 335 75 q 590 121 499 75 q 744 239 682 167 q 621 311 667 281 q 542 388 575 342 q 510 499 510 435 q 550 611 510 568 q 654 664 590 654 l 654 810 l -28 810 l -28 892 l 1040 892 l 1040 810 l 751 810 m 822 426 q 787 544 822 503 q 697 585 751 585 q 634 563 661 585 q 607 493 607 540 q 631 419 607 451 q 692 364 656 388 q 790 307 728 340 q 822 426 822 367 z "},"ज":{"ha":1010,"x_min":-28,"x_max":1010,"o":"m 1010 810 l 853 810 l 853 0 l 756 0 l 756 518 l 479 518 q 618 314 618 426 q 560 184 618 233 q 421 135 503 135 q 185 244 276 135 q 31 568 94 354 l 108 600 q 238 316 163 415 q 406 217 313 217 q 491 244 461 217 q 521 318 521 272 q 472 427 521 376 q 325 540 424 478 l 349 600 l 756 600 l 756 810 l -28 810 l -28 892 l 1010 892 l 1010 810 z "},"झ":{"ha":1063,"x_min":-28,"x_max":1064,"o":"m 1064 810 l 906 810 l 906 0 l 808 0 l 808 326 q 744 302 782 313 q 667 292 706 292 q 608 296 638 292 q 611 267 611 276 q 574 156 611 206 q 476 76 538 106 q 339 40 414 46 l 468 -153 l 386 -201 l 242 44 q 136 85 176 56 q 96 153 96 114 q 125 214 96 190 q 207 239 154 238 l 283 125 q 304 124 290 124 q 413 143 365 124 q 488 196 461 163 q 514 268 514 229 q 475 360 514 317 q 307 326 389 326 q 144 378 199 326 q 89 513 89 431 q 135 628 89 582 q 264 675 181 675 l 436 675 l 436 810 l -28 810 l -28 892 l 1064 892 l 1064 810 m 808 810 l 532 810 l 532 593 l 271 593 q 208 570 231 593 q 186 507 186 547 q 218 436 186 463 q 304 410 250 410 q 409 424 353 410 q 510 464 465 439 q 576 386 553 426 q 667 374 619 374 q 808 414 750 374 l 808 810 z "},"ञ":{"ha":986,"x_min":-28,"x_max":986,"o":"m 986 810 l 829 810 l 829 0 l 732 0 l 732 368 q 633 351 682 351 q 606 353 615 351 q 526 240 588 282 q 369 199 464 199 q 183 263 267 199 q 8 456 100 326 l 69 503 q 217 336 149 392 q 363 281 286 281 q 476 317 436 281 q 515 410 515 354 q 483 503 515 467 q 399 540 450 540 q 331 526 360 540 q 267 481 303 511 l 217 549 q 303 603 258 583 q 404 624 349 624 q 543 575 483 624 q 611 436 603 526 q 633 435 619 435 q 732 453 692 435 l 732 810 l -28 810 l -28 892 l 986 892 l 986 810 z "},"ट":{"ha":733,"x_min":-28,"x_max":733,"o":"m 535 556 q 277 488 368 542 q 186 343 186 435 q 239 213 186 260 q 389 165 292 165 q 661 240 519 165 l 697 168 q 389 82 544 82 q 170 151 251 82 q 89 343 89 221 q 181 531 89 460 q 438 628 272 601 l 438 810 l -28 810 l -28 892 l 733 892 l 733 810 l 535 810 l 535 556 z "},"ठ":{"ha":797,"x_min":-28,"x_max":799,"o":"m 799 810 l 532 810 q 558 718 558 765 q 538 617 558 667 q 661 490 615 561 q 707 342 707 419 q 667 200 707 264 q 554 99 626 136 q 393 63 482 63 q 238 96 307 63 q 128 192 168 129 q 89 336 89 254 q 187 540 89 461 q 447 647 285 618 q 461 717 461 685 q 433 810 461 757 l -28 810 l -28 892 l 799 892 l 799 810 m 611 342 q 588 435 611 390 q 530 513 564 481 q 467 561 496 546 q 268 488 350 546 q 186 338 186 431 q 246 195 186 244 q 393 146 306 146 q 505 172 456 146 q 583 242 554 197 q 611 342 611 288 z "},"ड":{"ha":785,"x_min":-29,"x_max":785,"o":"m 325 567 q 259 544 282 567 q 236 483 236 522 q 272 410 236 436 q 379 383 307 383 q 513 397 446 383 q 635 439 579 410 q 713 349 681 404 q 744 235 744 294 q 664 74 744 135 q 439 13 583 13 q 227 68 325 13 q 50 226 129 124 l 108 286 q 258 144 175 194 q 432 94 342 94 q 592 133 536 94 q 647 233 647 172 q 634 288 647 260 q 600 338 621 315 q 382 300 499 300 q 197 353 256 300 q 139 488 139 406 q 186 602 139 557 q 319 647 233 647 l 542 647 l 542 810 l -29 810 l -29 892 l 785 892 l 785 810 l 638 810 l 638 567 l 325 567 z "},"ढ":{"ha":758,"x_min":-28,"x_max":758,"o":"m 371 565 q 217 520 268 565 q 167 404 167 475 q 223 223 167 297 q 358 117 279 149 q 319 239 319 171 q 372 369 319 319 q 500 418 424 418 q 633 367 579 418 q 686 232 686 315 q 652 117 686 164 q 563 46 618 69 q 443 22 507 22 q 267 72 354 22 q 125 209 181 121 q 69 406 69 297 q 143 580 69 514 q 364 646 217 646 l 481 646 l 481 810 l -28 810 l -28 892 l 758 892 l 758 810 l 576 810 l 576 565 l 371 565 m 503 338 q 437 309 464 338 q 410 231 410 281 q 422 160 410 194 q 454 100 433 126 q 559 140 522 106 q 596 231 596 175 q 569 310 596 282 q 503 338 543 338 z "},"ण":{"ha":1042,"x_min":-28,"x_max":1042,"o":"m 1042 810 l 885 810 l 885 0 l 788 0 l 788 810 l 563 810 l 563 474 q 500 317 563 374 q 343 260 438 260 q 188 317 250 260 q 125 474 125 374 l 125 810 l -28 810 l -28 892 l 1042 892 l 1042 810 m 465 810 l 222 810 l 222 472 q 254 378 222 414 q 343 343 286 343 q 433 378 400 343 q 465 472 465 414 l 465 810 z "},"त":{"ha":818,"x_min":-28,"x_max":818,"o":"m 818 810 l 661 810 l 661 0 l 565 0 l 565 518 l 331 518 q 226 485 263 518 q 189 392 189 451 q 240 228 189 307 q 390 51 290 150 l 328 -8 q 160 190 228 83 q 92 403 92 297 q 149 546 92 493 q 325 599 206 599 l 565 599 l 565 810 l -28 810 l -28 892 l 818 892 l 818 810 z "},"थ":{"ha":908,"x_min":69,"x_max":908,"o":"m 908 810 l 751 810 l 751 0 l 656 0 l 656 301 q 535 223 601 254 q 393 192 468 192 q 207 254 283 192 q 103 432 131 317 q 306 550 244 474 q 131 610 192 551 q 69 750 69 668 q 119 867 69 822 q 249 913 169 913 q 394 851 339 913 q 450 683 450 789 q 390 513 450 594 q 217 383 329 432 q 284 303 239 332 q 393 275 329 275 q 532 312 461 275 q 656 407 603 349 l 656 810 l 494 810 l 494 892 l 908 892 l 908 810 m 167 746 q 206 661 167 697 q 344 626 244 625 q 353 689 353 656 q 326 791 353 751 q 251 831 300 831 q 191 808 215 831 q 167 746 167 785 z "},"द":{"ha":772,"x_min":-28,"x_max":772,"o":"m 386 565 q 235 519 283 565 q 188 396 188 472 q 221 272 188 324 q 307 196 254 221 q 417 171 360 171 q 494 181 457 171 l 446 285 q 495 331 465 313 q 554 349 525 349 q 623 320 597 349 q 649 251 649 292 q 600 147 649 192 l 719 -78 l 636 -121 l 529 107 q 414 88 478 88 q 258 124 332 88 q 137 231 183 161 q 90 396 90 301 q 162 578 90 511 q 379 646 233 646 l 475 646 l 475 810 l -28 810 l -28 892 l 772 892 l 772 810 l 571 810 l 571 565 l 386 565 z "},"ध":{"ha":900,"x_min":76,"x_max":901,"o":"m 901 810 l 743 810 l 743 0 l 647 0 l 647 290 q 389 185 521 185 q 223 244 288 185 q 158 400 158 303 q 226 543 158 485 q 76 768 76 644 q 125 883 76 836 q 253 931 174 931 q 354 901 314 931 q 411 819 394 871 l 344 776 q 260 849 324 849 q 196 824 218 849 q 174 764 174 800 q 206 676 174 721 q 307 588 238 631 q 376 597 349 597 q 463 582 429 597 l 450 506 q 388 514 428 514 q 291 482 326 514 q 256 399 256 450 q 294 300 256 332 q 388 268 332 268 q 519 301 457 268 q 647 393 582 333 l 647 810 l 503 810 l 503 892 l 901 892 l 901 810 z "},"न":{"ha":800,"x_min":-28,"x_max":800,"o":"m 800 810 l 643 810 l 643 0 l 546 0 l 546 447 l 236 447 l 236 342 q 181 332 208 332 q 95 364 129 332 q 61 442 61 396 q 186 529 61 529 l 546 529 l 546 810 l -28 810 l -28 892 l 800 892 l 800 810 z "},"ऩ":{"ha":800,"x_min":-28,"x_max":800,"o":"m 0 0 m 800 810 l 643 810 l 643 0 l 546 0 l 546 447 l 236 447 l 236 342 q 181 332 208 332 q 95 364 129 332 q 61 442 61 396 q 186 529 61 529 l 546 529 l 546 810 l -28 810 l -28 892 l 800 892 l 800 810 m 214 79 q 238 137 214 113 q 296 161 263 161 q 353 137 329 161 q 378 79 378 113 q 353 22 378 46 q 296 -3 329 -3 q 238 22 263 -3 q 214 79 214 46 z "},"प":{"ha":775,"x_min":-28,"x_max":775,"o":"m 775 810 l 618 810 l 618 0 l 521 0 l 521 326 q 340 264 438 264 q 181 322 235 264 q 126 489 126 379 l 126 810 l -28 810 l -28 892 l 775 892 l 775 810 m 521 810 l 224 810 l 224 486 q 256 383 224 417 q 344 349 288 349 q 438 367 396 349 q 521 421 479 386 l 521 810 z "},"फ":{"ha":1119,"x_min":-28,"x_max":1119,"o":"m 618 504 q 725 585 674 556 q 836 614 776 614 q 993 551 936 614 q 1050 392 1050 488 q 1010 237 1050 304 q 897 111 971 169 l 821 175 q 919 276 886 225 q 953 389 953 328 q 922 492 953 453 q 835 531 890 531 q 733 497 785 531 q 618 401 681 463 l 618 0 l 521 0 l 521 326 q 340 264 438 264 q 181 322 235 264 q 126 489 126 379 l 126 810 l -28 810 l -28 892 l 1119 892 l 1119 810 l 618 810 l 618 504 m 521 810 l 224 810 l 224 486 q 256 383 224 417 q 344 349 288 349 q 438 367 396 349 q 521 421 479 386 l 521 810 z "},"ब":{"ha":876,"x_min":-28,"x_max":879,"o":"m 879 810 l 722 810 l 722 0 l 625 0 l 625 288 q 486 187 554 225 q 338 149 418 149 q 197 182 256 149 q 107 270 138 215 q 76 389 76 325 q 112 524 76 464 q 208 617 147 583 q 343 650 269 650 q 499 610 426 650 q 625 513 572 571 l 625 810 l -28 810 l -28 892 l 879 892 l 879 810 m 492 283 q 625 397 560 328 l 625 401 q 499 521 568 476 q 354 565 429 565 q 308 560 329 565 l 492 283 m 174 392 q 219 276 174 322 q 338 231 265 231 q 432 253 381 231 l 246 533 q 193 473 213 510 q 174 392 174 436 z "},"भ":{"ha":981,"x_min":65,"x_max":982,"o":"m 982 810 l 824 810 l 824 0 l 726 0 l 726 333 l 426 333 l 426 232 q 357 219 392 219 q 260 253 299 219 q 221 331 221 286 q 249 391 221 369 q 329 415 276 413 l 329 525 q 129 599 193 540 q 65 744 65 658 q 115 864 65 815 q 242 913 164 913 q 376 859 326 913 q 426 697 426 806 l 426 415 l 726 415 l 726 810 l 499 810 l 499 892 l 982 892 l 982 810 m 163 740 q 204 650 163 686 q 329 604 246 614 l 329 703 q 306 798 329 765 q 242 831 282 831 q 185 806 208 831 q 163 740 163 781 z "},"म":{"ha":844,"x_min":-28,"x_max":844,"o":"m 844 810 l 688 810 l 688 0 l 590 0 l 590 361 l 268 361 l 268 260 q 199 247 233 247 q 101 281 140 247 q 63 358 63 314 q 90 419 63 397 q 171 443 118 440 l 171 810 l -28 810 l -28 892 l 844 892 l 844 810 m 590 810 l 268 810 l 268 443 l 590 443 l 590 810 z "},"य":{"ha":842,"x_min":-28,"x_max":842,"o":"m 842 810 l 685 810 l 685 0 l 589 0 l 589 301 q 338 192 468 192 q 144 262 224 192 q 38 458 65 332 q 203 535 153 492 q 254 639 254 578 q 122 810 254 735 l -28 810 l -28 892 l 842 892 l 842 810 m 589 810 l 253 810 q 326 731 301 774 q 350 636 350 689 q 299 507 350 568 q 150 406 249 446 q 222 310 175 344 q 338 275 269 275 q 469 312 401 275 q 589 407 536 349 l 589 810 z "},"र":{"ha":536,"x_min":-28,"x_max":536,"o":"m 536 810 l 346 810 q 390 690 374 753 q 407 568 407 628 q 380 460 407 504 q 313 397 353 417 q 232 376 272 376 q 189 383 210 376 q 275 257 213 324 l 486 32 l 424 -29 l 232 178 q 135 298 167 247 q 92 400 103 349 q 79 528 81 451 l 171 538 q 172 474 171 493 q 217 460 190 460 q 280 488 250 460 q 310 572 310 515 q 292 691 310 628 q 247 810 275 754 l -28 810 l -28 892 l 536 892 l 536 810 z "},"ऱ":{"ha":536,"x_min":-28,"x_max":536,"o":"m 0 0 m 536 810 l 346 810 q 390 690 374 753 q 407 568 407 628 q 380 460 407 504 q 313 397 353 417 q 232 376 272 376 q 189 383 210 376 q 275 257 213 324 l 486 32 l 424 -29 l 232 178 q 135 298 167 247 q 92 400 103 349 q 79 528 81 451 l 171 538 q 172 474 171 493 q 217 460 190 460 q 280 488 250 460 q 310 572 310 515 q 292 691 310 628 q 247 810 275 754 l -28 810 l -28 892 l 536 892 l 536 810 m 57 15 q 81 73 57 49 q 139 97 106 97 q 197 73 172 97 q 221 15 221 49 q 197 -42 221 -18 q 139 -67 172 -67 q 81 -42 106 -67 q 57 15 57 -18 z "},"ल":{"ha":1006,"x_min":-28,"x_max":1006,"o":"m 1006 810 l 849 810 l 849 0 l 751 0 l 751 492 q 683 510 718 510 q 565 445 607 510 q 518 269 524 381 l 421 286 q 449 424 426 363 q 373 506 410 479 q 289 533 336 533 q 203 496 236 533 q 171 386 171 458 q 228 201 171 288 q 389 29 285 115 l 329 -32 q 140 176 207 72 q 72 397 72 279 q 131 560 72 503 q 283 618 189 618 q 489 500 400 618 q 572 570 524 546 q 675 594 619 594 q 751 579 717 594 l 751 810 l -28 810 l -28 892 l 1006 892 l 1006 810 z "},"ळ":{"ha":1064,"x_min":-28,"x_max":1064,"o":"m 828 810 l 828 651 q 952 565 906 631 q 999 401 999 500 q 967 265 999 322 q 883 176 936 207 q 763 146 829 146 q 629 183 679 146 q 536 283 579 221 q 331 147 454 147 q 208 178 263 147 q 123 267 154 208 q 92 404 92 325 q 158 592 92 524 q 328 661 225 661 q 462 624 411 661 q 554 522 513 586 q 633 615 590 581 q 731 658 675 650 l 731 810 l -28 810 l -28 892 l 1064 892 l 1064 810 l 828 810 m 328 231 q 424 276 385 231 q 496 401 464 321 l 514 444 q 437 542 479 506 q 328 578 394 578 q 227 531 265 578 q 189 404 189 483 q 227 278 189 325 q 328 231 265 231 m 901 401 q 864 528 901 481 q 764 576 826 576 q 667 531 707 576 q 594 404 626 485 q 576 361 581 369 q 654 265 611 301 q 764 229 697 229 q 864 276 826 229 q 901 401 901 322 z "},"ऴ":{"ha":1064,"x_min":-28,"x_max":1064,"o":"m 0 0 m 828 810 l 828 651 q 952 565 906 631 q 999 401 999 500 q 967 265 999 322 q 883 176 936 207 q 763 146 829 146 q 629 183 679 146 q 536 283 579 221 q 331 147 454 147 q 208 178 263 147 q 123 267 154 208 q 92 404 92 325 q 158 592 92 524 q 328 661 225 661 q 462 624 411 661 q 554 522 513 586 q 633 615 590 581 q 731 658 675 650 l 731 810 l -28 810 l -28 892 l 1064 892 l 1064 810 l 828 810 m 328 231 q 424 276 385 231 q 496 401 464 321 l 514 444 q 437 542 479 506 q 328 578 394 578 q 227 531 265 578 q 189 404 189 483 q 227 278 189 325 q 328 231 265 231 m 901 401 q 864 528 901 481 q 764 576 826 576 q 667 531 707 576 q 594 404 626 485 q 576 361 581 369 q 654 265 611 301 q 764 229 697 229 q 864 276 826 229 q 901 401 901 322 m 454 29 q 478 87 454 63 q 536 111 503 111 q 594 87 569 111 q 618 29 618 63 q 594 -28 618 -4 q 536 -53 569 -53 q 478 -28 503 -53 q 454 29 454 -4 z "},"व":{"ha":879,"x_min":-28,"x_max":879,"o":"m 879 810 l 722 810 l 722 0 l 625 0 l 625 288 q 486 187 554 225 q 338 149 418 149 q 197 182 256 149 q 107 270 138 215 q 76 389 76 325 q 112 524 76 464 q 208 617 147 583 q 343 650 269 650 q 499 610 426 650 q 625 513 572 571 l 625 810 l -28 810 l -28 892 l 879 892 l 879 810 m 338 231 q 481 277 406 231 q 625 397 557 324 l 625 401 q 499 521 568 476 q 354 565 429 565 q 224 516 275 565 q 174 392 174 467 q 219 276 174 322 q 338 231 265 231 z "},"श":{"ha":1006,"x_min":-28,"x_max":1006,"o":"m 1006 810 l 847 810 l 847 0 l 751 0 l 751 810 l 514 810 q 579 625 579 742 q 535 468 579 542 q 424 340 492 394 q 282 256 356 285 l 436 11 l 354 -37 l 199 243 q 99 275 136 249 q 63 338 63 301 q 92 399 63 375 q 175 424 121 422 l 235 329 q 332 377 285 346 q 414 451 379 408 q 225 560 292 493 q 158 711 158 626 q 189 810 158 768 l -28 810 l -28 892 l 1006 892 l 1006 810 m 482 631 q 444 758 482 707 q 347 810 406 810 q 283 784 310 810 q 256 708 256 758 q 312 601 256 649 q 460 524 368 553 q 482 631 482 576 z "},"ष":{"ha":800,"x_min":-28,"x_max":800,"o":"m 800 810 l 643 810 l 643 0 l 546 0 l 546 289 q 451 238 497 257 q 354 219 406 219 q 184 278 242 219 q 126 447 126 336 l 126 810 l -28 810 l -28 892 l 800 892 l 800 810 m 546 810 l 225 810 l 546 474 l 546 810 m 358 304 q 453 324 410 304 q 546 378 497 343 l 224 717 l 224 444 q 260 339 224 374 q 358 304 296 304 z "},"स":{"ha":917,"x_min":-28,"x_max":918,"o":"m 918 810 l 763 810 l 763 0 l 665 0 l 665 339 q 601 313 642 324 q 518 301 560 301 q 393 321 449 301 q 288 386 338 340 q 232 376 260 376 q 189 383 210 376 q 275 257 213 324 l 486 32 l 424 -29 l 232 178 q 135 298 167 247 q 92 400 103 349 q 79 528 81 451 l 171 538 q 172 474 171 493 q 217 460 190 460 q 280 488 250 460 q 310 572 310 515 q 292 691 310 628 q 247 810 275 754 l -28 810 l -28 892 l 918 892 l 918 810 m 665 810 l 346 810 q 390 690 374 753 q 407 568 407 628 q 360 432 407 483 q 435 397 393 410 q 518 385 476 385 q 665 429 607 385 l 665 810 z "},"ह":{"ha":774,"x_min":-29,"x_max":771,"o":"m 279 571 q 213 548 235 571 q 190 485 190 525 q 206 431 190 451 q 256 394 222 411 q 426 444 324 444 q 549 419 493 444 q 638 349 606 394 q 671 247 671 304 q 641 137 671 182 q 561 49 611 92 l 490 107 q 553 171 532 138 q 574 247 574 204 q 533 328 574 294 q 426 363 492 363 q 303 322 347 363 q 258 213 258 281 q 338 47 258 121 q 572 -90 417 -28 l 538 -168 q 258 2 354 -96 q 161 215 161 100 q 197 335 161 278 q 119 405 144 367 q 93 496 93 443 q 137 609 93 565 q 265 653 181 653 l 496 653 l 496 810 l -29 810 l -29 892 l 771 892 l 771 810 l 592 810 l 592 571 l 279 571 z "},"क़":{"ha":1164,"x_min":-28,"x_max":1164,"o":"m 0 0 m 649 810 l 649 488 q 767 581 713 547 q 886 614 822 614 q 1043 551 986 614 q 1100 393 1100 489 q 1060 238 1100 306 q 947 113 1021 171 l 871 176 q 969 278 936 226 q 1003 390 1003 329 q 970 494 1003 457 q 885 532 938 532 q 773 492 828 532 q 649 375 718 451 l 649 0 l 551 0 l 551 294 q 429 208 489 240 q 301 175 369 175 q 176 205 229 175 q 97 283 124 235 q 69 389 69 332 q 101 510 69 456 q 188 594 133 564 q 306 624 242 624 q 551 511 436 624 l 551 810 l -28 810 l -28 892 l 1164 892 l 1164 810 l 649 810 m 306 258 q 427 297 364 258 q 551 400 490 336 l 551 404 q 319 539 436 539 q 210 497 254 539 q 167 393 167 456 q 206 297 167 335 q 306 258 244 258 m 168 -14 q 192 44 168 19 q 250 68 217 68 q 308 44 283 68 q 332 -14 332 19 q 308 -72 332 -47 q 250 -96 283 -96 q 192 -72 217 -96 q 168 -14 168 -47 z "},"ख़":{"ha":1131,"x_min":-28,"x_max":1131,"o":"m 0 0 m 1131 810 l 978 810 l 978 -15 l 881 -15 l 881 151 q 721 59 813 93 q 535 25 629 25 q 291 88 393 25 q 136 267 189 151 q 85 539 83 383 l 176 549 q 178 483 176 504 q 214 472 193 472 q 266 498 246 472 q 286 582 286 524 q 274 693 286 628 q 244 810 263 758 l -28 810 l -28 892 l 1131 892 l 1131 810 m 881 810 l 343 810 q 383 576 383 675 q 339 435 383 483 q 233 388 294 388 q 190 396 210 388 q 310 182 221 256 q 535 108 400 108 q 719 146 626 108 q 881 253 811 183 l 881 357 q 770 281 824 310 q 653 253 717 253 q 542 281 589 253 q 472 353 496 308 q 447 450 447 399 q 476 564 447 514 q 554 641 506 614 q 658 668 603 668 q 782 638 722 668 q 881 567 842 607 l 881 810 m 878 460 q 781 554 835 519 q 664 589 728 589 q 576 551 611 589 q 540 456 540 513 q 574 367 540 403 q 658 332 607 332 q 769 368 711 332 q 878 460 828 404 m 115 -31 q 140 27 115 3 q 197 51 164 51 q 255 27 231 51 q 279 -31 279 3 q 255 -88 279 -64 q 197 -112 231 -112 q 140 -88 164 -112 q 115 -31 115 -64 z "},"ग़":{"ha":851,"x_min":-28,"x_max":851,"o":"m 0 0 m 851 810 l 694 810 l 694 0 l 597 0 l 597 810 l 314 810 l 314 406 q 289 312 314 344 q 221 279 264 279 q 135 313 169 279 q 101 400 101 347 q 111 456 101 428 l 217 456 l 217 810 l -28 810 l -28 892 l 851 892 l 851 810 m 138 72 q 162 130 138 106 q 219 154 186 154 q 277 130 253 154 q 301 72 301 106 q 277 15 301 39 q 219 -10 253 -10 q 162 15 186 -10 q 138 72 138 39 z "},"ज़":{"ha":1010,"x_min":-28,"x_max":1010,"o":"m 0 0 m 1010 810 l 853 810 l 853 0 l 756 0 l 756 518 l 479 518 q 618 314 618 426 q 560 184 618 233 q 421 135 503 135 q 185 244 276 135 q 31 568 94 354 l 108 600 q 238 316 163 415 q 406 217 313 217 q 491 244 461 217 q 521 318 521 272 q 472 427 521 376 q 325 540 424 478 l 349 600 l 756 600 l 756 810 l -28 810 l -28 892 l 1010 892 l 1010 810 m 89 10 q 113 67 89 43 q 171 92 138 92 q 228 67 204 92 q 253 10 253 43 q 228 -48 253 -24 q 171 -72 204 -72 q 113 -48 138 -72 q 89 10 89 -24 z "},"ड़":{"ha":785,"x_min":-29,"x_max":785,"o":"m 0 0 m 325 567 q 259 544 282 567 q 236 483 236 522 q 272 410 236 436 q 379 383 307 383 q 513 397 446 383 q 635 439 579 410 q 713 349 681 404 q 744 235 744 294 q 664 74 744 135 q 439 13 583 13 q 227 68 325 13 q 50 226 129 124 l 108 286 q 258 144 175 194 q 432 94 342 94 q 592 133 536 94 q 647 233 647 172 q 634 288 647 260 q 600 338 621 315 q 382 300 499 300 q 197 353 256 300 q 139 488 139 406 q 186 602 139 557 q 319 647 233 647 l 542 647 l 542 810 l -29 810 l -29 892 l 785 892 l 785 810 l 638 810 l 638 567 l 325 567 m 356 -187 q 380 -130 356 -154 q 438 -106 404 -106 q 495 -130 471 -106 q 519 -187 519 -154 q 495 -245 519 -221 q 438 -269 471 -269 q 380 -245 404 -269 q 356 -187 356 -221 z "},"ढ़":{"ha":758,"x_min":-28,"x_max":758,"o":"m 0 0 m 371 565 q 217 520 268 565 q 167 404 167 475 q 223 223 167 297 q 358 117 279 149 q 319 239 319 171 q 372 369 319 319 q 500 418 424 418 q 633 367 579 418 q 686 232 686 315 q 652 117 686 164 q 563 46 618 69 q 443 22 507 22 q 267 72 354 22 q 125 209 181 121 q 69 406 69 297 q 143 580 69 514 q 364 646 217 646 l 481 646 l 481 810 l -28 810 l -28 892 l 758 892 l 758 810 l 576 810 l 576 565 l 371 565 m 503 338 q 437 309 464 338 q 410 231 410 281 q 422 160 410 194 q 454 100 433 126 q 559 140 522 106 q 596 231 596 175 q 569 310 596 282 q 503 338 543 338 m 340 -165 q 365 -108 340 -132 q 422 -83 389 -83 q 480 -108 456 -83 q 504 -165 504 -132 q 480 -223 504 -199 q 422 -247 456 -247 q 365 -223 389 -247 q 340 -165 340 -199 z "},"फ़":{"ha":1119,"x_min":-28,"x_max":1119,"o":"m 0 0 m 618 504 q 725 585 674 556 q 836 614 776 614 q 993 551 936 614 q 1050 392 1050 488 q 1010 237 1050 304 q 897 111 971 169 l 821 175 q 919 276 886 225 q 953 389 953 328 q 922 492 953 453 q 835 531 890 531 q 733 497 785 531 q 618 401 681 463 l 618 0 l 521 0 l 521 326 q 340 264 438 264 q 181 322 235 264 q 126 489 126 379 l 126 810 l -28 810 l -28 892 l 1119 892 l 1119 810 l 618 810 l 618 504 m 521 810 l 224 810 l 224 486 q 256 383 224 417 q 344 349 288 349 q 438 367 396 349 q 521 421 479 386 l 521 810 m 119 79 q 144 137 119 113 q 201 161 168 161 q 259 137 235 161 q 283 79 283 113 q 259 22 283 46 q 201 -3 235 -3 q 144 22 168 -3 q 119 79 119 46 z "},"य़":{"ha":842,"x_min":-28,"x_max":842,"o":"m 0 0 m 842 810 l 685 810 l 685 0 l 589 0 l 589 301 q 338 192 468 192 q 144 262 224 192 q 38 458 65 332 q 203 535 153 492 q 254 639 254 578 q 122 810 254 735 l -28 810 l -28 892 l 842 892 l 842 810 m 589 810 l 253 810 q 326 731 301 774 q 350 636 350 689 q 299 507 350 568 q 150 406 249 446 q 222 310 175 344 q 338 275 269 275 q 469 312 401 275 q 589 407 536 349 l 589 810 m 19 81 q 44 138 19 114 q 101 163 68 163 q 159 138 135 163 q 183 81 183 114 q 159 23 183 47 q 101 -1 135 -1 q 44 23 68 -1 q 19 81 19 47 z "},"ॹ":{"ha":1010,"x_min":-28,"x_max":1010,"o":"m 0 0 m 1010 810 l 853 810 l 853 0 l 756 0 l 756 518 l 479 518 q 618 314 618 426 q 560 184 618 233 q 421 135 503 135 q 185 244 276 135 q 31 568 94 354 l 108 600 q 238 316 163 415 q 406 217 313 217 q 491 244 461 217 q 521 318 521 272 q 472 427 521 376 q 325 540 424 478 l 349 600 l 756 600 l 756 810 l -28 810 l -28 892 l 1010 892 l 1010 810 m 194 -51 q 219 6 194 -18 q 276 31 243 31 q 334 6 310 31 q 358 -51 358 -18 q 334 -109 358 -85 q 276 -133 310 -133 q 219 -109 243 -133 q 194 -51 194 -85 m 478 -51 q 502 6 478 -18 q 560 31 526 31 q 617 6 593 31 q 642 -51 642 -18 q 617 -109 642 -85 q 560 -133 593 -133 q 502 -109 526 -133 q 478 -51 478 -85 m 336 -212 q 360 -155 336 -179 q 418 -131 385 -131 q 476 -155 451 -131 q 500 -212 500 -179 q 476 -270 500 -246 q 418 -294 451 -294 q 360 -270 385 -294 q 336 -212 336 -246 z "},"ॺ":{"ha":842,"x_min":-28,"x_max":842,"o":"m 842 810 l 685 810 l 685 0 l 589 0 l 589 301 q 338 192 468 192 q 144 262 224 192 q 38 458 65 332 q 203 535 153 492 q 254 639 254 578 q 122 810 254 735 l -28 810 l -28 892 l 842 892 l 842 810 m 589 810 l 253 810 q 310 756 288 783 l 589 418 l 589 810 m 150 406 q 222 310 175 344 q 338 275 269 275 q 444 299 389 275 q 547 365 499 324 l 347 607 q 288 494 338 547 q 150 406 238 440 z "},"ॻ":{"ha":851,"x_min":-28,"x_max":851,"o":"m 694 810 l 694 57 l 696 57 l 696 -25 l 121 -25 l 121 57 l 597 57 l 597 810 l 314 810 l 314 406 q 289 312 314 344 q 221 279 264 279 q 135 313 169 279 q 101 400 101 347 q 111 456 101 428 l 217 456 l 217 810 l -28 810 l -28 892 l 851 892 l 851 810 l 694 810 z "},"ॼ":{"ha":1010,"x_min":-28,"x_max":1010,"o":"m 1010 810 l 853 810 l 853 0 l 851 0 l 851 -31 l 58 -31 l 58 50 l 756 50 l 756 518 l 479 518 q 618 314 618 426 q 560 184 618 233 q 421 135 503 135 q 185 244 276 135 q 31 568 94 354 l 108 600 q 238 316 163 415 q 406 217 313 217 q 491 244 461 217 q 521 318 521 272 q 472 427 521 376 q 325 540 424 478 l 349 600 l 756 600 l 756 810 l -28 810 l -28 892 l 1010 892 l 1010 810 z "},"ॾ":{"ha":785,"x_min":-29,"x_max":785,"o":"m 325 567 q 259 544 282 567 q 236 483 236 522 q 272 410 236 436 q 379 383 307 383 q 513 397 446 383 q 635 439 579 410 q 713 349 681 404 q 744 235 744 294 q 664 74 744 135 q 439 13 583 13 q 227 68 325 13 q 50 226 129 124 l 108 286 q 258 144 175 194 q 432 94 342 94 q 592 133 536 94 q 647 233 647 172 q 634 288 647 260 q 600 338 621 315 q 382 300 499 300 q 197 353 256 300 q 139 488 139 406 q 186 602 139 557 q 319 647 233 647 l 542 647 l 542 810 l -29 810 l -29 892 l 785 892 l 785 810 l 638 810 l 638 567 l 325 567 m 75 -143 l 724 -143 l 724 -225 l 75 -225 l 75 -143 z "},"ॿ":{"ha":883,"x_min":-28,"x_max":879,"o":"m 879 810 l 722 810 l 722 -31 l 114 -31 l 114 50 l 625 50 l 625 288 q 486 187 554 225 q 338 149 418 149 q 197 182 256 149 q 107 270 138 215 q 76 389 76 325 q 112 524 76 464 q 208 617 147 583 q 343 650 269 650 q 499 610 426 650 q 625 513 572 571 l 625 810 l -28 810 l -28 892 l 879 892 l 879 810 m 492 283 q 625 397 560 328 l 625 401 q 499 521 568 476 q 354 565 429 565 q 308 560 329 565 l 492 283 m 174 392 q 219 276 174 322 q 338 231 265 231 q 432 253 381 231 l 246 533 q 193 473 213 510 q 174 392 174 436 z "},"⁄":{"ha":122,"x_min":-249,"x_max":378,"o":"m 378 926 l -178 -35 l -249 8 l 307 969 l 378 926 z "},"½":{"ha":1218,"x_min":83,"x_max":1178,"o":"m 83 0 m 954 926 l 399 -35 l 328 8 l 883 969 l 954 926 m 413 449 l 413 378 l 101 378 l 101 449 l 214 449 l 214 846 l 118 779 l 83 838 l 228 944 l 300 944 l 300 449 l 413 449 m 790 479 q 978 576 868 576 q 1114 531 1065 576 q 1163 411 1163 485 q 1127 292 1163 350 q 1003 149 1092 233 l 922 72 l 922 71 l 1178 71 l 1178 0 l 803 0 l 803 61 l 947 194 q 1048 312 1019 263 q 1076 407 1076 361 q 1049 481 1076 454 q 976 507 1022 507 q 903 488 936 507 q 829 426 869 469 l 790 479 z "},"¼":{"ha":1178,"x_min":83,"x_max":1171,"o":"m 83 0 m 954 926 l 399 -35 l 328 8 l 883 969 l 954 926 m 413 449 l 413 378 l 101 378 l 101 449 l 214 449 l 214 846 l 118 779 l 83 838 l 228 944 l 300 944 l 300 449 l 413 449 m 1171 144 l 1079 144 l 1079 -3 l 993 -3 l 993 144 l 729 144 l 729 196 l 996 567 l 1079 567 l 1079 214 l 1171 214 l 1171 144 m 993 214 l 993 314 l 994 451 l 899 318 l 825 214 l 993 214 z "},"¾":{"ha":1114,"x_min":26,"x_max":1107,"o":"m 26 0 m 892 926 l 336 -35 l 265 8 l 821 969 l 892 926 m 296 683 q 389 634 351 672 q 426 539 426 596 q 368 413 426 464 q 211 363 310 363 q 108 378 151 363 q 26 436 64 394 l 64 492 q 133 443 100 457 q 213 429 167 429 q 303 460 268 429 q 339 540 339 492 q 309 612 339 585 q 225 639 279 639 q 140 624 182 639 l 126 689 q 230 719 193 706 q 288 758 267 733 q 310 821 310 782 q 288 868 310 850 q 226 886 265 886 q 152 869 190 886 q 81 814 114 851 l 43 860 q 131 930 82 906 q 232 954 181 954 q 351 919 307 954 q 396 824 396 883 q 369 742 396 778 q 296 683 342 706 m 1107 144 l 1015 144 l 1015 -3 l 929 -3 l 929 144 l 665 144 l 665 196 l 932 567 l 1015 567 l 1015 214 l 1107 214 l 1107 144 m 929 214 l 929 314 l 931 451 l 835 318 l 761 214 l 929 214 z "},"¹":{"ha":460,"x_min":83,"x_max":413,"o":"m 413 717 l 413 646 l 101 646 l 101 717 l 214 717 l 214 1114 l 118 1047 l 83 1106 l 228 1213 l 300 1213 l 300 717 l 413 717 z "},"²":{"ha":460,"x_min":32,"x_max":419,"o":"m 32 1125 q 219 1222 110 1222 q 356 1176 307 1222 q 404 1057 404 1131 q 369 938 404 996 q 244 794 333 879 l 164 718 l 164 717 l 419 717 l 419 646 l 44 646 l 44 707 l 189 840 q 290 958 261 908 q 318 1053 318 1007 q 291 1126 318 1100 q 218 1153 264 1153 q 144 1134 178 1153 q 71 1072 111 1115 l 32 1125 z "},"³":{"ha":461,"x_min":26,"x_max":426,"o":"m 296 951 q 389 902 351 940 q 426 807 426 864 q 368 681 426 732 q 211 631 310 631 q 108 647 151 631 q 26 704 64 663 l 64 760 q 133 711 100 725 q 213 697 167 697 q 303 728 268 697 q 339 808 339 760 q 309 880 339 853 q 225 907 279 907 q 140 892 182 907 l 126 957 q 230 988 193 974 q 288 1026 267 1001 q 310 1089 310 1050 q 288 1136 310 1118 q 226 1154 265 1154 q 152 1137 190 1154 q 81 1082 114 1119 l 43 1128 q 131 1198 82 1174 q 232 1222 181 1222 q 351 1187 307 1222 q 396 1092 396 1151 q 369 1010 396 1046 q 296 951 342 974 z "},"०":{"ha":876,"x_min":151,"x_max":715,"o":"m 433 86 q 281 126 344 86 q 184 233 217 165 q 151 385 151 301 q 184 541 151 471 q 281 651 217 611 q 433 692 344 692 q 586 651 522 692 q 683 541 650 611 q 715 385 715 471 q 683 233 715 301 q 586 126 650 165 q 433 86 522 86 m 435 171 q 567 233 519 171 q 614 385 614 294 q 567 544 614 481 q 435 607 519 607 q 303 544 350 607 q 256 385 256 481 q 303 233 256 294 q 435 171 350 171 z "},"१":{"ha":876,"x_min":203,"x_max":703,"o":"m 621 28 q 685 -55 668 -19 q 703 -126 703 -90 q 690 -190 703 -161 q 649 -251 678 -219 l 561 -204 q 597 -131 597 -171 q 588 -82 597 -104 q 546 -26 579 -60 l 249 276 q 433 464 385 410 q 267 560 331 494 q 203 721 203 625 q 266 878 203 818 q 433 939 329 939 q 599 876 536 939 q 663 714 663 813 q 627 578 663 646 q 536 445 592 510 q 379 274 481 381 l 621 28 m 300 715 q 351 602 300 650 q 492 535 401 554 q 565 715 565 635 q 529 817 565 779 q 433 856 493 856 q 337 817 374 856 q 300 715 300 779 z "},"२":{"ha":876,"x_min":154,"x_max":715,"o":"m 715 621 q 633 399 715 489 q 413 268 550 308 l 657 -106 l 572 -156 l 324 260 q 224 292 261 267 q 186 354 186 318 q 215 417 186 393 q 299 443 244 442 l 363 346 q 549 447 481 376 q 618 624 618 518 q 563 774 618 714 q 414 833 507 833 q 199 761 319 833 l 154 836 q 414 917 288 917 q 569 881 500 917 q 676 777 638 844 q 715 621 715 710 z "},"३":{"ha":876,"x_min":132,"x_max":779,"o":"m 779 333 q 699 147 779 224 q 474 39 619 71 l 593 -144 l 511 -193 l 383 32 q 285 64 321 38 q 249 126 249 90 q 278 188 249 164 q 360 213 307 211 l 422 117 q 615 196 547 138 q 682 336 682 254 q 633 449 682 406 q 494 492 585 492 q 289 429 400 492 l 246 503 q 493 575 365 575 q 525 690 525 626 q 481 790 525 749 q 360 831 438 831 q 178 763 267 831 l 132 838 q 363 913 235 913 q 549 851 475 913 q 622 681 622 789 q 590 564 622 617 q 728 481 678 542 q 779 333 779 421 z "},"४":{"ha":876,"x_min":36,"x_max":829,"o":"m 508 564 q 653 412 607 485 q 699 261 699 339 q 667 149 699 200 q 578 67 635 97 q 451 36 521 36 q 324 67 381 36 q 235 150 267 99 q 203 261 203 201 q 242 406 203 336 q 372 560 282 476 q 257 644 365 565 q 36 808 139 729 l 88 881 q 365 672 279 738 l 438 618 q 778 919 569 732 l 829 849 q 585 631 671 707 l 508 564 m 451 118 q 558 159 514 118 q 601 261 601 200 q 565 379 601 324 q 443 504 528 435 q 334 376 368 433 q 300 261 300 319 q 344 159 300 200 q 451 118 388 118 z "},"५":{"ha":876,"x_min":165,"x_max":872,"o":"m 789 -157 l 603 211 q 415 161 518 161 q 235 228 306 161 q 165 415 165 294 q 326 892 165 607 l 413 850 q 300 614 338 717 q 263 415 263 511 q 306 287 263 329 q 418 244 349 244 q 494 256 456 244 q 564 290 532 268 l 507 403 q 557 449 526 431 q 618 468 588 468 q 688 439 663 468 q 713 368 713 410 q 665 260 713 311 l 872 -114 l 789 -157 z "},"६":{"ha":876,"x_min":68,"x_max":878,"o":"m 793 -183 l 657 89 q 563 49 614 63 q 458 35 511 35 q 310 64 376 35 q 205 149 243 93 q 167 279 167 204 q 236 451 167 379 q 108 564 147 504 q 68 697 68 624 q 98 807 68 756 q 183 889 128 858 q 310 919 238 919 q 458 890 383 919 l 436 808 q 317 836 378 836 q 205 794 244 836 q 165 693 165 751 q 195 596 165 640 q 308 507 225 551 q 557 572 406 563 l 567 492 q 339 427 414 483 q 264 278 264 371 q 319 158 264 199 q 461 118 375 118 q 544 129 503 118 q 619 164 586 140 l 563 276 q 612 321 581 303 q 674 339 643 339 q 740 311 715 339 q 765 243 765 283 q 719 138 765 186 l 878 -140 l 793 -183 z "},"७":{"ha":876,"x_min":44,"x_max":838,"o":"m 564 869 q 708 815 646 869 q 803 662 769 760 q 838 439 838 564 q 756 142 838 254 q 528 31 675 31 q 199 236 325 31 q 44 882 74 442 l 133 897 q 264 309 160 506 q 528 113 368 113 q 683 197 629 113 q 740 421 738 281 q 674 394 708 404 q 613 385 640 385 q 415 455 483 385 q 347 631 347 525 q 374 749 347 694 q 449 837 400 804 q 564 869 499 869 m 607 467 q 669 476 635 467 q 738 503 704 485 q 681 710 728 635 q 564 786 635 786 q 478 742 513 786 q 444 631 444 697 q 483 512 444 557 q 607 467 522 467 z "},"८":{"ha":876,"x_min":108,"x_max":774,"o":"m 394 -33 q 185 40 263 -33 q 108 236 108 114 q 160 428 108 332 q 295 617 213 524 q 536 869 378 710 l 596 931 l 661 868 q 404 606 494 704 q 260 415 314 507 q 206 236 206 322 q 254 101 206 153 q 394 49 303 49 q 558 92 476 49 q 717 226 640 136 l 774 160 q 394 -33 607 -33 z "},"९":{"ha":876,"x_min":78,"x_max":853,"o":"m 771 28 q 835 -53 818 -18 q 853 -126 853 -89 q 841 -190 853 -161 q 800 -251 829 -219 l 711 -204 q 747 -131 747 -171 q 738 -82 747 -106 q 696 -26 729 -58 l 233 433 q 154 515 183 482 q 101 600 125 547 q 78 719 78 653 q 142 877 78 815 q 314 939 206 939 q 477 877 417 939 q 538 715 538 815 q 478 563 538 626 q 319 472 418 500 l 771 28 m 175 717 q 194 627 175 668 q 253 542 214 586 q 392 608 343 561 q 440 718 440 654 q 405 818 440 781 q 314 856 369 856 q 213 818 250 856 q 175 717 175 781 z "},"*":{"ha":668,"x_min":47,"x_max":621,"o":"m 381 642 l 542 458 l 461 400 l 333 607 l 208 400 l 126 458 l 285 644 l 47 700 l 78 794 l 304 703 l 285 944 l 385 944 l 367 703 l 589 794 l 621 700 l 381 642 z "},"\\":{"ha":486,"x_min":-11,"x_max":497,"o":"m -11 983 l 99 983 l 497 -328 l 389 -328 l -11 983 z "},"·":{"ha":372,"x_min":113,"x_max":261,"o":"m 186 300 q 134 322 156 300 q 113 374 113 343 q 134 426 113 404 q 186 449 156 449 q 239 426 217 449 q 261 374 261 404 q 239 322 261 343 q 186 300 217 300 z "},"•":{"ha":685,"x_min":190,"x_max":494,"o":"m 342 225 q 235 269 279 225 q 190 376 190 314 q 235 485 190 440 q 342 529 279 529 q 450 485 406 529 q 494 376 494 440 q 450 269 494 314 q 342 225 406 225 z "},":":{"ha":372,"x_min":113,"x_max":261,"o":"m 186 536 q 134 558 156 536 q 113 611 113 581 q 134 664 113 642 q 186 686 156 686 q 239 664 217 686 q 261 611 261 642 q 240 558 261 581 q 186 536 218 536 m 186 -12 q 134 9 156 -12 q 113 61 113 31 q 134 114 113 92 q 186 136 156 136 q 239 114 217 136 q 261 61 261 92 q 239 9 261 31 q 186 -12 217 -12 z "},",":{"ha":372,"x_min":60,"x_max":244,"o":"m 60 -162 q 146 7 146 -104 q 128 119 146 61 l 232 132 q 244 35 244 81 q 206 -114 244 -50 q 99 -212 167 -178 l 60 -162 z "},"…":{"ha":1003,"x_min":113,"x_max":890,"o":"m 186 -12 q 134 9 156 -12 q 113 61 113 31 q 134 114 113 92 q 186 136 156 136 q 239 114 217 136 q 261 61 261 92 q 239 9 261 31 q 186 -12 217 -12 m 500 -12 q 448 9 469 -12 q 426 61 426 31 q 448 114 426 92 q 500 136 469 136 q 553 114 531 136 q 575 61 575 92 q 553 9 575 31 q 500 -12 531 -12 m 815 -12 q 763 9 785 -12 q 742 61 742 31 q 763 114 742 92 q 815 136 785 136 q 868 114 846 136 q 890 61 890 92 q 868 9 890 31 q 815 -12 846 -12 z "},"!":{"ha":372,"x_min":113,"x_max":261,"o":"m 119 944 l 238 944 l 224 257 l 147 257 l 119 944 m 186 -12 q 134 9 156 -12 q 113 61 113 31 q 134 114 113 92 q 186 136 156 136 q 239 114 217 136 q 261 61 261 92 q 239 9 261 31 q 186 -12 217 -12 z "},"¡":{"ha":372,"x_min":111,"x_max":260,"o":"m 111 0 m 253 -197 l 135 -197 l 149 490 l 225 490 l 253 -197 m 186 760 q 238 738 217 760 q 260 686 260 717 q 238 633 260 656 q 186 611 217 611 q 133 633 156 611 q 111 686 111 656 q 133 738 111 717 q 186 760 156 760 z "},"#":{"ha":893,"x_min":32,"x_max":863,"o":"m 688 596 l 611 349 l 760 349 l 735 267 l 586 267 l 504 0 l 414 0 l 496 267 l 272 267 l 190 0 l 100 0 l 182 267 l 32 267 l 57 349 l 207 349 l 283 596 l 135 596 l 160 678 l 308 678 l 390 944 l 481 944 l 399 678 l 622 678 l 704 944 l 794 944 l 713 678 l 863 678 l 839 596 l 688 596 m 597 596 l 374 596 l 297 349 l 521 349 l 597 596 z "},".":{"ha":374,"x_min":113,"x_max":261,"o":"m 186 -12 q 134 9 156 -12 q 113 61 113 31 q 134 114 113 92 q 186 136 156 136 q 239 114 217 136 q 261 61 261 92 q 239 9 261 31 q 186 -12 217 -12 z "},"?":{"ha":625,"x_min":99,"x_max":533,"o":"m 160 485 q 365 556 303 511 q 428 689 428 600 q 358 815 428 767 q 99 864 288 864 l 99 946 q 431 874 329 946 q 533 688 533 801 q 244 417 533 485 l 239 257 l 169 257 l 160 485 m 204 -12 q 152 9 174 -12 q 131 61 131 31 q 152 114 131 92 q 204 136 174 136 q 257 114 235 136 q 279 61 279 92 q 257 9 279 31 q 204 -12 235 -12 z "},"¿":{"ha":625,"x_min":97,"x_max":532,"o":"m 97 0 m 471 263 q 265 192 328 236 q 203 58 203 147 q 273 -68 203 -19 q 532 -117 343 -117 l 532 -199 q 199 -126 301 -199 q 97 60 97 -54 q 386 331 97 263 l 392 490 l 461 490 l 471 263 m 426 760 q 478 738 457 760 q 500 686 500 717 q 478 633 500 656 q 426 611 457 611 q 374 633 396 611 q 351 686 351 656 q 374 738 351 717 q 426 760 396 760 z "},"\"":{"ha":626,"x_min":129,"x_max":497,"o":"m 129 660 m 129 1036 l 247 1036 l 235 660 l 154 660 l 129 1036 m 379 1036 l 497 1036 l 485 660 l 404 660 l 379 1036 z "},"'":{"ha":376,"x_min":129,"x_max":247,"o":"m 129 1036 l 247 1036 l 235 660 l 154 660 l 129 1036 z "},";":{"ha":372,"x_min":60,"x_max":261,"o":"m 186 536 q 134 558 156 536 q 113 611 113 581 q 134 664 113 642 q 186 686 156 686 q 239 664 217 686 q 261 611 261 642 q 240 558 261 581 q 186 536 218 536 m 60 -162 q 144 1 144 -107 q 128 107 144 51 l 232 121 q 244 28 244 71 q 206 -116 244 -54 q 99 -212 167 -178 l 60 -162 z "},"/":{"ha":486,"x_min":-11,"x_max":497,"o":"m 388 983 l 497 983 l 97 -328 l -11 -328 l 388 983 z "},"_":{"ha":694,"x_min":0,"x_max":694,"o":"m 0 -258 l 694 -258 l 694 -339 l 0 -339 l 0 -258 z "},"{":{"ha":432,"x_min":19,"x_max":378,"o":"m 378 -181 q 139 10 139 -181 q 151 126 139 54 q 165 258 165 210 q 130 331 165 307 q 19 364 94 356 l 19 436 q 128 468 93 443 q 164 540 164 493 q 150 674 164 588 q 138 790 138 746 q 378 979 138 982 l 378 903 q 239 808 239 904 q 253 664 239 744 q 265 556 265 601 q 238 458 265 499 q 158 401 210 418 l 158 399 q 238 342 211 382 q 265 243 265 303 q 253 135 265 197 q 239 -8 239 54 q 378 -103 239 -103 l 378 -181 z "},"}":{"ha":432,"x_min":54,"x_max":413,"o":"m 54 -103 q 193 -8 193 -104 q 179 135 193 54 q 167 244 167 197 q 194 342 167 301 q 274 399 222 382 l 274 401 q 194 458 221 418 q 167 557 167 497 q 179 665 167 603 q 193 808 193 746 q 54 903 193 903 l 54 981 q 226 940 160 981 q 293 790 293 899 q 281 674 293 746 q 267 542 267 588 q 303 468 267 493 q 413 436 339 443 l 413 364 q 303 332 339 357 q 268 260 268 307 q 282 126 268 213 q 294 10 294 54 q 54 -179 294 -182 l 54 -103 z "},"[":{"ha":432,"x_min":101,"x_max":331,"o":"m 101 965 l 331 965 l 331 897 l 206 883 l 206 -94 l 331 -108 l 331 -176 l 101 -176 l 101 965 z "},"]":{"ha":432,"x_min":101,"x_max":331,"o":"m 101 -106 l 226 -94 l 226 883 l 101 894 l 101 965 l 331 965 l 331 -176 l 101 -176 l 101 -106 z "},"(":{"ha":419,"x_min":79,"x_max":375,"o":"m 315 -175 q 146 76 213 -75 q 79 408 79 226 q 146 741 79 590 q 315 992 213 892 l 375 943 q 238 713 290 858 q 185 408 185 568 q 238 103 185 249 q 375 -126 290 -42 l 315 -175 z "},")":{"ha":419,"x_min":46,"x_max":342,"o":"m 46 -126 q 183 103 131 -42 q 236 408 236 249 q 183 713 236 568 q 46 943 131 858 l 106 992 q 275 741 208 892 q 342 408 342 590 q 275 76 342 226 q 106 -175 208 -75 l 46 -126 z "},"—":{"ha":1389,"x_min":174,"x_max":1215,"o":"m 174 417 l 1215 417 l 1215 336 l 174 336 l 174 417 z "},"–":{"ha":694,"x_min":0,"x_max":694,"o":"m 0 417 l 694 417 l 694 336 l 0 336 l 0 417 z "},"-":{"ha":360,"x_min":28,"x_max":332,"o":"m 28 417 l 332 417 l 332 336 l 28 336 l 28 417 z "},"­":{"ha":833,"x_min":28,"x_max":332,"o":"m 28 336 m 28 417 l 332 417 l 332 336 l 28 336 l 28 417 z "},"«":{"ha":753,"x_min":58,"x_max":697,"o":"m 58 67 m 58 360 l 322 653 l 390 594 l 179 360 l 390 124 l 322 67 l 58 360 m 365 360 l 629 653 l 697 594 l 486 360 l 697 124 l 629 67 l 365 360 z "},"»":{"ha":753,"x_min":56,"x_max":694,"o":"m 56 67 m 56 125 l 267 360 l 56 596 l 124 653 l 388 360 l 124 67 l 56 125 m 363 125 l 574 360 l 363 596 l 431 653 l 694 360 l 431 67 l 363 125 z "},"‹":{"ha":446,"x_min":58,"x_max":390,"o":"m 58 360 l 322 653 l 390 594 l 179 360 l 390 124 l 322 67 l 58 360 z "},"›":{"ha":446,"x_min":56,"x_max":388,"o":"m 56 125 l 267 360 l 56 596 l 124 653 l 388 360 l 124 67 l 56 125 z "},"„":{"ha":617,"x_min":60,"x_max":489,"o":"m 60 0 m 60 -162 q 146 7 146 -104 q 128 119 146 61 l 232 132 q 244 35 244 81 q 206 -114 244 -50 q 99 -212 167 -178 l 60 -162 m 304 -162 q 390 7 390 -104 q 372 119 390 61 l 476 132 q 489 35 489 81 q 450 -114 489 -50 q 343 -212 411 -178 l 304 -162 z "},"“":{"ha":617,"x_min":128,"x_max":557,"o":"m 128 678 m 140 678 q 128 775 128 731 q 167 924 128 860 q 275 1024 206 988 l 313 972 q 226 803 226 914 q 244 692 226 747 l 140 678 m 385 678 q 372 775 372 731 q 411 924 372 860 q 519 1024 450 988 l 557 972 q 471 803 471 914 q 489 692 471 747 l 385 678 z "},"”":{"ha":617,"x_min":60,"x_max":489,"o":"m 60 678 m 60 729 q 146 899 146 785 q 128 1010 146 954 l 232 1024 q 244 926 244 972 q 206 778 244 842 q 99 678 167 714 l 60 729 m 304 729 q 390 899 390 785 q 372 1010 390 954 l 476 1024 q 489 926 489 972 q 450 778 489 842 q 343 678 411 714 l 304 729 z "},"‘":{"ha":372,"x_min":128,"x_max":313,"o":"m 140 678 q 128 775 128 731 q 167 924 128 860 q 275 1024 206 988 l 313 972 q 226 803 226 914 q 244 692 226 747 l 140 678 z "},"’":{"ha":372,"x_min":60,"x_max":244,"o":"m 60 729 q 146 899 146 785 q 128 1010 146 954 l 232 1024 q 244 926 244 972 q 206 778 244 842 q 99 678 167 714 l 60 729 z "},"‚":{"ha":372,"x_min":60,"x_max":244,"o":"m 60 0 m 60 -162 q 146 7 146 -104 q 128 119 146 61 l 232 132 q 244 35 244 81 q 206 -114 244 -50 q 99 -212 167 -178 l 60 -162 z "},"ॽ":{"ha":764,"x_min":140,"x_max":640,"o":"m 640 647 q 569 469 640 542 q 363 371 497 397 l 363 0 l 265 0 l 265 442 q 472 508 401 454 q 543 653 543 563 q 504 782 543 733 q 392 831 465 831 q 285 810 332 831 q 183 751 239 790 l 140 826 q 262 891 206 869 q 389 913 318 913 q 571 842 501 913 q 640 647 640 772 z "},"।":{"ha":518,"x_min":265,"x_max":363,"o":"m 265 892 l 363 892 l 363 0 l 265 0 l 265 892 z "},"॥":{"ha":886,"x_min":265,"x_max":729,"o":"m 265 892 l 363 892 l 363 0 l 265 0 l 265 892 m 632 892 l 729 892 l 729 0 l 632 0 l 632 892 z "},"॰":{"ha":651,"x_min":107,"x_max":542,"o":"m 324 156 q 165 219 222 156 q 107 378 107 282 q 165 543 107 478 q 324 608 222 608 q 483 543 425 608 q 542 378 542 478 q 483 219 542 282 q 324 156 425 156 m 324 239 q 408 279 378 239 q 439 378 439 319 q 408 483 439 442 q 324 525 378 525 q 239 483 269 525 q 208 378 208 442 q 239 279 208 319 q 324 239 269 239 z "},"ॱ":{"ha":422,"x_min":119,"x_max":283,"o":"m 119 767 m 119 849 q 144 906 119 882 q 201 929 168 929 q 259 906 235 929 q 283 849 283 882 q 259 791 283 815 q 201 767 235 767 q 144 791 168 767 q 119 849 119 815 z "}," ":{"ha":1290,"x_min":0,"x_max":0,"o":""}," ":{"ha":1290,"x_min":0,"x_max":0,"o":""}," ":{"ha":1863,"x_min":0,"x_max":0,"o":""}," ":{"ha":719,"x_min":0,"x_max":0,"o":""}," ":{"ha":867,"x_min":0,"x_max":0,"o":""}," ":{"ha":433,"x_min":0,"x_max":0,"o":""}," ":{"ha":261,"x_min":0,"x_max":0,"o":""}," ":{"ha":551,"x_min":0,"x_max":0,"o":""}," ":{"ha":338,"x_min":0,"x_max":0,"o":""}," ":{"ha":347,"x_min":0,"x_max":0,"o":""}," ":{"ha":376,"x_min":0,"x_max":0,"o":""}," ":{"ha":528,"x_min":0,"x_max":0,"o":""},"‍":{"ha":147,"x_min":0,"x_max":0,"o":""},"‌":{"ha":147,"x_min":0,"x_max":0,"o":""},"":{"ha":147,"x_min":0,"x_max":0,"o":""},"¢":{"ha":735,"x_min":51,"x_max":690,"o":"m 690 222 q 447 85 588 99 l 447 -107 l 349 -107 l 349 86 q 128 213 204 106 q 51 469 51 319 q 127 722 51 615 q 349 851 203 828 l 349 1047 l 447 1047 l 447 856 q 573 824 513 851 q 672 751 633 796 l 628 679 q 547 742 596 718 q 447 772 499 767 l 447 168 q 646 290 556 182 l 690 222 m 160 471 q 209 273 160 353 q 349 172 258 193 l 349 764 q 209 661 258 740 q 160 471 160 582 z "},"¤":{"ha":735,"x_min":108,"x_max":628,"o":"m 596 378 q 560 244 596 301 l 626 176 l 565 114 l 499 181 q 368 143 443 143 q 238 181 293 143 l 171 114 l 108 176 l 176 244 q 140 375 140 301 q 175 504 140 446 l 108 571 l 171 633 l 235 568 q 368 608 293 608 q 501 569 442 608 l 565 633 l 628 571 l 561 504 q 596 378 596 446 m 368 215 q 472 261 432 215 q 513 376 513 307 q 472 490 513 444 q 368 536 432 536 q 265 490 306 536 q 224 376 224 444 q 265 261 224 307 q 368 215 306 215 z "},"$":{"ha":735,"x_min":53,"x_max":678,"o":"m 678 268 q 610 103 678 169 q 432 21 543 36 l 432 -107 l 333 -107 l 333 17 q 177 44 243 21 q 53 110 111 67 l 97 189 q 333 103 194 111 l 333 446 q 208 495 258 469 q 124 568 157 521 q 90 689 90 615 q 164 856 90 796 q 356 922 238 915 l 356 1047 l 454 1047 l 454 919 q 675 832 572 906 l 632 754 q 454 835 550 817 l 454 507 q 619 419 560 471 q 678 268 678 368 m 196 693 q 237 599 196 633 q 356 539 278 565 l 356 839 q 240 794 285 832 q 196 693 196 757 m 432 108 q 533 165 494 124 q 571 264 571 206 q 535 354 571 321 q 432 413 499 388 l 432 108 z "},"€":{"ha":735,"x_min":43,"x_max":699,"o":"m 489 63 q 582 83 544 63 q 651 143 619 103 l 699 81 q 482 -21 618 -21 q 267 69 347 -21 q 164 328 188 158 l 43 328 l 43 410 l 157 410 q 156 472 156 431 q 157 540 156 518 l 43 540 l 43 622 l 165 622 q 269 875 190 788 q 482 963 349 963 q 606 936 554 963 q 699 863 658 910 l 651 799 q 581 858 618 838 q 489 879 543 879 q 274 622 310 879 l 558 622 l 558 540 l 265 540 q 264 471 264 518 q 265 410 264 429 l 558 410 l 558 328 l 272 328 q 489 63 306 63 z "},"ƒ":{"ha":735,"x_min":147,"x_max":635,"o":"m 635 518 l 390 518 l 329 -240 l 226 -240 l 288 518 l 147 518 l 147 600 l 293 600 l 299 661 q 371 898 311 821 q 553 975 431 975 q 633 963 596 975 l 611 883 q 557 890 583 890 q 444 837 476 890 q 401 658 411 783 l 397 600 l 635 600 l 635 518 z "},"₹":{"ha":885,"x_min":210,"x_max":781,"o":"m 781 810 l 492 810 q 564 679 550 751 l 781 679 l 781 597 l 568 597 q 509 467 558 522 q 381 382 460 413 l 701 31 l 636 -29 l 275 369 l 278 424 q 468 597 453 467 l 210 597 l 210 679 l 464 679 q 433 748 456 718 q 374 810 411 778 l 210 810 l 210 892 l 781 892 l 781 810 z "},"£":{"ha":735,"x_min":68,"x_max":656,"o":"m 656 82 l 656 0 l 72 0 l 72 60 q 201 194 160 135 q 243 308 243 254 q 210 435 243 368 l 68 435 l 68 517 l 169 517 q 131 703 131 607 q 165 834 131 775 q 263 928 199 893 q 413 963 326 963 q 643 858 550 961 l 596 796 q 516 856 557 835 q 418 878 475 876 q 284 827 331 878 q 238 699 238 776 q 250 603 238 644 q 285 517 263 563 l 576 517 l 576 435 l 324 435 q 350 308 350 372 q 319 195 350 249 q 224 82 288 142 l 656 82 z "},"¥":{"ha":735,"x_min":54,"x_max":679,"o":"m 457 593 l 639 593 l 639 511 l 419 511 l 419 417 l 639 417 l 639 335 l 419 335 l 419 0 l 314 0 l 314 335 l 92 335 l 92 417 l 314 417 l 314 511 l 92 511 l 92 593 l 275 593 l 54 944 l 171 944 l 368 610 l 565 944 l 679 944 l 457 593 z "},"≈":{"ha":736,"x_min":15,"x_max":719,"o":"m 15 468 q 113 565 61 528 q 236 603 165 603 q 311 589 278 603 q 385 550 344 575 q 447 517 422 528 q 500 507 471 507 q 661 607 590 507 l 719 554 q 621 457 671 493 q 500 421 571 421 q 433 433 463 421 q 358 471 404 446 q 294 506 321 494 q 236 517 267 517 q 147 488 186 517 q 72 413 107 460 l 15 468 m 15 185 q 113 282 61 244 q 236 319 165 319 q 311 306 278 319 q 385 267 344 292 q 447 234 422 244 q 500 224 471 224 q 661 324 590 224 l 719 271 q 621 174 671 210 q 500 138 571 138 q 433 150 463 138 q 358 188 404 163 q 294 222 321 211 q 236 233 267 233 q 147 205 186 233 q 72 129 107 176 l 15 185 z "},"~":{"ha":735,"x_min":15,"x_max":719,"o":"m 15 343 q 113 440 61 403 q 236 478 165 478 q 311 464 278 478 q 385 425 344 450 q 447 392 422 403 q 500 382 471 382 q 661 482 590 382 l 719 429 q 621 332 671 368 q 500 296 571 296 q 433 308 463 296 q 358 346 404 321 q 294 381 321 369 q 236 392 267 392 q 147 363 186 392 q 72 288 107 335 l 15 343 z "},"÷":{"ha":735,"x_min":46,"x_max":689,"o":"m 367 574 q 315 595 336 574 q 293 647 293 617 q 315 700 293 678 q 367 722 336 722 q 419 700 397 722 q 442 647 442 678 q 419 595 442 617 q 367 574 397 574 m 46 419 l 689 419 l 689 339 l 46 339 l 46 419 m 367 38 q 315 59 336 38 q 293 111 293 81 q 315 164 293 142 q 367 186 336 186 q 419 164 397 186 q 442 111 442 142 q 419 59 442 81 q 367 38 397 38 z "},"=":{"ha":735,"x_min":46,"x_max":689,"o":"m 46 558 l 689 558 l 689 478 l 46 478 l 46 558 m 46 281 l 689 281 l 689 200 l 46 200 l 46 281 z "},">":{"ha":735,"x_min":46,"x_max":689,"o":"m 689 414 l 689 340 l 46 39 l 46 128 l 590 378 l 46 628 l 46 717 l 689 414 z "},"≥":{"ha":735,"x_min":46,"x_max":689,"o":"m 689 483 l 689 410 l 46 176 l 46 264 l 571 447 l 46 629 l 46 717 l 689 483 m 46 79 l 689 79 l 689 0 l 46 0 l 46 79 z "},"∆":{"ha":893,"x_min":29,"x_max":863,"o":"m 863 0 l 29 0 l 396 957 l 494 957 l 863 0 m 722 83 l 444 825 l 167 83 l 722 83 z "},"∞":{"ha":750,"x_min":35,"x_max":715,"o":"m 536 565 q 665 517 615 565 q 715 372 715 468 q 663 227 715 276 q 535 178 611 178 q 371 276 425 178 q 303 201 340 225 q 213 178 265 178 q 84 226 133 178 q 35 371 35 275 q 86 516 35 467 q 214 565 138 565 q 374 464 318 565 q 443 541 404 517 q 536 565 482 565 m 213 256 q 286 286 260 256 q 336 382 313 317 l 340 392 q 288 463 321 438 q 214 488 256 488 q 144 459 174 488 q 115 371 115 431 q 143 284 115 313 q 213 256 171 256 m 535 256 q 606 284 576 256 q 635 372 635 313 q 607 459 635 431 q 536 488 579 488 q 463 458 489 488 q 411 364 436 428 q 406 350 407 353 q 458 281 425 306 q 535 256 492 256 z "},"∫":{"ha":735,"x_min":90,"x_max":644,"o":"m 172 -276 q 90 -265 135 -276 l 106 -185 q 164 -192 136 -192 q 280 -137 244 -192 q 315 31 315 -83 l 315 808 q 376 1034 315 956 q 564 1113 438 1113 q 644 1101 603 1113 l 629 1021 q 571 1028 599 1028 q 455 974 490 1028 q 419 806 419 919 l 419 28 q 358 -198 419 -119 q 172 -276 297 -276 z "},"<":{"ha":735,"x_min":46,"x_max":689,"o":"m 689 628 l 144 378 l 689 128 l 689 39 l 46 342 l 46 415 l 689 717 l 689 628 z "},"≤":{"ha":735,"x_min":46,"x_max":689,"o":"m 689 629 l 164 447 l 689 264 l 689 176 l 46 410 l 46 483 l 689 717 l 689 629 m 46 79 l 689 79 l 689 0 l 46 0 l 46 79 z "},"¬":{"ha":735,"x_min":46,"x_max":689,"o":"m 689 419 l 689 56 l 606 56 l 606 339 l 46 339 l 46 419 l 689 419 z "},"−":{"ha":735,"x_min":46,"x_max":689,"o":"m 46 419 l 689 419 l 689 339 l 46 339 l 46 419 z "},"×":{"ha":735,"x_min":111,"x_max":625,"o":"m 568 122 l 368 322 l 168 122 l 111 179 l 311 379 l 113 576 l 169 633 l 368 436 l 567 635 l 624 578 l 425 379 l 625 179 l 568 122 z "},"≠":{"ha":735,"x_min":46,"x_max":689,"o":"m 472 478 l 360 281 l 689 281 l 689 200 l 314 200 l 199 0 l 104 0 l 219 200 l 46 200 l 46 281 l 265 281 l 378 478 l 46 478 l 46 558 l 424 558 l 539 758 l 633 758 l 518 558 l 689 558 l 689 478 l 472 478 z "},"∂":{"ha":735,"x_min":51,"x_max":685,"o":"m 142 963 q 540 743 394 901 q 685 354 685 585 q 644 151 685 236 q 533 23 604 67 q 368 -21 461 -21 q 195 19 267 -21 q 88 124 124 58 q 51 269 51 190 q 86 416 51 349 q 186 524 121 483 q 342 564 251 564 q 462 541 404 564 q 564 478 519 518 q 418 732 532 633 q 114 883 304 831 l 142 963 m 368 63 q 520 136 464 63 q 576 347 576 210 l 576 351 q 347 481 490 481 q 209 422 258 481 q 160 268 160 364 q 213 121 160 179 q 368 63 267 63 z "},"%":{"ha":1156,"x_min":13,"x_max":1142,"o":"m 13 0 m 892 926 l 336 -35 l 265 8 l 821 969 l 892 926 m 229 363 q 67 442 122 363 q 13 658 13 521 q 67 875 13 796 q 229 954 122 954 q 392 875 338 954 q 447 658 447 796 q 392 442 447 521 q 229 363 338 363 m 231 431 q 360 658 360 431 q 231 885 360 885 q 103 658 103 885 q 231 431 103 431 m 924 -15 q 762 64 817 -15 q 707 281 707 143 q 762 497 707 418 q 924 576 817 576 q 1087 497 1032 576 q 1142 281 1142 418 q 1087 64 1142 143 q 924 -15 1032 -15 m 925 53 q 1054 281 1054 53 q 925 507 1054 507 q 797 281 797 507 q 925 53 797 53 z "},"‰":{"ha":1660,"x_min":13,"x_max":1646,"o":"m 13 0 m 892 926 l 336 -35 l 265 8 l 821 969 l 892 926 m 229 363 q 67 442 122 363 q 13 658 13 521 q 67 875 13 796 q 229 954 122 954 q 392 875 338 954 q 447 658 447 796 q 392 442 447 521 q 229 363 338 363 m 231 431 q 360 658 360 431 q 231 885 360 885 q 103 658 103 885 q 231 431 103 431 m 924 -15 q 762 64 817 -15 q 707 281 707 143 q 762 497 707 418 q 924 576 817 576 q 1087 497 1032 576 q 1142 281 1142 418 q 1087 64 1142 143 q 924 -15 1032 -15 m 925 53 q 1054 281 1054 53 q 925 507 1054 507 q 797 281 797 507 q 925 53 797 53 m 1428 -15 q 1266 64 1321 -15 q 1211 281 1211 143 q 1266 497 1211 418 q 1428 576 1321 576 q 1591 497 1536 576 q 1646 281 1646 418 q 1591 64 1646 143 q 1428 -15 1536 -15 m 1429 53 q 1558 281 1558 53 q 1429 507 1558 507 q 1301 281 1301 507 q 1429 53 1301 53 z "},"+":{"ha":735,"x_min":46,"x_max":689,"o":"m 689 339 l 410 339 l 410 56 l 326 56 l 326 339 l 46 339 l 46 419 l 326 419 l 326 700 l 410 700 l 410 419 l 689 419 l 689 339 z "},"±":{"ha":735,"x_min":46,"x_max":689,"o":"m 689 465 l 689 388 l 410 388 l 410 165 l 326 165 l 326 388 l 46 388 l 46 465 l 326 465 l 326 700 l 410 700 l 410 465 l 689 465 m 46 79 l 689 79 l 689 0 l 46 0 l 46 79 z "},"∏":{"ha":1064,"x_min":160,"x_max":906,"o":"m 906 -326 l 797 -326 l 797 861 l 268 861 l 268 -326 l 160 -326 l 160 944 l 906 944 l 906 -326 z "},"√":{"ha":735,"x_min":43,"x_max":693,"o":"m 693 944 l 411 0 l 324 0 l 153 475 l 43 475 l 43 556 l 222 556 l 365 117 l 599 944 l 693 944 z "},"∑":{"ha":917,"x_min":104,"x_max":840,"o":"m 104 -272 l 524 313 l 121 875 l 121 944 l 825 944 l 825 861 l 249 861 l 643 313 l 240 -249 l 840 -249 l 840 -332 l 104 -332 l 104 -272 z "},"◌":{"ha":1069,"x_min":129,"x_max":940,"o":"m 536 742 q 496 758 513 742 q 479 799 479 775 q 496 838 479 821 q 536 856 513 856 q 576 838 558 856 q 593 799 593 821 q 576 758 593 775 q 536 742 558 742 m 358 697 q 319 714 336 697 q 303 754 303 731 q 319 794 303 778 q 358 811 336 811 q 399 794 382 811 q 415 754 415 778 q 399 715 415 732 q 358 697 382 697 m 708 697 q 669 715 686 697 q 651 754 651 732 q 669 794 651 778 q 708 811 686 811 q 749 794 732 811 q 765 754 765 778 q 749 714 765 731 q 708 697 732 697 m 229 568 q 189 585 206 568 q 172 625 172 601 q 189 665 172 649 q 229 682 206 682 q 269 665 253 682 q 286 625 286 649 q 269 585 286 601 q 229 568 253 568 m 840 568 q 800 585 817 568 q 783 625 783 601 q 801 665 783 649 q 840 682 818 682 q 881 665 864 682 q 897 625 897 649 q 881 585 897 601 q 840 568 864 568 m 186 392 q 146 408 163 392 q 129 449 129 425 q 146 489 129 472 q 186 506 163 506 q 226 489 210 506 q 243 449 243 472 q 226 409 243 426 q 186 392 210 392 m 883 392 q 844 409 861 392 q 828 449 828 426 q 844 489 828 472 q 883 506 861 506 q 924 489 907 506 q 940 449 940 472 q 924 408 940 425 q 883 392 907 392 m 229 217 q 189 233 206 217 q 172 274 172 250 q 189 313 172 297 q 229 329 206 329 q 269 313 253 329 q 286 274 286 296 q 269 234 286 251 q 229 217 253 217 m 840 217 q 801 234 818 217 q 783 274 783 251 q 800 313 783 296 q 840 329 817 329 q 881 313 864 329 q 897 274 897 297 q 881 233 897 250 q 840 217 864 217 m 358 85 q 319 101 336 85 q 303 142 303 118 q 319 181 303 165 q 358 197 336 197 q 399 181 382 197 q 415 142 415 164 q 399 102 415 119 q 358 85 382 85 m 708 85 q 669 102 686 85 q 651 142 651 119 q 668 181 651 164 q 708 197 685 197 q 749 181 732 197 q 765 142 765 165 q 749 101 765 118 q 708 85 732 85 m 536 42 q 496 58 513 42 q 479 99 479 75 q 496 139 479 122 q 536 156 513 156 q 576 139 558 156 q 593 99 593 122 q 576 59 593 76 q 536 42 558 42 z "},"◊":{"ha":735,"x_min":83,"x_max":651,"o":"m 651 472 l 411 0 l 322 0 l 83 472 l 324 944 l 413 944 l 651 472 m 557 472 l 368 844 l 179 472 l 368 100 l 557 472 z "},"|":{"ha":483,"x_min":188,"x_max":296,"o":"m 188 1121 l 296 1121 l 296 -328 l 188 -328 l 188 1121 z "},"¦":{"ha":483,"x_min":188,"x_max":296,"o":"m 188 1121 l 296 1121 l 296 554 l 188 554 l 188 1121 m 188 239 l 296 239 l 296 -328 l 188 -328 l 188 239 z "},"@":{"ha":1157,"x_min":78,"x_max":1079,"o":"m 379 225 q 412 312 379 278 q 506 371 444 346 q 681 426 568 396 l 681 465 q 663 542 681 513 q 594 571 644 571 q 511 551 549 571 q 425 475 474 531 l 381 536 q 600 649 479 649 q 729 603 690 649 q 768 461 768 557 l 768 217 q 814 174 768 174 q 897 203 857 174 q 963 295 938 233 q 988 447 988 357 q 935 629 988 550 q 795 752 883 708 q 603 796 707 796 q 376 741 475 796 q 224 585 278 686 q 169 351 169 485 q 225 134 169 229 q 375 -13 281 39 q 579 -65 469 -65 q 730 -42 661 -65 q 872 31 799 -19 l 910 -33 q 751 -118 826 -92 q 578 -144 675 -144 q 335 -84 450 -144 q 149 90 219 -24 q 78 353 78 203 q 146 624 78 506 q 333 808 214 742 q 601 874 451 874 q 848 819 739 874 q 1018 667 957 764 q 1079 449 1079 571 q 1040 259 1079 338 q 937 140 1000 181 q 804 100 874 100 q 727 121 758 100 q 685 176 696 142 q 514 100 592 100 q 417 135 454 100 q 379 225 379 169 m 467 229 q 526 176 467 176 q 597 194 561 176 q 681 250 633 213 l 681 354 q 513 294 560 321 q 467 229 467 268 z "},"&":{"ha":997,"x_min":60,"x_max":951,"o":"m 951 1 q 872 -11 918 -11 q 779 10 818 -11 q 683 93 740 32 l 665 114 q 368 -19 529 -19 q 202 15 272 -19 q 96 106 132 49 q 60 231 60 163 q 113 394 60 324 q 293 528 167 465 q 208 644 232 599 q 183 750 183 690 q 245 901 183 840 q 422 963 307 963 q 548 936 496 963 q 626 866 600 910 q 653 771 653 822 q 603 619 653 682 q 440 503 554 556 l 665 253 q 821 614 756 386 l 915 596 q 726 185 849 346 l 756 153 q 820 92 793 111 q 878 74 847 74 q 932 82 907 74 l 951 1 m 422 879 q 322 843 356 879 q 289 753 289 807 q 309 664 289 703 q 383 564 329 625 q 510 653 472 606 q 547 768 547 700 q 515 847 547 814 q 422 879 482 879 m 374 64 q 607 178 504 64 l 349 465 q 206 359 244 410 q 168 239 168 308 q 222 115 168 167 q 374 64 276 64 z "},"¶":{"ha":822,"x_min":42,"x_max":665,"o":"m 665 -35 q 603 -260 665 -182 q 415 -339 542 -339 q 333 -328 378 -339 l 349 -246 q 407 -253 379 -253 q 523 -199 488 -253 q 558 -32 558 -144 l 558 278 l 414 278 q 138 369 235 278 q 42 613 42 460 q 84 783 42 707 q 210 901 126 858 q 414 944 294 944 l 665 944 l 665 -35 z "},"©":{"ha":1138,"x_min":79,"x_max":1057,"o":"m 568 -21 q 322 46 433 -21 q 144 226 210 113 q 79 476 79 340 q 144 720 79 608 q 322 897 210 832 q 568 963 433 963 q 815 897 703 963 q 992 720 928 832 q 1057 476 1057 608 q 992 226 1057 340 q 815 46 928 113 q 568 -21 703 -21 m 568 49 q 774 106 681 49 q 921 262 867 164 q 975 476 975 360 q 921 686 975 590 q 774 838 867 782 q 568 893 681 893 q 362 838 456 893 q 215 686 268 782 q 161 476 161 590 q 215 262 161 360 q 362 106 268 164 q 568 49 456 49 m 575 221 q 444 256 500 221 q 359 347 389 290 q 329 471 329 404 q 360 594 329 538 q 449 685 390 651 q 585 719 507 719 q 681 701 636 719 q 757 651 725 683 l 717 600 q 660 636 694 622 q 589 650 625 650 q 462 599 511 650 q 413 471 413 547 q 459 342 413 393 q 579 290 506 290 q 726 357 669 290 l 765 307 q 683 245 732 269 q 575 221 635 221 z "},"®":{"ha":515,"x_min":47,"x_max":469,"o":"m 258 974 q 365 946 317 974 q 442 869 414 918 q 469 763 469 821 q 442 657 469 706 q 365 581 414 608 q 258 553 317 553 q 153 581 201 553 q 76 657 104 608 q 47 763 47 706 q 76 869 47 821 q 153 946 104 918 q 258 974 201 974 m 258 597 q 373 646 325 597 q 421 763 421 694 q 373 881 421 832 q 258 931 325 931 q 144 881 192 931 q 96 763 96 832 q 144 646 96 694 q 258 597 192 597 m 343 796 q 307 738 343 754 l 358 665 l 300 665 l 257 728 l 231 728 l 231 665 l 181 665 l 181 863 l 263 863 q 322 844 301 863 q 343 796 343 825 m 231 768 l 260 768 q 290 796 290 768 q 282 815 290 807 q 260 822 274 822 l 231 822 l 231 768 z "},"§":{"ha":838,"x_min":165,"x_max":697,"o":"m 585 189 q 675 31 675 131 q 601 -138 675 -79 q 406 -197 526 -197 q 276 -178 333 -197 q 165 -124 218 -160 l 201 -47 q 406 -115 293 -115 q 526 -80 479 -115 q 574 26 574 -44 q 531 106 574 78 q 401 167 489 135 q 284 216 329 193 q 207 279 239 239 q 175 382 175 319 q 206 490 175 442 q 296 578 238 538 q 197 742 197 636 q 266 894 197 842 q 443 947 335 947 q 678 875 576 947 l 642 797 q 444 865 554 865 q 340 835 381 865 q 299 749 299 806 q 322 685 299 711 q 378 643 344 660 q 469 604 411 626 q 589 553 544 576 q 665 487 633 529 q 697 378 697 444 q 585 189 697 269 m 276 388 q 299 325 276 350 q 357 284 322 300 q 451 247 392 268 l 493 232 q 596 375 596 290 q 572 440 596 414 q 514 483 549 467 q 419 522 479 500 l 383 536 q 276 388 276 476 z "},"™":{"ha":1019,"x_min":56,"x_max":853,"o":"m 381 892 l 258 892 l 258 547 l 179 547 l 179 892 l 56 892 l 56 950 l 381 950 l 381 892 m 853 950 l 853 547 l 774 547 l 774 658 l 775 826 l 675 681 l 621 681 l 519 828 l 521 658 l 521 547 l 442 547 l 442 950 l 518 950 l 647 760 l 776 950 l 853 950 z "},"°":{"ha":617,"x_min":83,"x_max":535,"o":"m 308 515 q 188 547 239 515 q 110 630 138 578 q 83 743 83 682 q 110 857 83 804 q 188 942 138 910 q 308 974 239 974 q 429 942 378 974 q 508 858 481 910 q 535 746 535 806 q 508 631 535 683 q 429 547 481 578 q 308 515 378 515 m 308 583 q 413 629 372 583 q 453 744 453 675 q 413 859 453 813 q 308 906 372 906 q 205 859 246 906 q 164 744 164 813 q 205 629 164 675 q 308 583 246 583 z "},"^":{"ha":735,"x_min":161,"x_max":574,"o":"m 483 229 l 368 460 l 251 229 l 161 229 l 319 540 l 415 540 l 574 229 l 483 229 z "},"†":{"ha":500,"x_min":33,"x_max":465,"o":"m 465 646 l 465 565 l 33 565 l 33 646 l 197 646 l 197 944 l 301 944 l 301 646 l 465 646 m 197 464 l 301 464 l 293 -210 l 206 -210 l 197 464 z "},"‡":{"ha":500,"x_min":33,"x_max":465,"o":"m 465 646 l 465 565 l 33 565 l 33 646 l 197 646 l 197 944 l 301 944 l 301 646 l 465 646 m 318 367 q 296 315 318 336 q 243 293 274 293 q 191 315 213 293 q 169 367 169 336 q 191 419 169 397 q 243 442 213 442 q 296 419 274 442 q 318 367 318 397 m 33 169 l 465 169 l 465 89 l 301 89 l 301 -210 l 197 -210 l 197 89 l 33 89 l 33 169 z "},"ऽ":{"ha":733,"x_min":54,"x_max":633,"o":"m 360 28 q 188 79 263 28 q 54 233 113 131 l 122 282 q 356 110 222 110 q 455 147 418 110 q 492 244 492 185 q 456 359 492 304 q 354 482 421 414 l 260 581 q 181 677 207 635 q 156 765 156 719 q 304 892 156 892 l 633 892 l 633 810 l 317 810 q 267 797 281 810 q 253 758 253 785 q 271 708 253 735 q 328 639 289 681 l 422 540 q 549 381 508 450 q 589 242 589 311 q 525 88 589 147 q 360 28 461 28 z "},"ॐ":{"ha":1510,"x_min":0,"x_max":1435,"o":"m 910 956 q 852 980 876 956 q 828 1038 828 1004 q 852 1094 828 1071 q 910 1118 876 1118 q 967 1094 943 1118 q 992 1038 992 1071 q 967 980 992 1004 q 910 956 943 956 m 913 735 q 738 784 815 735 q 617 910 661 833 l 681 957 q 913 815 771 815 q 1144 957 1054 815 l 1207 910 q 1085 784 1163 833 q 913 735 1008 735 m 1215 663 q 1375 597 1315 663 q 1435 431 1435 531 q 1376 257 1435 325 q 1217 189 1318 189 q 993 324 1085 189 q 899 204 949 247 q 778 161 849 161 q 687 181 728 161 q 607 238 646 200 q 526 101 594 154 q 354 49 457 49 q 0 343 121 49 l 67 392 q 190 199 118 267 q 353 131 261 132 q 469 174 425 132 q 513 279 513 215 q 485 374 513 332 q 406 454 458 417 q 275 432 343 436 l 254 515 q 489 682 489 522 q 449 788 489 744 q 343 831 408 831 q 158 757 253 831 l 114 832 q 219 890 160 868 q 343 913 278 913 q 463 885 408 913 q 552 804 518 858 q 586 672 586 750 q 488 492 586 557 q 572 399 542 447 q 673 283 631 321 q 774 246 715 246 q 865 290 826 246 q 954 428 903 335 q 1027 550 994 503 q 1107 630 1060 597 q 1215 663 1154 663 m 1214 272 q 1303 317 1271 272 q 1336 429 1336 361 q 1304 538 1336 497 q 1215 579 1272 579 q 1121 535 1160 579 q 1036 403 1082 490 q 1114 307 1071 342 q 1214 272 1157 272 z "},"̦":{"ha":696,"x_min":-440,"x_max":-258,"o":"m -440 -283 q -365 -244 -386 -264 q -343 -197 -343 -225 q -359 -165 -343 -178 q -412 -146 -375 -151 l -387 -85 q -289 -122 -319 -93 q -258 -193 -258 -151 q -295 -277 -258 -240 q -411 -335 -332 -314 l -440 -283 z "},"´":{"ha":694,"x_min":225,"x_max":471,"o":"m 360 1114 l 471 1114 l 308 819 l 225 819 l 360 1114 z "},"˘":{"ha":694,"x_min":151,"x_max":542,"o":"m 347 851 q 206 912 257 851 q 151 1081 154 972 l 222 1083 q 259 960 226 1001 q 347 919 292 919 q 434 960 401 919 q 471 1083 467 1001 l 542 1081 q 489 912 540 972 q 347 851 438 851 z "},"ˇ":{"ha":694,"x_min":149,"x_max":546,"o":"m 546 1111 l 399 819 l 297 819 l 149 1111 l 232 1111 l 347 897 l 464 1111 l 546 1111 z "},"¸":{"ha":694,"x_min":238,"x_max":460,"o":"m 360 -93 q 431 -117 403 -93 q 460 -178 460 -140 q 285 -331 460 -282 l 256 -279 q 350 -233 325 -254 q 375 -186 375 -211 q 333 -151 375 -151 q 281 -165 311 -151 l 238 -124 l 311 13 l 386 13 l 329 -97 q 360 -93 344 -93 z "},"ˆ":{"ha":694,"x_min":149,"x_max":546,"o":"m 464 819 l 347 1033 l 232 819 l 149 819 l 297 1111 l 399 1111 l 546 819 l 464 819 z "},"¨":{"ha":694,"x_min":146,"x_max":550,"o":"m 213 983 q 166 1003 186 983 q 146 1049 146 1022 q 165 1097 146 1076 q 213 1117 185 1117 q 260 1097 240 1117 q 281 1049 281 1076 q 260 1003 281 1022 q 213 983 240 983 m 482 983 q 435 1003 456 983 q 415 1049 415 1022 q 435 1097 415 1076 q 482 1117 454 1117 q 530 1097 510 1117 q 550 1049 550 1076 q 530 1003 550 1022 q 482 983 510 983 z "},"˙":{"ha":694,"x_min":281,"x_max":415,"o":"m 347 983 q 301 1003 321 983 q 281 1049 281 1022 q 300 1097 281 1076 q 347 1117 319 1117 q 395 1097 375 1117 q 415 1049 415 1076 q 395 1003 415 1022 q 347 983 375 983 z "},"`":{"ha":694,"x_min":224,"x_max":469,"o":"m 224 1111 l 335 1111 l 469 819 l 386 819 l 224 1111 z "},"˝":{"ha":694,"x_min":121,"x_max":582,"o":"m 256 1111 l 360 1111 l 197 819 l 121 819 l 256 1111 m 478 1111 l 582 1111 l 419 819 l 343 819 l 478 1111 z "},"¯":{"ha":694,"x_min":138,"x_max":556,"o":"m 138 1086 l 556 1086 l 556 1008 l 138 1008 l 138 1086 z "},"˛":{"ha":694,"x_min":214,"x_max":493,"o":"m 353 -337 q 251 -303 289 -337 q 214 -207 214 -268 q 251 -92 214 -150 q 360 21 289 -33 l 456 21 q 339 -96 376 -44 q 301 -194 301 -147 q 318 -242 301 -226 q 365 -258 335 -258 q 453 -215 410 -258 l 493 -268 q 432 -318 469 -299 q 353 -337 394 -337 z "},"˚":{"ha":694,"x_min":190,"x_max":506,"o":"m 347 824 q 232 868 274 824 q 190 974 190 913 q 232 1078 190 1033 q 347 1122 274 1122 q 463 1078 421 1122 q 506 974 506 1035 q 463 868 506 913 q 347 824 421 824 m 347 881 q 410 907 386 881 q 433 974 433 933 q 410 1040 433 1014 q 347 1065 388 1065 q 284 1040 307 1065 q 261 974 261 1014 q 285 907 261 933 q 347 881 308 881 z "},"˜":{"ha":694,"x_min":121,"x_max":574,"o":"m 121 879 q 163 1019 128 969 q 254 1068 197 1068 q 312 1052 289 1068 q 364 1003 335 1036 q 401 965 385 978 q 438 953 417 953 q 482 980 467 953 q 506 1071 497 1007 l 574 1065 q 532 926 567 976 q 440 876 497 876 q 378 894 403 876 q 325 944 354 911 q 290 980 306 968 q 257 992 275 992 q 213 965 228 992 q 189 874 197 939 l 121 879 z "},"ु":{"ha":0,"x_min":-562,"x_max":0,"o":"m -239 -368 q -415 -323 -337 -368 q -562 -196 -493 -278 l -504 -137 q -381 -248 -443 -210 q -242 -286 -318 -286 q -136 -256 -174 -286 q -99 -176 -99 -225 q -129 -106 -99 -133 q -206 -78 -160 -78 q -340 -128 -276 -78 l -381 -56 q -203 6 -306 6 q -60 -42 -119 6 q 0 -176 0 -90 q -64 -315 0 -262 q -239 -368 -128 -368 z "},"ू":{"ha":0,"x_min":-446,"x_max":115,"o":"m -207 6 q -31 -40 -108 6 q 115 -168 47 -86 l 58 -225 q -66 -114 -4 -151 q -204 -76 -128 -76 q -310 -108 -272 -76 q -349 -187 -349 -139 q -318 -258 -349 -231 q -240 -285 -287 -285 q -106 -235 -169 -285 l -67 -308 q -243 -368 -137 -368 q -386 -320 -326 -368 q -446 -187 -446 -272 q -382 -48 -446 -101 q -207 6 -318 6 z "},"ृ":{"ha":0,"x_min":-383,"x_max":-39,"o":"m -196 -325 q -331 -277 -279 -325 q -383 -157 -383 -229 q -343 -49 -383 -97 q -214 46 -303 -1 l -150 -11 q -292 -153 -292 -76 q -267 -218 -292 -193 q -193 -243 -242 -243 q -82 -207 -128 -243 l -39 -279 q -109 -312 -68 -300 q -196 -325 -150 -325 z "},"ॄ":{"ha":0,"x_min":-383,"x_max":88,"o":"m 88 -503 q -3 -572 46 -547 q -119 -596 -53 -596 q -249 -552 -197 -596 q -300 -435 -300 -508 q -260 -317 -300 -375 q -350 -257 -317 -300 q -383 -157 -383 -214 q -343 -49 -383 -97 q -214 46 -303 -1 l -150 -11 q -292 -153 -292 -76 q -267 -218 -292 -193 q -193 -243 -242 -243 q -82 -207 -128 -243 l -39 -279 q -164 -324 -93 -315 q -208 -435 -208 -372 q -184 -492 -208 -471 q -115 -514 -160 -514 q 42 -435 -28 -514 l 88 -503 z "},"ॢ":{"ha":0,"x_min":-632,"x_max":26,"o":"m 26 -489 q -42 -540 -6 -522 q -128 -557 -78 -557 q -222 -527 -182 -557 q -262 -447 -262 -497 q -245 -383 -262 -411 q -196 -322 -228 -356 q -159 -278 -171 -296 q -147 -242 -147 -261 q -166 -197 -147 -214 q -214 -181 -185 -181 q -294 -224 -265 -181 q -325 -339 -322 -267 l -411 -326 q -387 -217 -407 -265 q -471 -168 -422 -168 q -518 -190 -500 -168 q -536 -249 -536 -211 q -421 -439 -536 -346 l -478 -496 q -593 -373 -554 -431 q -632 -239 -632 -315 q -588 -129 -632 -171 q -478 -87 -544 -87 q -344 -150 -404 -87 q -254 -104 -307 -112 l -254 18 l -157 18 l -157 -108 q -79 -158 -107 -122 q -51 -242 -51 -194 q -69 -303 -51 -276 q -119 -362 -86 -329 q -156 -404 -144 -387 q -168 -439 -168 -421 q -156 -467 -168 -457 q -119 -476 -143 -476 q -72 -462 -96 -476 q -19 -419 -49 -449 l 26 -489 z "},"ॣ":{"ha":0,"x_min":-632,"x_max":131,"o":"m 131 -628 q -12 -686 75 -686 q -107 -656 -69 -686 q -144 -575 -144 -625 q -143 -557 -144 -562 q -228 -524 -193 -553 q -262 -447 -262 -494 q -245 -383 -262 -411 q -196 -322 -228 -356 q -159 -278 -171 -296 q -147 -242 -147 -261 q -166 -197 -147 -214 q -214 -181 -185 -181 q -294 -224 -265 -181 q -325 -339 -322 -267 l -411 -326 q -387 -217 -407 -265 q -471 -168 -422 -168 q -518 -190 -500 -168 q -536 -249 -536 -211 q -421 -439 -536 -346 l -478 -496 q -593 -373 -554 -431 q -632 -239 -632 -315 q -588 -129 -632 -171 q -478 -87 -544 -87 q -344 -150 -404 -87 q -254 -104 -307 -112 l -254 18 l -157 18 l -157 -108 q -79 -158 -107 -122 q -51 -242 -51 -194 q -69 -303 -51 -276 q -119 -362 -86 -329 q -156 -404 -144 -387 q -168 -439 -168 -421 q -156 -467 -168 -457 q -119 -476 -143 -476 q -72 -462 -96 -476 q -19 -419 -49 -449 l 26 -489 q -50 -543 -7 -525 q -51 -560 -51 -549 q -39 -592 -51 -581 q -3 -603 -26 -603 q 85 -560 46 -603 l 131 -628 z "},"ॅ":{"ha":0,"x_min":-499,"x_max":92,"o":"m -203 1019 q -377 1069 -300 1019 q -499 1194 -454 1118 l -435 1242 q -203 1100 -344 1100 q 29 1242 -61 1100 l 92 1194 q -30 1069 47 1118 q -203 1019 -107 1019 z "},"ँ":{"ha":0,"x_min":-499,"x_max":92,"o":"m 0 1019 m -203 1019 q -377 1069 -300 1019 q -499 1194 -454 1118 l -435 1242 q -203 1100 -344 1100 q 29 1242 -61 1100 l 92 1194 q -30 1069 47 1118 q -203 1019 -107 1019 m -287 1322 q -263 1379 -287 1356 q -206 1403 -239 1403 q -148 1379 -172 1403 q -124 1322 -124 1356 q -148 1265 -124 1289 q -206 1240 -172 1240 q -263 1265 -239 1240 q -287 1322 -287 1289 z "},"ॆ":{"ha":0,"x_min":-868,"x_max":-139,"o":"m -250 868 q -235 944 -235 896 q -271 1047 -235 1006 q -393 1089 -307 1089 q -542 1081 -442 1089 q -682 1072 -639 1072 q -819 1110 -771 1072 q -868 1218 -868 1147 q -832 1338 -868 1278 l -744 1314 q -772 1229 -772 1271 q -750 1174 -772 1192 q -676 1156 -728 1156 q -532 1164 -629 1156 q -393 1172 -437 1172 q -204 1109 -269 1172 q -139 943 -139 1046 q -154 864 -139 899 l -250 868 z "},"े":{"ha":0,"x_min":-650,"x_max":-157,"o":"m -315 1007 q -388 1153 -358 1101 q -453 1233 -418 1204 q -536 1263 -489 1263 q -632 1243 -587 1263 l -650 1322 q -537 1350 -601 1350 q -420 1316 -469 1350 q -329 1216 -371 1282 q -231 1029 -287 1150 l -157 874 l -254 874 l -315 1007 z "},"ै":{"ha":0,"x_min":-635,"x_max":-122,"o":"m -258 1015 q -347 1219 -312 1149 q -424 1328 -382 1289 q -519 1367 -465 1367 q -611 1347 -568 1367 l -629 1426 q -517 1454 -582 1454 q -389 1411 -443 1454 q -287 1279 -335 1368 q -179 1029 -240 1190 l -122 879 l -206 879 l -258 1015 m -349 976 q -428 1077 -387 1046 q -521 1108 -469 1108 q -569 1104 -547 1108 q -617 1089 -590 1100 l -635 1168 q -522 1194 -583 1194 q -385 1142 -447 1194 q -276 1001 -324 1090 l -201 867 l -285 867 l -349 976 z "},"ं":{"ha":0,"x_min":-281,"x_max":-117,"o":"m -281 1097 q -256 1154 -281 1131 q -199 1178 -232 1178 q -141 1154 -165 1178 q -117 1097 -117 1131 q -141 1040 -117 1064 q -199 1015 -165 1015 q -256 1040 -232 1015 q -281 1097 -281 1064 z "},"्":{"ha":0,"x_min":-487,"x_max":93,"o":"m -364 -103 q -115 -175 -229 -103 q 93 -356 0 -247 l 35 -403 q -319 -181 -129 -206 l -319 -278 q -375 -287 -347 -287 q -456 -258 -424 -287 q -487 -186 -487 -229 q -364 -103 -487 -103 z "},"़":{"ha":0,"x_min":-82,"x_max":82,"o":"m -82 -179 q -58 -122 -82 -146 q 0 -97 -33 -97 q 58 -122 33 -97 q 82 -179 82 -146 q 58 -237 82 -212 q 0 -261 33 -261 q -58 -237 -33 -261 q -82 -179 -82 -212 z "},"ऺ":{"ha":0,"x_min":-256,"x_max":-154,"o":"m -256 1258 l -154 1258 l -154 868 l -256 868 l -256 1258 z "},"ॖ":{"ha":0,"x_min":-624,"x_max":-3,"o":"m -312 -299 q -497 -248 -412 -299 q -624 -119 -581 -197 l -558 -72 q -457 -176 -518 -136 q -312 -217 -396 -217 q -168 -176 -229 -217 q -68 -72 -107 -136 l -3 -119 q -131 -248 -47 -197 q -312 -299 -214 -299 z "},"ॗ":{"ha":0,"x_min":-624,"x_max":-3,"o":"m -312 -299 q -497 -248 -412 -299 q -624 -119 -581 -197 l -558 -72 q -457 -176 -518 -136 q -312 -217 -396 -217 q -168 -176 -229 -217 q -68 -72 -107 -136 l -3 -119 q -131 -248 -47 -197 q -312 -299 -214 -299 m -312 -547 q -497 -497 -412 -547 q -624 -368 -581 -446 l -558 -321 q -457 -425 -518 -385 q -312 -465 -396 -465 q -168 -425 -229 -465 q -68 -321 -107 -385 l -3 -368 q -131 -497 -47 -446 q -312 -547 -214 -547 z "},"॑":{"ha":0,"x_min":-253,"x_max":-160,"o":"m -253 1364 l -160 1364 l -160 1031 l -253 1031 l -253 1364 z "},"॒":{"ha":0,"x_min":-551,"x_max":117,"o":"m -551 -272 l 117 -272 l 117 -353 l -551 -353 l -551 -272 z "},"॓":{"ha":0,"x_min":-517,"x_max":-154,"o":"m -517 1364 l -403 1364 l -154 1053 l -250 1053 l -517 1364 z "},"॔":{"ha":0,"x_min":-246,"x_max":117,"o":"m 1 1364 l 117 1364 l -150 1053 l -246 1053 l 1 1364 z "},"ः":{"ha":456,"x_min":151,"x_max":300,"o":"m 225 536 q 173 558 194 536 q 151 611 151 581 q 173 664 151 642 q 225 686 194 686 q 278 664 256 686 q 300 611 300 642 q 278 558 300 581 q 225 536 257 536 m 225 75 q 173 97 194 75 q 151 149 151 118 q 173 201 151 179 q 225 224 194 224 q 278 201 256 224 q 300 149 300 179 q 278 97 300 118 q 225 75 256 75 z "}}}
